<?xml version="1.0" encoding="UTF-8"?>
<svg width="933px" height="129px" viewBox="0 0 933 129" version="1.1" xmlns="http://www.w3.org/2000/svg" xmlns:xlink="http://www.w3.org/1999/xlink">
    <!-- Generator: Sketch 54.1 (76490) - https://sketchapp.com -->
    <title>logo/hz_black</title>
    <desc>Created with Sketch.</desc>
    <defs>
        <polygon id="path-1" points="0 0.295354839 74.185265 0.295354839 74.185265 118.503097 0 118.503097"></polygon>
        <polygon id="path-3" points="0.878592 0.916676471 95.584512 0.916676471 95.584512 127.511224 0.878592 127.511224"></polygon>
        <polygon id="path-5" points="0.603140741 0.133470827 101.540148 0.133470827 101.540148 93 0.603140741 93"></polygon>
    </defs>
    <g id="logo/hz_black" stroke="none" stroke-width="1" fill="none" fill-rule="evenodd">
        <g id="Group-20">
            <g id="Group-3" transform="translate(0.000000, 9.000000)">
                <mask id="mask-2" fill="white">
                    <use xlink:href="#path-1"></use>
                </mask>
                <g id="Clip-2"></g>
                <path d="M60.467715,40.6269677 L33.417615,40.6269677 L33.417615,29.8695484 L60.175115,29.8695484 C63.416815,29.8695484 66.323565,28.7585806 68.764465,26.6179355 C71.286215,24.4927742 72.899365,21.7327742 73.576965,18.3418065 L73.638565,18.0050323 C74.562565,13.5572903 73.634715,9.33793548 70.989765,5.84245161 C68.306315,2.21148387 64.591065,0.295354839 60.244415,0.295354839 L19.630765,0.295354839 C14.256165,0.295354839 9.593815,2.35858065 5.766915,6.43470968 C1.940015,10.5069677 -0.000385,15.4927742 -0.000385,21.2605161 L-0.000385,100.843742 C-0.000385,105.725032 1.643565,109.944387 4.881415,113.389548 C8.069215,116.780516 12.011615,118.503097 16.593115,118.503097 L16.816415,118.503097 C21.405615,118.503097 25.344165,116.780516 28.535815,113.389548 C31.777515,109.944387 33.417615,105.721161 33.417615,100.843742 L33.417615,69.9650323 L60.467715,69.9650323 C64.167565,69.9650323 67.501665,68.4979355 70.069615,65.7611613 C72.756915,62.9779355 74.185265,59.3895484 74.185265,55.3753548 L74.185265,55.2205161 C74.185265,51.2837419 72.776165,47.7069677 70.115815,44.8772903 C67.501665,42.0979355 64.167565,40.6269677 60.467715,40.6269677" id="Fill-1" fill="#000000" mask="url(#mask-2)"></path>
            </g>
            <path d="M256.018292,93.0690979 C252.995699,96.3166987 249.520878,97.8944338 245.400566,97.8944338 C241.280255,97.8944338 237.801568,96.3166987 234.755784,93.0460653 C231.590179,89.6909789 230.047961,85.7408829 230.047961,80.9616123 C230.047961,76.1823417 231.590179,72.2245681 234.755784,68.8733205 C237.782242,65.6641075 241.264794,64.1055662 245.400566,64.1055662 C249.532473,64.1055662 253.015025,65.6641075 256.018292,68.8464491 C259.14911,72.2053743 260.664271,76.1669866 260.664271,80.9616123 C260.664271,85.7523992 259.14911,89.7140115 256.018292,93.0690979 M144.309924,93.0690979 C141.279602,96.3166987 137.808645,97.8944338 133.688334,97.8944338 C129.564157,97.8944338 126.089335,96.3166987 123.043552,93.0460653 C119.877947,89.6909789 118.335729,85.7408829 118.335729,80.9616123 C118.335729,76.1823417 119.877947,72.2245681 123.043552,68.8733205 C126.070009,65.6641075 129.552561,64.1055662 133.688334,64.1055662 C137.820241,64.1055662 141.302793,65.6641075 144.309924,68.8464491 C147.433012,72.2053743 148.952039,76.1669866 148.952039,80.9616123 C148.952039,85.7523992 147.433012,89.7140115 144.309924,93.0690979 M247.785399,35 C246.965975,35 246.162012,35.0230326 245.377375,35.0690979 C244.507703,35.0230326 243.661223,35 242.849529,35 C229.618923,35 218.154717,39.5451056 208.762263,48.5163148 C203.316185,53.7485605 199.450977,59.6525912 197.166639,66.1631478 L181.821765,66.1708253 C179.525832,59.6564299 175.637433,53.7447217 170.156568,48.5163148 C160.825957,39.5489443 149.361751,35 136.073167,35 C135.257608,35 134.44978,35.0230326 133.669008,35.0690979 C132.799336,35.0230326 131.94899,35 131.133431,35 C117.910556,35 106.442485,39.5451056 97.0500299,48.5163148 C87.727149,57.4721689 83,68.3857965 83,80.9616123 C83,93.6410749 87.7310142,104.589251 97.0616256,113.495202 C106.442485,122.454894 117.910556,127 131.133431,127 C131.937395,127 132.78774,126.976967 133.669008,126.927063 C134.45751,126.976967 135.265338,127 136.073167,127 C149.361751,127 160.829822,122.451056 170.133377,113.506718 C174.787087,109.095969 178.300561,104.182342 180.662203,98.8003839 L198.314606,98.7927063 C200.664652,104.170825 204.15107,109.084453 208.769993,113.495202 C218.154717,122.454894 229.618923,127 242.849529,127 C243.653492,127 244.503838,126.976967 245.377375,126.927063 C246.169743,126.976967 246.977571,127 247.785399,127 C261.073983,127 272.542055,122.451056 281.849475,113.506718 C291.238064,104.600768 296,93.6449136 296,80.9616123 C296,68.3819578 291.241929,57.4644914 281.868801,48.5163148 C272.538189,39.5489443 261.073983,35 247.785399,35" id="Fill-4" fill="#000000"></path>
            <g id="Group-8" transform="translate(301.000000, 0.000000)">
                <mask id="mask-4" fill="white">
                    <use xlink:href="#path-3"></use>
                </mask>
                <g id="Clip-7"></g>
                <path d="M59.538432,88.3191059 C59.380992,94.2757529 56.835072,95.9363706 54.358272,96.7647529 C52.338432,97.4505765 50.337792,97.6316647 48.352512,97.3157235 L47.572992,97.2540765 C45.599232,97.2540765 42.619392,96.7801647 39.528192,92.7268706 C36.890112,89.1629 35.607552,84.9131059 35.607552,79.7309 L35.607552,78.7329882 C35.607552,75.3770765 36.202752,72.3294 37.366272,69.7171059 C38.437632,67.3514 39.758592,65.7716941 41.329152,65.0126647 C43.698432,63.8375176 45.967872,63.2634294 48.256512,63.2634294 C50.045952,63.2634294 51.881472,63.6294588 53.705472,64.3499588 C56.658432,65.5212529 58.616832,66.9699588 59.538432,68.6652529 L59.538432,88.3191059 Z M77.724672,0.915135294 L77.394432,0.915135294 C72.525312,0.915135294 68.282112,2.7029 64.791552,6.23604706 C61.308672,9.76919412 59.538432,14.0652235 59.538432,18.9969882 L59.538432,35.6339882 C55.018752,34.0157529 50.303232,33.1989294 45.434112,33.1989294 C33.153792,33.1989294 22.524672,37.8725471 13.853952,47.0926353 C5.240832,56.2433706 0.878592,67.4477235 0.878592,80.3936059 C0.878592,93.2894 5.240832,104.466782 13.853952,113.613665 C22.524672,122.833753 33.149952,127.511224 45.434112,127.511224 C51.244032,127.511224 56.842752,126.347635 62.138112,124.043576 C62.280192,124.2054 62.426112,124.363371 62.579712,124.521341 C64.511232,126.474782 67.022592,127.511224 69.837312,127.511224 L85.281792,127.511224 C87.996672,127.511224 90.477312,126.509459 92.447232,124.613812 L92.550912,124.517488 C94.532352,122.506253 95.584512,119.932488 95.584512,117.081312 L95.584512,18.9969882 C95.584512,14.0652235 93.814272,9.76919412 90.327552,6.23604706 C86.833152,2.7029 82.597632,0.915135294 77.724672,0.915135294 L77.724672,0.915135294 Z" id="Fill-6" fill="#000000" mask="url(#mask-4)"></path>
            </g>
            <path d="M562.600514,17.6392036 C557.026625,12.5695854 550.181024,10 542.253115,10 L541.820192,10 C535.388188,10 529.551453,11.7813216 524.480065,15.2937324 C519.420273,18.790687 515.949155,23.3850285 514.159481,28.9878839 L499.586971,75.5611369 L484.75548,28.9337874 C483.039249,23.3193398 479.541073,18.7095422 474.431031,15.2975964 C469.355778,11.7813216 463.546101,10 457.179808,10 L456.739154,10 C448.81511,10 441.973375,12.5695854 436.399486,17.6392036 C430.825598,22.7088218 428,28.9299234 428,36.1286266 L428,111.577837 C428,116.025345 429.84379,120.024625 433.3381,123.142904 C436.762833,126.319143 441.165509,128 446.062954,128 L446.325801,128 C451.285093,128 455.594999,126.365512 459.139559,123.142904 C462.572023,120.020761 464.38489,116.017617 464.38489,111.577837 L464.38489,78.4668937 L474.678416,111.060056 C476.224571,116.091034 479.332342,120.206235 483.870307,123.262689 C488.427598,126.404152 493.607217,128 499.281606,128 L499.62949,128 C505.300014,128 510.487363,126.404152 514.99827,123.293601 C519.574888,120.206235 522.686525,116.091034 524.221084,111.098697 L534.611245,78.3277883 L534.611245,111.577837 C534.611245,116.017617 536.427977,120.016897 539.860441,123.142904 C543.350885,126.319143 547.780619,128 552.678065,128 L552.937046,128 C557.853818,128 562.271956,126.303687 565.619381,123.181544 C569.136883,120.055537 571,116.040802 571,111.577837 L571,36.1286266 C571,28.9299234 568.170537,22.7088218 562.600514,17.6392036" id="Fill-9" fill="#000000"></path>
            <path d="M638.84199,92.5054976 C638.680209,97.7088146 636.103272,99.1927377 633.641893,99.9442853 C631.619633,100.54629 629.61278,100.707336 627.621336,100.423589 L626.835543,100.373741 C624.859506,100.373741 621.870413,99.9519542 618.765762,96.3859374 C616.119491,93.2493763 614.832948,89.5108103 614.832948,84.9478426 L614.832948,84.0697588 C614.832948,81.1134159 615.429996,78.436986 616.597129,76.13633 C617.675668,74.0542363 619.00073,72.6661739 620.576167,71.9951492 C622.952804,70.9636884 625.225439,70.4575441 627.525038,70.4575441 C629.320034,70.4575441 631.161254,70.779636 632.990918,71.4161508 C635.953047,72.4437771 637.913676,73.7206412 638.84199,75.2122332 L638.84199,92.5054976 Z M670.631918,50.0737319 C667.827718,47.5813545 664.230021,46.2661462 660.216316,46.2661462 L653.460041,46.2661462 C649.500264,46.2661462 645.925678,47.5813545 643.125329,50.0737319 C643.090662,50.1044073 643.044439,50.1427515 643.00592,50.1772614 C638.429834,46.1089347 632.232089,44 624.693873,44 C612.379273,44 601.717147,48.1143398 593.015651,56.2279867 C584.371934,64.2841172 580,74.1424282 580,85.5383443 C580,96.8805784 584.371934,106.715883 593.015651,114.772013 C601.717147,122.88566 612.375421,127 624.693873,127 C628.923286,127 634.069456,125.16331 640.891214,121.217685 C641.226331,121.022129 641.519077,120.941606 641.869602,120.941606 C641.969752,120.941606 642.077606,120.949275 642.154645,120.953109 C642.528281,121.002957 642.940437,121.106486 643.402668,121.532108 C647.347038,125.316687 650.551839,127 653.787455,127 L664.66914,127 C667.415562,127 669.91546,126.079738 671.903053,124.335073 C673.925313,122.613416 675,120.362607 675,117.824217 L675,59.3262035 C675,55.8100342 673.486194,52.6082879 670.631918,50.0737319 L670.631918,50.0737319 Z" id="Fill-11" fill="#000000"></path>
            <path d="M741.675062,44.0688069 C737.758451,44.0688069 733.139843,43.773569 729.127331,44.4062218 C725.168524,45.031206 721.976928,47.2128995 718.766151,49.1223606 C717.845498,49.6629912 716.944026,50.3033125 716.050225,51.0548273 C712.129779,47.9069004 707.733662,46.3156829 702.930923,46.3156829 L702.501285,46.3156829 C697.449203,46.3156829 693.04925,47.8340495 689.339786,50.9091254 C685.799109,53.9803671 684,57.7034328 684,61.9747976 L684,111.409902 C684,115.658261 685.810617,119.342984 689.339786,122.333707 C692.92266,125.431788 697.318777,127 702.416892,127 L702.673908,127 C707.768186,127 712.164303,125.431788 715.701145,122.368215 C719.276346,119.350653 721.086963,115.662095 721.086963,111.409902 L721.086963,80.8930327 L721.159848,80.8930327 C721.209717,80.291054 721.282602,79.9191308 721.328635,79.6929095 C721.685388,78.1783771 723.56889,76.2919216 726.626224,74.3939633 C729.691231,72.5036735 732.598959,71.5872855 735.518196,71.5872855 C736.147309,71.5872855 736.784094,71.6256281 737.301961,71.698479 C737.957926,71.7981698 738.617727,71.8518494 739.254512,71.8518494 C742.503649,71.8518494 748.177172,70.559704 749.819003,61.936455 L751.752374,54.6091856 C752.431355,52.0095578 751.702505,49.4291014 749.707757,47.3394301 C747.755206,45.2305875 744.905018,44.0726412 741.675062,44.0688069" id="Fill-13" fill="#000000"></path>
            <path d="M824.184866,50.2271089 C822.272265,47.9801349 819.779738,46.4578675 816.761055,45.698651 C812.236869,44.5713296 807.524497,44 802.758356,44 C789.178119,44 777.406788,48.0453202 767.782333,56.0094244 C757.973531,64.0885614 753,74.0235609 753,85.5383443 C753,97.0032801 757.973531,106.911439 767.774652,114.979072 C777.402948,122.95468 789.174279,127 802.758356,127 C807.516815,127 812.229188,126.42867 816.649678,125.32819 C819.737492,124.630324 822.291468,123.077382 824.250156,120.700037 C826.074424,118.453063 827,115.883997 827,113.065693 L827,112.847131 C827,109.001201 825.267905,105.642243 821.991904,103.123025 C818.708221,100.619144 814.867656,99.6068558 810.581586,100.212695 C808.346377,100.534787 806.291675,100.599972 804.48661,100.404417 L803.895163,100.373741 C799.616774,100.373741 796.05657,98.9319967 792.964916,95.9143029 C789.784928,92.9004435 788.244862,89.3114201 788.244862,84.9555114 L788.244862,84.0697588 C788.244862,81.2207798 788.932323,78.7360713 790.376375,76.4430842 C791.70137,74.2919708 793.364335,72.8885706 795.480486,72.1446919 C800.192859,70.4690474 805.151028,70.1162801 809.702097,70.9560196 C814.049616,71.8456066 818.178223,70.9981983 821.734586,68.4598078 C825.179572,65.9482583 827,62.5087776 827,58.5209739 L827,57.938141 C827,55.1926915 826.085946,52.6427977 824.292402,50.3574794 L824.184866,50.2271089 Z" id="Fill-15" fill="#000000"></path>
            <g id="Group-19" transform="translate(831.000000, 36.000000)">
                <mask id="mask-6" fill="white">
                    <use xlink:href="#path-5"></use>
                </mask>
                <g id="Clip-18"></g>
                <path d="M61.697363,58.750425 C58.6852148,62.028675 55.2185481,63.6213 51.1124741,63.6213 C47.0064,63.6213 43.5397333,62.028675 40.5044741,58.727175 C37.3498074,55.340425 35.8167704,51.35305 35.8167704,46.528675 C35.8167704,41.708175 37.3498074,37.71305 40.5044741,34.3263 C43.5204741,31.090675 46.9948444,29.517425 51.1124741,29.517425 C55.2301037,29.517425 58.7006222,31.090675 61.697363,34.30305 C64.8135111,37.693675 66.3272889,41.692675 66.3272889,46.528675 C66.3272889,51.36855 64.8135111,55.363675 61.697363,58.750425 M87.4546963,13.78105 C76.9930667,3.6518 62.0786963,-0.103075 47.6188444,0.144925 C35.0887704,0.35805 23.4523259,5.2173 14.6007704,13.78105 C5.3101037,22.821425 0.603140741,33.83805 0.603140741,46.528675 C0.603140741,59.3278 5.31780741,70.3793 14.6123259,79.3693 C24.049363,88.494925 37.7195852,93.6448 51.0932148,92.927925 C51.8789926,92.9783 52.6840296,93.00155 53.4890667,93.00155 C66.7355852,93.00155 78.1601778,88.409675 87.435437,79.380925 C96.7915852,70.38705 101.540919,59.33555 101.540919,46.528675 C101.540919,33.834175 96.795437,22.813675 87.4546963,13.78105" id="Fill-17" fill="#000000" mask="url(#mask-6)"></path>
            </g>
        </g>
    </g>
</svg>