<?xml version="1.0" encoding="UTF-8"?>
<svg width="327px" height="199px" viewBox="0 0 327 199" version="1.1" xmlns="http://www.w3.org/2000/svg" xmlns:xlink="http://www.w3.org/1999/xlink">
    <!-- Generator: Sketch 54.1 (76490) - https://sketchapp.com -->
    <title>logo/white</title>
    <desc>Created with Sketch.</desc>
    <defs>
        <polygon id="path-1" points="0.3699 0.7531 63.9129 0.7531 63.9129 63 0.3699 63"></polygon>
        <polygon id="path-3" points="0.9011 0.548421652 67.655 0.548421652 67.655 64.7033 0.9011 64.7033"></polygon>
    </defs>
    <g id="logo/white" stroke="none" stroke-width="1" fill="none" fill-rule="evenodd">
        <g id="Group-19">
            <path d="M102.8374,55.5796 C105.3174,52.8196 108.1714,51.4786 111.5594,51.4786 C114.9464,51.4786 117.7984,52.8196 120.2624,55.5586 C122.8234,58.4456 124.0684,61.8506 124.0684,65.9726 C124.0684,70.0916 122.8234,73.4976 120.2624,76.3846 C117.7834,79.1756 114.9374,80.5306 111.5594,80.5306 C108.1824,80.5306 105.3334,79.1746 102.8374,76.3646 C100.2434,73.4796 98.9824,70.0806 98.9824,65.9726 C98.9824,61.8616 100.2434,58.4636 102.8374,55.5796 M191.0214,55.5796 C193.5014,52.8196 196.3534,51.4786 199.7414,51.4786 C203.1294,51.4786 205.9824,52.8196 208.4434,55.5586 C211.0064,58.4456 212.2504,61.8506 212.2504,65.9726 C212.2504,70.0916 211.0064,73.4976 208.4434,76.3846 C205.9664,79.1756 203.1194,80.5306 199.7414,80.5306 C196.3634,80.5306 193.5174,79.1746 191.0214,76.3646 C188.4264,73.4796 187.1644,70.0806 187.1644,65.9726 C187.1644,61.8616 188.4264,58.4636 191.0214,55.5796 M109.4694,105.5576 C110.1274,105.5576 110.8234,105.5366 111.5424,105.4976 C112.1914,105.5366 112.8514,105.5576 113.5134,105.5576 C124.4034,105.5576 133.8004,101.6466 141.4244,93.9566 C145.3464,90.0536 148.2754,85.6926 150.2134,80.9126 L161.0004,80.9086 C162.9244,85.6856 165.8354,90.0456 169.7304,93.9476 C177.4174,101.6516 186.8124,105.5576 197.6514,105.5576 C198.3094,105.5576 199.0054,105.5366 199.7254,105.4976 C200.3734,105.5366 201.0334,105.5576 201.6954,105.5576 C212.5854,105.5576 221.9834,101.6466 229.6084,93.9566 C237.3034,86.2966 241.2044,76.8806 241.2044,65.9726 C241.2044,55.1576 237.3054,45.7676 229.6264,38.0736 C221.9824,30.3626 212.5854,26.4526 201.6954,26.4526 C201.0264,26.4526 200.3664,26.4726 199.7254,26.5136 C199.0144,26.4726 198.3164,26.4526 197.6514,26.4526 C186.8134,26.4526 177.4184,30.3596 169.7204,38.0736 C165.4864,42.3426 162.4154,47.1316 160.5134,52.3916 L150.7074,52.3956 C148.7944,47.1316 145.7024,42.3416 141.4444,38.0736 C133.7984,30.3626 124.4024,26.4526 113.5134,26.4526 C112.8444,26.4526 112.1834,26.4726 111.5424,26.5136 C110.8314,26.4726 110.1354,26.4526 109.4694,26.4526 C98.6314,26.4526 89.2354,30.3596 81.5384,38.0736 C73.9004,45.7736 70.0264,55.1616 70.0264,65.9726 C70.0264,76.8776 73.9034,86.2886 81.5474,93.9476 C89.2344,101.6516 98.6294,105.5576 109.4694,105.5576" id="Fill-1" fill="#FFFFFF"></path>
            <path d="M273.729,64.8687 C273.729,62.0707 274.237,59.5307 275.224,57.3537 C276.139,55.3827 277.265,54.0677 278.601,53.4307 C280.621,52.4517 282.551,51.9737 284.501,51.9737 C286.024,51.9737 287.586,52.2797 289.142,52.8817 C291.655,53.8547 293.323,55.0627 294.109,56.4777 L294.109,72.8597 C293.975,77.8257 291.805,79.2077 289.698,79.9027 C287.978,80.4727 286.274,80.6257 284.583,80.3617 L283.917,80.3087 C282.24,80.3087 279.701,79.9127 277.068,76.5317 C274.821,73.5627 273.729,70.0197 273.729,65.7007 L273.729,64.8687 Z M282.099,105.5297 C287.045,105.5297 291.811,104.5607 296.32,102.6427 C296.441,102.7757 296.567,102.9077 296.697,103.0367 C298.343,104.6687 300.481,105.5297 302.876,105.5297 L316.03,105.5297 C318.34,105.5297 320.452,104.6957 322.132,103.1157 L322.217,103.0357 C323.907,101.3577 324.8,99.2157 324.8,96.8377 L324.8,15.0727 C324.8,10.9607 323.294,7.3827 320.324,4.4347 C317.351,1.4917 313.742,0.0007 309.594,0.0007 L309.315,0.0007 C305.164,0.0007 301.553,1.4917 298.583,4.4377 C295.614,7.3827 294.109,10.9607 294.109,15.0727 L294.109,28.9427 C290.261,27.5927 286.244,26.9117 282.099,26.9117 C271.639,26.9117 262.592,30.8087 255.206,38.4947 C247.873,46.1217 244.155,55.4617 244.155,66.2557 C244.155,77.0047 247.873,86.3207 255.205,93.9457 C262.59,101.6337 271.638,105.5297 282.099,105.5297 L282.099,105.5297 Z" id="Fill-3" fill="#FFFFFF"></path>
            <path d="M70.4575,118.5259 L70.1885,118.5259 C66.2235,118.5259 62.6245,119.7199 59.4955,122.0729 C56.3755,124.4169 54.2345,127.5009 53.1315,131.2539 L44.1455,162.4779 L34.9995,131.2169 C33.9385,127.4519 31.7835,124.3659 28.6335,122.0739 C25.5015,119.7199 21.9215,118.5259 17.9935,118.5259 L17.7235,118.5259 C12.8375,118.5259 8.6165,120.2489 5.1795,123.6459 C1.7425,127.0439 0.0005,131.2139 0.0005,136.0429 L0.0005,186.6209 C0.0005,189.6039 1.1365,192.2859 3.2895,194.3779 C5.4045,196.5049 8.1175,197.6299 11.1385,197.6299 L11.3005,197.6299 C14.3585,197.6299 17.0165,196.5359 19.2015,194.3769 C21.3185,192.2819 22.4365,189.5999 22.4365,186.6209 L22.4365,164.4249 L28.7835,186.2759 C29.7375,189.6479 31.6545,192.4079 34.4525,194.4569 C37.2615,196.5629 40.4585,197.6299 43.9555,197.6299 L44.1725,197.6299 C47.6685,197.6299 50.8645,196.5629 53.6475,194.4769 C56.4725,192.4059 58.3885,189.6469 59.3355,186.3009 L65.7425,164.3329 L65.7425,186.6209 C65.7425,189.5989 66.8625,192.2819 68.9805,194.3769 C71.1315,196.5049 73.8645,197.6299 76.8825,197.6299 L77.0435,197.6299 C80.0765,197.6299 82.8005,196.4969 84.8645,194.4029 C87.0345,192.3059 88.1825,189.6159 88.1825,186.6209 L88.1825,136.0429 C88.1825,131.2139 86.4385,127.0439 83.0025,123.6459 C79.5635,120.2489 75.3445,118.5259 70.4575,118.5259" id="Fill-5" fill="#FFFFFF"></path>
            <g id="Group-9" transform="translate(93.000000, 135.927000)">
                <mask id="mask-2" fill="white">
                    <use xlink:href="#path-1"></use>
                </mask>
                <g id="Clip-8"></g>
                <path d="M39.7299,37.1321 C39.6229,41.0351 37.8989,42.1481 36.2519,42.7101 C34.8989,43.1591 33.5569,43.2811 32.2229,43.0711 L31.6989,43.0311 C30.3769,43.0311 28.3759,42.7171 26.3009,40.0401 C24.5319,37.6911 23.6709,34.8841 23.6709,31.4651 L23.6709,30.8061 C23.6709,28.5891 24.0719,26.5801 24.8509,24.8591 C25.5729,23.2941 26.4589,22.2521 27.5099,21.7511 C29.1009,20.9751 30.6229,20.5981 32.1609,20.5981 C33.3599,20.5981 34.5909,20.8391 35.8179,21.3151 C37.7959,22.0851 39.1099,23.0421 39.7299,24.1631 L39.7299,37.1321 Z M54.0269,2.4551 L49.5069,2.4551 C46.8579,2.4551 44.4669,3.4431 42.5959,5.3081 C42.5699,5.3341 42.5419,5.3611 42.5149,5.3891 C39.4529,2.3381 35.3079,0.7531 30.2659,0.7531 C22.0289,0.7531 14.8989,3.8391 9.0759,9.9261 C3.2979,15.9671 0.3699,23.3611 0.3699,31.9031 C0.3699,40.4111 3.2979,47.7891 9.0759,53.8291 C14.8979,59.9141 22.0279,63.0001 30.2659,63.0001 C33.0949,63.0001 36.5369,61.6221 41.1009,58.6631 C41.3259,58.5181 41.5209,58.4561 41.7539,58.4561 C41.8239,58.4561 41.8929,58.4611 41.9469,58.4671 C42.1949,58.5001 42.4719,58.5801 42.7809,58.9021 C45.4189,61.7361 47.5609,63.0001 49.7259,63.0001 L57.0039,63.0001 C58.8419,63.0001 60.5149,62.3091 61.8429,61.0021 C63.1969,59.7081 63.9129,58.0201 63.9129,56.1181 L63.9129,12.2481 C63.9129,9.6111 62.9029,7.2111 60.9929,5.3101 C59.1189,3.4431 56.7099,2.4551 54.0269,2.4551 L54.0269,2.4551 Z" id="Fill-7" fill="#FFFFFF" mask="url(#mask-2)"></path>
            </g>
            <path d="M205.8823,138.1812 C204.6653,136.6092 202.8923,135.7432 200.8793,135.7422 C198.4413,135.7412 195.5663,135.5212 193.0663,135.9932 C190.6013,136.4582 188.6143,138.0882 186.6143,139.5132 C186.0413,139.9142 185.4793,140.3942 184.9253,140.9552 C182.4813,138.6042 179.7443,137.4162 176.7543,137.4162 L176.4863,137.4162 C173.3403,137.4162 170.6013,138.5532 168.2913,140.8452 C166.0843,143.1362 164.9653,145.9142 164.9653,149.1032 L164.9653,185.9972 C164.9653,189.1652 166.0933,191.9152 168.2913,194.1492 C170.5213,196.4582 173.2603,197.6302 176.4333,197.6302 L176.5943,197.6302 C179.7663,197.6302 182.5033,196.4582 184.7063,194.1752 C186.9323,191.9202 188.0603,189.1682 188.0603,185.9972 L188.0603,163.2192 L188.1053,163.2222 C188.1363,162.7742 188.1803,162.4932 188.2123,162.3272 C188.4313,161.1972 189.6053,159.7892 191.5103,158.3702 C193.4173,156.9612 195.2283,156.2762 197.0453,156.2762 C197.4363,156.2762 197.8333,156.3092 198.1573,156.3592 C198.5673,156.4362 198.9763,156.4752 199.3723,156.4752 C201.3953,156.4752 204.9293,155.5102 205.9503,149.0762 L207.1553,143.6062 C207.5773,141.6662 207.1243,139.7422 205.8823,138.1812" id="Fill-10" fill="#FFFFFF"></path>
            <path d="M254.4087,140.4449 C253.1317,138.7719 251.4647,137.6359 249.4477,137.0719 C246.4227,136.2329 243.2727,135.8059 240.0867,135.8059 C231.0087,135.8059 223.1407,138.8179 216.7097,144.7529 C210.1517,150.7699 206.8267,158.1699 206.8267,166.7459 C206.8267,175.2859 210.1517,182.6669 216.7017,188.6759 C223.1397,194.6179 231.0067,197.6309 240.0867,197.6309 C243.2687,197.6309 246.4177,197.2049 249.3717,196.3839 C251.4367,195.8649 253.1417,194.7089 254.4507,192.9359 C255.6717,191.2609 256.2907,189.3489 256.2907,187.2509 L256.2907,187.0879 C256.2907,184.2239 255.1357,181.7209 252.9427,179.8449 C250.7487,177.9769 248.1827,177.2249 245.3157,177.6759 C243.8207,177.9169 242.4477,177.9659 241.2427,177.8209 L240.8467,177.7969 C237.9877,177.7969 235.6077,176.7219 233.5417,174.4759 C231.4167,172.2299 230.3837,169.5579 230.3837,166.3099 L230.3837,165.6549 C230.3837,163.5299 230.8457,161.6799 231.8117,159.9699 C232.6957,158.3699 233.8077,157.3249 235.2227,156.7699 C238.3717,155.5239 241.6857,155.2579 244.7267,155.8839 C247.6367,156.5459 250.3907,155.9159 252.7717,154.0239 C255.0737,152.1529 256.2907,149.5929 256.2907,146.6219 L256.2907,146.1859 C256.2907,144.1439 255.6817,142.2449 254.4807,140.5439 L254.4087,140.4449 Z" id="Fill-12" fill="#FFFFFF"></path>
            <g id="Group-16" transform="translate(259.000000, 132.927000)">
                <mask id="mask-4" fill="white">
                    <use xlink:href="#path-3"></use>
                </mask>
                <g id="Clip-15"></g>
                <path d="M41.3051,41.0443 C39.3121,43.3073 37.0231,44.4063 34.3051,44.4063 C31.5881,44.4063 29.2981,43.3063 27.2901,41.0283 C25.2031,38.6883 24.1901,35.9313 24.1901,32.6003 C24.1901,29.2683 25.2031,26.5103 27.2901,24.1713 C29.2851,21.9343 31.5791,20.8473 34.3051,20.8473 C37.0301,20.8473 39.3241,21.9343 41.3051,24.1543 C43.3661,26.4963 44.3671,29.2583 44.3671,32.6003 C44.3671,35.9403 43.3661,38.7033 41.3051,41.0443 M58.3431,9.9753 C51.4211,2.9813 41.5561,0.3853 31.9931,0.5563 C23.7071,0.7043 16.0131,4.0603 10.1591,9.9753 C4.0161,16.2203 0.9011,23.8323 0.9011,32.6003 C0.9011,41.4433 4.0181,49.0753 10.1661,55.2873 C16.4051,61.5903 25.4501,65.1473 34.2921,64.6533 C34.8131,64.6873 35.3451,64.7033 35.8771,64.7033 C44.6361,64.7033 52.1951,61.5313 58.3271,55.2953 C64.5171,49.0813 67.6551,41.4463 67.6551,32.6003 C67.6551,23.8303 64.5181,16.2153 58.3431,9.9753" id="Fill-14" fill="#FFFFFF" mask="url(#mask-4)"></path>
            </g>
            <path d="M54.4721,39.3296 L30.1031,39.3296 L30.1031,30.1836 L54.2061,30.1836 C57.1261,30.1836 59.7501,29.2376 61.9461,27.4186 C64.2131,25.6136 65.6681,23.2666 66.2811,20.3856 L66.3371,20.0986 C67.1671,16.3166 66.3331,12.7296 63.9511,9.7556 C61.5341,6.6726 58.1891,5.0426 54.2731,5.0426 L17.6831,5.0426 C12.8441,5.0426 8.6421,6.7986 5.1961,10.2606 C1.7471,13.7236 0.0001,17.9636 0.0001,22.8656 L0.0001,90.5176 C0.0001,94.6696 1.4791,98.2566 4.3951,101.1826 C7.2681,104.0666 10.8201,105.5306 14.9501,105.5306 L15.1511,105.5306 C19.2811,105.5306 22.8321,104.0666 25.7051,101.1836 C28.6241,98.2546 30.1031,94.6666 30.1031,90.5176 L30.1031,64.2686 L54.4721,64.2686 C57.8031,64.2686 60.8081,63.0196 63.1221,60.6966 C65.5451,58.3286 66.8261,55.2756 66.8261,51.8656 L66.8261,51.7316 C66.8261,48.3886 65.5591,45.3496 63.1611,42.9406 C60.8091,40.5786 57.8031,39.3296 54.4721,39.3296" id="Fill-17" fill="#FFFFFF"></path>
        </g>
    </g>
</svg>