<?xml version="1.0" encoding="UTF-8"?>
<svg width="35px" height="30px" viewBox="0 0 35 30" version="1.1" xmlns="http://www.w3.org/2000/svg" xmlns:xlink="http://www.w3.org/1999/xlink">
    <!-- Generator: Sketch 54.1 (76490) - https://sketchapp.com -->
    <title>Group 6</title>
    <desc>Created with Sketch.</desc>
    <defs>
        <polygon id="path-1" points="1.42857143e-05 0.0490654206 34.9571429 0.0490654206 34.9571429 29.999986 1.42857143e-05 29.999986"></polygon>
    </defs>
    <g id="ver2_真心換分潤" stroke="none" stroke-width="1" fill="none" fill-rule="evenodd">
        <g id="Artboard-Copy-3" transform="translate(-270.000000, -843.000000)">
            <g id="Group-66" transform="translate(0.000000, 835.000000)">
                <g id="Group-53" transform="translate(260.000000, 8.000000)">
                    <g id="Group-6" transform="translate(10.000000, 0.000000)">
                        <path d="M25.6161988,22.6495726 C25.6161988,23.005698 25.3255619,23.2905983 24.9783709,23.2905983 L20.2655315,23.2905983 C19.9111827,23.2905983 19.6277036,22.9985043 19.6277036,22.6495726 L19.6277036,19.017094 C19.6277036,18.6609687 19.9182697,18.3760684 20.2655315,18.3760684 L24.9783709,18.3760684 C25.3327197,18.3760684 25.6161988,18.6680912 25.6161988,19.017094 L25.6161988,22.6495726 Z M24.9783709,16.6666667 L20.2655315,16.6666667 C18.9757018,16.6666667 17.9268293,17.7207977 17.9268293,19.017094 L17.9268293,22.6495726 C17.9268293,23.9457977 18.9757018,25 20.2655315,25 L24.9783709,25 C26.2682006,25 27.3170732,23.9457977 27.3170732,22.6495726 L27.3170732,19.017094 C27.3170732,17.7207977 26.2682006,16.6666667 24.9783709,16.6666667 L24.9783709,16.6666667 Z" id="Fill-1" fill="#FFFFFF"></path>
                        <g id="Group-5" transform="translate(0.000000, -0.000000)">
                            <mask id="mask-2" fill="white">
                                <use xlink:href="#path-1"></use>
                            </mask>
                            <g id="Clip-4"></g>
                            <path d="M29.9428714,13.1004533 C28.3214429,13.1004533 26.9713714,11.9509206 26.7000143,10.4369019 L26.6809429,10.4368318 C26.6815857,10.4230234 26.6830143,10.4094252 26.6830143,10.3955467 C26.6830143,9.90377103 26.2768,9.50514953 25.7756571,9.50514953 C25.2745857,9.50514953 24.8683,9.90377103 24.8683,10.3955467 C24.8683,10.4183972 24.8700857,10.4408271 24.8718,10.4631869 C24.5866571,11.9606636 23.2451571,13.0934439 21.6357286,13.0934439 C20.0143,13.0934439 18.6643,11.9439112 18.3928714,10.4298925 L18.3805857,10.4298925 C18.3810857,10.4183972 18.3823714,10.4071121 18.3823714,10.3955467 C18.3823714,9.90377103 17.9761571,9.50514953 17.4750143,9.50514953 C16.9738714,9.50514953 16.5676571,9.90377103 16.5676571,10.3955467 C16.5676571,10.4097757 16.5691571,10.4237243 16.5698,10.4378131 C16.2950857,11.9479065 14.9471571,13.0934439 13.3285857,13.0934439 C11.7095143,13.0934439 10.3612286,11.9472056 10.0799429,10.4364813 C10.0805857,10.4228131 10.0820857,10.4093551 10.0820857,10.3955467 C10.0820857,9.90377103 9.6758,9.50514953 9.17472857,9.50514953 C8.67358571,9.50514953 8.2673,9.90377103 8.2673,10.3955467 C8.2673,10.4071121 8.26865714,10.4183972 8.26908571,10.4298925 L8.2643,10.4298925 C7.99287143,11.9439112 6.63572857,13.0934439 5.0143,13.0934439 C3.39287143,13.1004533 2.04287143,11.9439112 1.77144286,10.4298925 L2.49287143,8.75465888 L6.55001429,1.73830374 L28.3999429,1.73830374 L32.4643,8.75465888 L33.1928714,10.4369019 C32.9143,11.9439112 31.5643,13.1004533 29.9428714,13.1004533 L29.9428714,13.1004533 Z M30.2357286,28.317743 L16.1143,28.317743 L16.1143,19.2406402 C16.1143,17.656528 14.8000143,16.3597991 13.1785857,16.3597991 L10.6857286,16.3597991 C9.07144286,16.3597991 7.75001429,17.6495187 7.75001429,19.2406402 L7.75001429,28.3247523 L4.7143,28.3247523 L4.7143,14.7756869 C4.8143,14.7826963 4.9143,14.7826963 5.0143,14.7826963 C6.74287143,14.7826963 8.27144286,13.9205467 9.17144286,12.6097991 C10.0714429,13.9205467 11.6000143,14.7826963 13.3285857,14.7826963 C15.0571571,14.7826963 16.5785857,13.9205467 17.4857286,12.6097991 C18.3857286,13.9205467 19.9143,14.7826963 21.6357286,14.7826963 C23.3642286,14.7826963 24.8857286,13.9205467 25.7857286,12.6097991 C26.6856571,13.9205467 28.2143,14.7826963 29.9428714,14.7826963 C30.0428,14.7826963 30.1357286,14.7756869 30.2357286,14.7756869 L30.2357286,28.317743 Z M14.4071571,28.317743 L14.4000143,28.317743 L9.47144286,28.317743 L9.47144286,19.2406402 C9.47144286,18.5817617 10.0143,18.0420421 10.6928714,18.0420421 L13.1857286,18.0420421 C13.8571571,18.0420421 14.4071571,18.5747523 14.4071571,19.2406402 L14.4071571,28.317743 Z M34.9571571,9.86213551 C34.9571571,9.71493925 34.9214429,9.57475234 34.8428714,9.44858411 L29.6428714,0.476621495 C29.4928714,0.217275701 29.2071571,0.0490514019 28.8999429,0.0490514019 L6.05001429,0.0490514019 C5.74287143,0.0490514019 5.45715714,0.210266355 5.30715714,0.476621495 L0.1143,9.44858411 C0.0428714286,9.57475234 1.42857143e-05,9.71493925 1.42857143e-05,9.86213551 C1.42857143e-05,11.8738178 1.23572857,13.5981168 3.00001429,14.3621355 L3.00001429,29.1588645 C3.00001429,29.6214813 3.38572857,29.999986 3.85715714,29.999986 L8.59287143,29.999986 L8.6143,29.999986 L15.2571571,29.999986 L15.2785857,29.999986 L31.0928714,29.999986 C31.5643,29.999986 31.9500143,29.6214813 31.9500143,29.1588645 L31.9500143,14.4672757 C31.9500143,14.432229 31.9500143,14.4041916 31.9428714,14.3761542 C33.7143,13.6121355 34.9571571,11.8808271 34.9571571,9.86213551 L34.9571571,9.86213551 Z" id="Fill-3" fill="#FFFFFF" mask="url(#mask-2)"></path>
                        </g>
                    </g>
                </g>
            </g>
        </g>
    </g>
</svg>