<?xml version="1.0" encoding="UTF-8"?>
<svg width="32px" height="32px" viewBox="0 0 32 32" version="1.1" xmlns="http://www.w3.org/2000/svg" xmlns:xlink="http://www.w3.org/1999/xlink">
    <!-- Generator: Sketch 54.1 (76490) - https://sketchapp.com -->
    <title>gift</title>
    <desc>Created with Sketch.</desc>
    <g id="ver2_真心換分潤" stroke="none" stroke-width="1" fill="none" fill-rule="evenodd">
        <g id="Artboard-Copy-3" transform="translate(-156.000000, -842.000000)" fill="#FFFFFF" fill-rule="nonzero">
            <g id="Group-66" transform="translate(0.000000, 835.000000)">
                <g id="gift" transform="translate(156.000000, 7.000000)">
                    <path d="M29.125,5.49866717 L21.871375,5.49866717 C22.822375,4.13459857 22.690875,2.23956576 21.474875,1.0235671 C20.11025,-0.341189034 17.8898125,-0.341189034 16.5251875,1.0235671 C16.372,1.17676231 16.1890625,1.39858596 16.0000625,1.77379233 C15.811,1.39858596 15.628125,1.17676231 15.4749375,1.0235671 C14.1103125,-0.341189034 11.889875,-0.341189034 10.52525,1.0235671 C9.3093125,2.23956576 9.1778125,4.13453606 10.12875,5.49866717 L2.875,5.49866717 C1.28975,5.49866717 0,6.78848204 0,8.37381177 L0,10.6239249 C0,11.9042393 0.8413125,12.9913565 2,13.3624377 L2,29.1248554 C2,30.7101851 3.28975,32 4.875,32 L14,32 L18,32 L27.125,32 C28.71025,32 30,30.7101851 30,29.1248554 L30,13.3624377 C31.1586875,12.991294 32,11.9041768 32,10.6239249 L32,8.37381177 C32,6.78848204 30.71025,5.49866717 29.125,5.49866717 Z M17,11.4989689 L15,11.4989689 L15,7.49876776 L17,7.49876776 L17,11.4989689 Z M17.23525,4.65212459 C17.544125,2.87547274 17.8998125,2.47739022 17.939375,2.43782573 C18.2318125,2.14537352 18.6159375,1.99917867 19.0000625,1.99917867 C19.3841875,1.99917867 19.7683125,2.14537352 20.06075,2.43782573 C20.6455625,3.02273015 20.6455625,3.97434051 20.06075,4.55924492 C20.0214375,4.5985594 19.62575,4.95226469 17.862625,5.2605927 C17.606,5.30546995 17.3555625,5.34303434 17.1245,5.3740984 C17.154875,5.14833705 17.1915,4.90363724 17.23525,4.65212459 Z M11.9393125,2.43782573 C12.23175,2.14537352 12.615875,1.99917867 13,1.99917867 C13.384125,1.99917867 13.76825,2.14537352 14.0606875,2.43782573 C14.1,2.47714021 14.4536875,2.87284761 14.762,4.63599878 C14.806875,4.89263669 14.8444375,5.14314929 14.8755,5.37422341 C14.64975,5.34378438 14.405,5.30715754 14.1535625,5.26340534 C12.377,4.9545148 11.9789375,4.59880941 11.939375,4.55924492 C11.3545,3.97440301 11.3545,3.02273015 11.9393125,2.43782573 L11.9393125,2.43782573 Z M2,8.37381177 C2,7.8912875 2.3925,7.49876776 2.875,7.49876776 L13,7.49876776 L13,11.4989689 L3,11.4989689 L2.875,11.4989689 C2.3925,11.4989689 2,11.1064492 2,10.6239249 L2,8.37381177 Z M4,29.1248554 L4,13.4990695 L13,13.4990695 L13,29.9998994 L4.875,29.9998994 C4.3925,29.9998994 4,29.6073797 4,29.1248554 Z M15,29.9998994 L15,13.4990695 L17,13.4990695 L17,29.9998994 L15,29.9998994 Z M28,29.1248554 C28,29.6073797 27.6075,29.9998994 27.125,29.9998994 L19,29.9998994 L19,13.4990695 L28,13.4990695 L28,29.1248554 Z M30,10.6239249 C30,11.1064492 29.6075,11.4989689 29.125,11.4989689 L29,11.4989689 L19,11.4989689 L19,7.49876776 L29.125,7.49876776 C29.6075,7.49876776 30,7.8912875 30,8.37381177 L30,10.6239249 Z" id="Shape"></path>
                </g>
            </g>
        </g>
    </g>
</svg>