<?xml version="1.0" encoding="UTF-8"?>
<svg width="64px" height="64px" viewBox="0 0 64 64" version="1.1" xmlns="http://www.w3.org/2000/svg" xmlns:xlink="http://www.w3.org/1999/xlink">
    <!-- Generator: Sketch 54.1 (76490) - https://sketchapp.com -->
    <title>footer/ins</title>
    <desc>Created with Sketch.</desc>
    <g id="Symbols" stroke="none" stroke-width="1" fill="none" fill-rule="evenodd">
        <g id="pc/footer" transform="translate(-1068.000000, -38.000000)">
            <g id="footer/ins" transform="translate(1070.000000, 40.000000)">
                <circle id="Oval-Copy" stroke="#FFFFFF" stroke-width="4" cx="30" cy="30" r="30"></circle>
                <g id="facebook-app-symbol" transform="translate(12.000000, 12.000000)" fill="#FFFFFF" fill-rule="nonzero">
                    <g id="instagram" transform="translate(0.052113, 0.000000)">
                        <path d="M36.125427,10.640738 C36.0406392,8.71768309 35.7296583,7.3956001 35.2841768,6.24999746 C34.82461,5.03396834 34.1175843,3.94525907 33.19127,3.04021086 C32.2862218,2.12107734 31.1903319,1.40687087 29.988388,0.954484804 C28.8361569,0.509003343 27.5209785,0.198022437 25.5979236,0.113234562 C23.6605073,0.0212659921 23.0454501,0 18.1316209,0 C13.2177917,0 12.6027345,0.0212659921 10.6724989,0.106053867 C8.74944403,0.190841742 7.42736104,0.502098742 6.2820345,0.947304108 C5.06572928,1.40687087 3.97702001,2.11389665 3.0719718,3.04021086 C2.15283828,3.94525907 1.4389079,5.04114903 0.986245745,6.24309286 C0.540764285,7.3956001 0.229783379,8.7105024 0.144995504,10.6335573 C0.0530269335,12.5709736 0.0317609414,13.1860308 0.0317609414,18.09986 C0.0317609414,23.0136892 0.0530269335,23.6287464 0.137814808,25.558982 C0.222602683,27.4820369 0.533859683,28.8041199 0.979341143,29.9497225 C1.4389079,31.1657516 2.15283828,32.2544609 3.0719718,33.1595091 C3.97702001,34.0786426 5.07290997,34.7928491 6.2748538,35.2452352 C7.42736104,35.6907166 8.74226334,36.0016975 10.6655943,36.0864854 C12.5955538,36.1715494 13.2108871,36.1925393 18.1247163,36.1925393 C23.0385455,36.1925393 23.6536027,36.1715494 25.5838383,36.0864854 C27.5068932,36.0016975 28.8289762,35.6907166 29.9743027,35.2452352 C32.4066371,34.3048356 34.329692,32.3817807 35.2700915,29.9497225 C35.7152969,28.7972153 36.0265539,27.4820369 36.1113417,25.558982 C36.1961296,23.6287464 36.2173956,23.0136892 36.2173956,18.09986 C36.2173956,13.1860308 36.2102149,12.5709736 36.125427,10.640738 Z M32.8662038,25.4175768 C32.7883206,27.1851413 32.491425,28.1396261 32.2439659,28.7759493 C31.6358133,30.352672 30.3844329,31.6040524 28.8077102,32.212205 C28.171387,32.459664 27.2099976,32.7565596 25.4493377,32.8341668 C23.5403681,32.9192308 22.9678429,32.9402207 18.1388016,32.9402207 C13.3097603,32.9402207 12.7300544,32.9192308 10.8279894,32.8341668 C9.06042494,32.7565596 8.10594014,32.459664 7.46961693,32.212205 C6.68498397,31.922214 5.9707775,31.4626472 5.39107158,30.8616753 C4.79009966,30.2747887 4.33053291,29.5677629 4.0405419,28.78313 C3.79308287,28.1468068 3.49618727,27.1851413 3.41858009,25.4247575 C3.33351612,23.5157879 3.31252622,22.9429866 3.31252622,18.1139453 C3.31252622,13.284904 3.33351612,12.7051981 3.41858009,10.8034091 C3.49618727,9.03584469 3.79308287,8.08135989 4.0405419,7.44503669 C4.33053291,6.66012763 4.79009966,5.94619725 5.39825227,5.36621524 C5.98486279,4.76524332 6.69188857,4.30567657 7.47679763,4.01596165 C8.11312083,3.76850263 9.07478633,3.47160702 10.8351701,3.39372375 C12.7441397,3.30893587 13.316941,3.28766988 18.1457062,3.28766988 C22.9819282,3.28766988 23.5544534,3.30893587 25.4565184,3.39372375 C27.2240829,3.47160702 28.1785677,3.76850263 28.8148909,4.01596165 C29.5995239,4.30567657 30.3137303,4.76524332 30.8934363,5.36621524 C31.4944082,5.95310185 31.9539749,6.66012763 32.2439659,7.44503669 C32.491425,8.08135989 32.7883206,9.04274929 32.8662038,10.8034091 C32.9509917,12.7123788 32.9722577,13.284904 32.9722577,18.1139453 C32.9722577,22.9429866 32.9509917,23.5086072 32.8662038,25.4175768 Z" id="Shape"></path>
                        <path d="M18.1316209,8.80247097 C12.9987794,8.80247097 8.83423191,12.9667424 8.83423191,18.09986 C8.83423191,23.2329776 12.9987794,27.397249 18.1316209,27.397249 C23.2647385,27.397249 27.4290099,23.2329776 27.4290099,18.09986 C27.4290099,12.9667424 23.2647385,8.80247097 18.1316209,8.80247097 Z M18.1316209,24.1308451 C14.8016952,24.1308451 12.1006358,21.4300618 12.1006358,18.09986 C12.1006358,14.7696581 14.8016952,12.0688749 18.1316209,12.0688749 C21.4618228,12.0688749 24.162606,14.7696581 24.162606,18.09986 C24.162606,21.4300618 21.4618228,24.1308451 18.1316209,24.1308451 L18.1316209,24.1308451 Z" id="Shape"></path>
                        <path d="M29.9673981,8.43487278 C29.9673981,9.63350242 28.9955139,10.6053867 27.7966081,10.6053867 C26.5979784,10.6053867 25.6260942,9.63350242 25.6260942,8.43487278 C25.6260942,7.23596697 26.5979784,6.26435885 27.7966081,6.26435885 C28.9955139,6.26435885 29.9673981,7.23596697 29.9673981,8.43487278 L29.9673981,8.43487278 Z" id="Path"></path>
                    </g>
                </g>
            </g>
        </g>
    </g>
</svg>