<?xml version="1.0" encoding="UTF-8"?>
<svg width="64px" height="56px" viewBox="0 0 64 56" version="1.1" xmlns="http://www.w3.org/2000/svg" xmlns:xlink="http://www.w3.org/1999/xlink">
    <!-- Generator: Sketch 54.1 (76490) - https://sketchapp.com -->
    <title>Group 62</title>
    <desc>Created with Sketch.</desc>
    <defs>
        <polygon id="path-1" points="0.0770478483 0.15686747 37.755961 0.15686747 37.755961 55.6811373 0.0770478483 55.6811373"></polygon>
        <polygon id="path-3" points="0.198044611 0.315881734 18.7417407 0.315881734 18.7417407 32.9998969 0.198044611 32.9998969"></polygon>
        <polygon id="path-5" points="0 0.284931461 16.9223585 0.284931461 16.9223585 33.709164 0 33.709164"></polygon>
    </defs>
    <g id="Symbols" stroke="none" stroke-width="1" fill="none" fill-rule="evenodd">
        <g id="mb/header_white" transform="translate(-10.000000, -2.000000)">
            <g id="Group-62" transform="translate(10.000000, 2.000000)">
                <path d="M52.9852851,28.428205 C52.1428404,25.4113145 50.4190689,22.5547832 48.0006046,20.1677225 C47.9032143,20.0718124 47.7669419,20.0131668 47.6162276,20.0018653 C47.4658837,19.9908692 47.3192427,20.0287445 47.2029668,20.1087714 C47.0870613,20.1887982 47.0155923,20.3012024 47.0022613,20.4252135 C46.9889303,20.54953 47.0348482,20.6707921 47.1318682,20.7663967 C49.4366488,23.0416642 51.0793234,25.7634938 51.8821454,28.637741 C51.9417646,28.8509423 52.1680212,29 52.4331598,29 C52.4761152,29 52.5190707,28.9960292 52.5609152,28.9880876 C52.7079264,28.9599866 52.8334599,28.8863741 52.9134459,28.7806897 C52.9938021,28.6750054 53.0193532,28.5497725 52.9852851,28.428205" id="Fill-1" fill="#FFFFFF"></path>
                <path d="M14.4035584,20.0017784 C14.2568035,20.0126214 14.1233899,20.0750507 14.0281975,20.1775663 C11.5622102,22.8271985 9.8278339,26.0127372 9.01292947,29.3898354 C8.94766499,29.660253 9.13588629,29.9286991 9.43300189,29.9884999 C9.4723048,29.9960571 9.51232887,30 9.55163178,30 C9.80800216,30 10.0340841,29.8340694 10.0896129,29.6057095 C10.8659356,26.3882989 12.5184609,23.3525906 14.8690635,20.8271599 C14.9642559,20.7249729 15.0100492,20.594857 14.9981502,20.4611269 C14.9858905,20.3273967 14.9173809,20.2061523 14.8052414,20.1194084 C14.6931019,20.0323359 14.5499527,19.9906068 14.4035584,20.0017784" id="Fill-3" fill="#FFFFFF"></path>
                <path d="M45.1259098,49.1398639 C41.2429664,52.8013354 36.2975641,54.8180445 31.1999848,54.8180445 C26.306003,54.8180445 21.6930968,53.0387318 17.8598367,49.6730391 C17.6301816,49.4716002 17.2956009,49.5152904 17.1138919,49.7708588 C17.026338,49.8949699 16.9870778,50.0496255 17.0037547,50.2062143 C17.0200842,50.3631898 17.0909611,50.5031531 17.2021406,50.6009728 C21.2244058,54.1329202 26.0648825,56 31.1999848,56 C36.5487602,56 41.7380625,53.8839247 45.8127906,50.0418928 C46.0358444,49.8311745 46.0636393,49.4572946 45.8742867,49.2086857 C45.6849341,48.9600768 45.3493111,48.9291457 45.1259098,49.1398639" id="Fill-5" fill="#FFFFFF"></path>
                <path d="M18.5,48 C18.2241972,48 18,48.2244839 18,48.5002867 C18,48.7758028 18.2241972,49 18.5,49 C18.7755161,49 19,48.7758028 19,48.5002867 C19,48.2244839 18.7755161,48 18.5,48" id="Fill-7" fill="#FFFFFF"></path>
                <path d="M19.5,48 C19.7755161,48 20,47.7758028 20,47.5 C20,47.2241972 19.7755161,47 19.5,47 C19.2241972,47 19,47.2241972 19,47.5 C19,47.7758028 19.2241972,48 19.5,48" id="Fill-9" fill="#FFFFFF"></path>
                <path d="M20.4998567,46 C20.7755804,46 21,45.7755161 21,45.5 C21,45.2241972 20.7755804,45 20.4998567,45 C20.2244196,45 20,45.2241972 20,45.5 C20,45.7755161 20.2244196,46 20.4998567,46" id="Fill-11" fill="#FFFFFF"></path>
                <path d="M43,47.5001433 C43,47.7755804 43.2244196,48 43.4998567,48 C43.7755804,48 44,47.7755804 44,47.5001433 C44,47.2244196 43.7755804,47 43.4998567,47 C43.2244196,47 43,47.2244196 43,47.5001433" id="Fill-13" fill="#FFFFFF"></path>
                <path d="M42.5,46 C42.2244839,46 42,46.2244196 42,46.4998567 C42,46.7755804 42.2244839,47 42.5,47 C42.7755161,47 43,46.7755804 43,46.4998567 C43,46.2244196 42.7755161,46 42.5,46" id="Fill-15" fill="#FFFFFF"></path>
                <path d="M42,44.5 C42,44.2241972 41.7758028,44 41.5,44 C41.2241972,44 41,44.2241972 41,44.5 C41,44.7755161 41.2241972,45 41.5,45 C41.7758028,45 42,44.7755161 42,44.5" id="Fill-17" fill="#FFFFFF"></path>
                <path d="M27.9390007,31.8976547 C28.0085304,31.8142093 28.0195734,31.6936772 27.9672216,31.5913318 C27.9152788,31.4896997 27.8122112,31.4247977 27.6850128,31.4130298 L24.7991205,31.1502127 L26.7512695,26.3685096 C26.7905334,26.2722265 26.7725375,26.1759434 26.7025987,26.1039094 C26.6244801,26.0236735 26.4915556,25.9848037 26.3664021,26.0054867 C26.2441116,26.0247434 26.150042,26.0953509 26.1079152,26.1991227 L24.0183426,31.3174599 C23.9864408,31.3955562 23.9962567,31.4768619 24.0469725,31.5463997 C24.1050503,31.6273488 24.2134349,31.6844055 24.3283634,31.694747 L27.6616998,31.9985736 C27.6743788,31.9996434 27.6870577,32 27.6997367,32 C27.7983053,32 27.8841949,31.963983 27.9390007,31.8976547" id="Fill-19" fill="#FFFFFF"></path>
                <path d="M22,26 C22,26.5513587 22.4486413,27 23,27 C23.5513587,27 24,26.5513587 24,26 C24,25.4486413 23.5513587,25 23,25 C22.4486413,25 22,25.4486413 22,26" id="Fill-21" fill="#FFFFFF"></path>
                <path d="M33.5001774,26 C32.6730928,26 32,26.672738 32,27.4998226 C32,28.3269072 32.6730928,29 33.5001774,29 C34.327262,29 35,28.3269072 35,27.4998226 C35,26.672738 34.327262,26 33.5001774,26" id="Fill-23" fill="#FFFFFF"></path>
                <path d="M25.9245428,33.1373524 L25.8138483,33.1041554 C25.7781666,33.0933089 25.7376191,33.0982391 25.7072085,33.1169741 C25.7063976,33.1176315 25.6013797,33.1830394 25.4347297,33.2763854 C25.3909384,33.295449 25.3499855,33.3181282 25.3106545,33.3398213 C25.2563209,33.3700601 25.1995545,33.4016137 25.1257581,33.4279084 C25.0937257,33.4410557 25.0620986,33.4551891 25.0296607,33.4693224 C24.9408618,33.5084357 24.8488191,33.5488638 24.7360972,33.5791026 L24.5256559,33.6504269 L24.2945355,33.6987433 C24.2491223,33.7066317 24.2077639,33.718793 24.167622,33.7302969 C24.1307238,33.7408148 24.0954475,33.7510039 24.063415,33.7559342 C23.991646,33.7588923 23.9259592,33.7707249 23.8622997,33.7822288 L23.8099935,33.791432 C23.7670132,33.7993204 23.7321424,33.8104956 23.6980825,33.8210134 C23.6559132,33.8341608 23.6157712,33.8466507 23.5650869,33.8528957 C23.4791263,33.8591407 23.3931657,33.8693299 23.3059887,33.8791904 L22.8161756,33.9344091 L22.6012741,33.9278355 C22.2249938,33.9002261 21.8572285,33.785187 21.5385255,33.5955368 C21.1898175,33.3845222 20.9465328,33.1156594 20.8034003,32.9266665 C20.6229642,32.690672 20.5159189,32.471769 20.4384733,32.3133437 C20.3667043,32.1601774 20.3375102,32.0688034 20.3375102,32.0678174 C20.323724,32.0237738 20.2718233,31.9948497 20.2158678,32.000766 L20.0986857,32.0122699 C20.0451631,32.0175289 20.0042101,32.0530266 20.0013718,32.0964128 C20.0001554,32.1141617 19.9737996,32.5348762 20.220328,33.1449122 C20.3833288,33.5426188 20.6103945,33.8680151 20.9124729,34.1381927 C21.2701014,34.4731209 21.8053277,34.73541 22.3843453,34.8586662 L22.7504887,34.9276897 L22.7508942,34.9270323 C22.7553544,34.9280184 22.7598146,34.9286758 22.7642748,34.9296618 L22.7638694,34.9303192 L22.7642748,34.9296618 C22.7727898,34.9309765 22.7813048,34.9316339 22.7898197,34.9326199 L22.7898197,34.9332773 C22.7926581,34.9332773 22.7954964,34.9332773 22.7983347,34.9332773 C22.8121208,34.9342634 22.825907,34.934592 22.8388821,34.9349207 L22.8396931,34.9349207 L23.3295062,34.9779782 C23.4174942,34.9861953 23.5050767,34.9940837 23.5890099,34.9983566 C23.6052289,34.9996713 23.6222588,35 23.6392887,35 C23.7276822,35 23.8254015,34.9858666 23.920688,34.9723906 C23.9616409,34.9661456 24.0017829,34.9602293 24.0496289,34.9546417 L24.1412661,34.9378789 C24.2535826,34.9175005 24.3699537,34.8961361 24.4810537,34.8658973 C24.5937756,34.8346724 24.6882512,34.7896428 24.7794829,34.7462566 C24.8038114,34.734424 24.8277344,34.7229201 24.8536848,34.7114162 C24.984653,34.6492951 25.0860216,34.5967057 25.1736041,34.5457599 C25.1788753,34.5428017 25.1833355,34.5395149 25.1882012,34.5358994 L25.429053,34.3383608 C25.5835388,34.2243077 25.6808527,34.08396 25.7591093,33.9712217 L25.7907363,33.925206 C25.8673709,33.8213421 25.9042691,33.7138627 25.9338687,33.6277477 C25.9415728,33.6053973 25.9492768,33.5843616 25.9590082,33.5574095 C26.0161801,33.3477097 25.9971228,33.2165651 25.9963118,33.2109775 C25.9914461,33.1774518 25.9634684,33.149185 25.9245428,33.1373524" id="Fill-25" fill="#FFFFFF"></path>
                <path d="M32.9148967,33.02358 L32.8034923,33.0019507 C32.7505167,32.9920525 32.6975412,33.0206472 32.6807916,33.0690383 C32.680402,33.0697715 32.6449552,33.1702198 32.5565328,33.3344563 C32.4498026,33.5261877 32.3123,33.7523795 32.1042931,33.9785713 C31.9375759,34.1618709 31.6543905,34.4214233 31.249673,34.6160875 C31.0981473,34.689774 30.920913,34.7517293 30.6868079,34.8125848 C30.6334428,34.8294483 30.5734558,34.8382467 30.5099631,34.8474117 C30.4690628,34.8536439 30.4281626,34.8595095 30.3919367,34.8668415 L30.3377926,34.8760064 C30.3214325,34.8749066 30.3066305,34.8760064 30.2972818,34.8767396 C30.2887123,34.8774728 30.2801427,34.878206 30.2676779,34.8785726 L30.0807054,34.8884708 C29.9665743,34.8994688 29.8972386,34.8859046 29.8107638,34.8686745 C29.8068686,34.8679413 29.8033629,34.8675747 29.7994676,34.8668415 C29.7250681,34.8598761 29.6378143,34.8327477 29.5579615,34.8052528 C29.3935815,34.7557619 29.2467302,34.6839084 29.0815711,34.6003237 C28.8050077,34.4727472 28.5136422,34.3059445 28.2164338,34.1050481 C28.0290718,33.9767383 27.8639128,33.8502615 27.7182301,33.7384487 C27.6598012,33.6937236 27.605657,33.6519313 27.5565768,33.6156379 L27.2831295,33.4066763 C27.2527465,33.3835806 27.2114567,33.3780816 27.1756203,33.3916457 L27.0704483,33.4316051 C27.0338329,33.4455359 27.0085137,33.4770634 27.0042289,33.5137233 C27.0015022,33.5371857 26.9422942,34.0944167 27.3703833,34.793155 C27.5526815,35.0948662 27.8896215,35.5109565 28.4606667,35.7793072 C28.7368406,35.9043176 29.0398919,35.9769042 29.3316468,35.9886354 C29.4079939,35.9948676 29.4925211,36 29.5836702,36 C29.6526163,36 29.7254577,35.9967006 29.8010257,35.9886354 L29.8652975,35.9838696 C30.0082535,35.9732382 30.1430295,35.9633401 30.2357367,35.9351119 L30.5325556,35.8753562 C30.5368404,35.874623 30.5411251,35.8735232 30.5454099,35.8724234 L30.6459076,35.8401627 C30.6875869,35.8254987 30.7296557,35.8123011 30.771335,35.7991036 C30.8589784,35.7719752 30.9493484,35.7437471 31.0315384,35.7045209 C31.2827827,35.6011399 31.5176669,35.4687976 31.729569,35.3111599 C31.9558836,35.1425242 32.1300018,34.9804873 32.2601035,34.8184504 C32.424873,34.6296517 32.5421203,34.4338877 32.6169093,34.3019119 C32.815178,33.9433777 32.9051586,33.6482653 32.9452797,33.464599 C32.9920229,33.2582036 32.9998134,33.1328266 32.9998134,33.1276942 C33.0029296,33.0778367 32.9667037,33.0334782 32.9148967,33.02358" id="Fill-27" fill="#FFFFFF"></path>
                <path d="M26.0061377,9.61919515 C26.023028,9.61844437 26.0399183,9.61806898 26.0568086,9.61806898 C26.2908602,9.61806898 26.5023914,9.69765172 26.6849678,9.85569104 C27.1120516,10.2243243 27.3227785,10.9657202 27.3384624,11.4999006 C27.297443,12.9353931 26.474643,13.3577072 25.9948774,13.3809814 C25.7411205,13.3933693 25.5118947,13.3137865 25.3156452,13.1444855 C24.8881592,12.7751014 24.6770302,12.0318286 24.6621506,11.4972728 C24.6416409,10.7671387 25.0546495,9.66499276 26.0061377,9.61919515 M25.9948774,13.998123 C26.023028,13.9992492 26.0511785,14 26.0793291,14 C26.4649914,14 26.811243,13.8697396 27.1100409,13.6118464 C27.6887355,13.1118265 27.9718495,12.2157699 27.9987935,11.5355627 C28,11.5243009 28,11.5122885 28,11.4999006 C28,11.4882635 28,11.476251 27.9987935,11.4649893 C27.9553613,10.3166703 27.3175505,9.06549445 26.0061377,9.00205349 C25.5879011,8.98178241 25.2110861,9.11166746 24.8905721,9.38833011 C24.302628,9.89623319 24.0203183,10.8136871 24.0010151,11.4972728 C23.9684409,12.6523488 24.7216689,13.936559 25.9948774,13.998123" id="Fill-29" fill="#FFFFFF"></path>
                <path d="M35.6666672,12.474648 C35.7019168,11.7449014 36.2050247,10.6523493 37.1723858,10.6249039 C37.1828005,10.6245279 37.1936157,10.6241519 37.2036298,10.6241519 C37.456786,10.6241519 37.6738915,10.7132555 37.8493384,10.8892067 C38.2831488,11.3249493 38.3724744,12.1787642 38.3268102,12.6618782 C38.190218,13.4457637 37.7223597,14.3499578 36.8359124,14.3755234 C36.5831567,14.3819148 36.3652501,14.2995786 36.1857976,14.1285148 C35.7924441,13.7536785 35.6410311,13.0085173 35.6666672,12.474648 M36.6376334,14.9759383 C36.7329675,14.9917288 36.8266994,15 36.9192296,15 C37.2412828,14.999624 37.5465123,14.9037531 37.8289096,14.7135152 C38.4726154,14.2800284 38.8679717,13.421702 38.9737204,12.7630126 C38.9753227,12.7543655 38.9761238,12.7457183 38.976925,12.7370711 C38.9793283,12.7261681 38.9813312,12.7148892 38.9825328,12.7028584 C39.0426174,12.1272571 38.9460816,11.528722 38.7177603,11.0610224 C38.4349624,10.4820374 37.9691069,10.1237435 37.3702643,10.023737 C36.943664,9.95267977 36.5431004,10.0414073 36.178988,10.286536 C35.5352823,10.7200228 35.1403266,11.5787252 35.0341772,12.2370386 C34.9444509,12.7953456 35.0337766,13.422078 35.2741148,13.9142152 C35.4759989,14.3289038 35.8765625,14.8492383 36.6376334,14.9759383" id="Fill-31" fill="#FFFFFF"></path>
                <path d="M43.5121802,13.3528176 C43.5741057,13.0056061 43.8226563,12.565871 44.1433119,12.565871 C44.1662158,12.565871 44.1894026,12.5681924 44.2128721,12.5728352 C44.3033569,12.5907429 44.3734827,12.643803 44.4269253,12.7356631 C44.5547351,12.955199 44.5589766,13.3591185 44.5086444,13.6433213 C44.4690573,13.7985219 44.2603766,14.5164905 43.8073869,14.4272833 C43.7169021,14.4093755 43.6467764,14.3559839 43.5933338,14.2641237 C43.4649584,14.0439246 43.4612825,13.6373521 43.5121802,13.3528176 M43.6872118,14.9532408 C43.7652549,14.9844136 43.8427326,15 43.9199274,15 C44.033599,15 44.1461395,14.9665059 44.2567007,14.8995176 C44.5866875,14.6992159 44.8369347,14.2269817 44.9457992,13.8313528 C44.9506062,13.8167613 44.9548477,13.8015065 44.9579581,13.7845936 C44.9616341,13.7693389 44.9644617,13.7540841 44.9658755,13.739161 C45.0682365,13.1054252 44.9633306,12.2982495 44.3330473,12.046546 C44.140767,11.9699406 43.949335,11.9878483 43.7635584,12.1006009 C43.4214126,12.3081983 43.1652274,12.8079574 43.0631492,13.2115453 C42.8485305,14.0601742 43.2118836,14.7635512 43.6872118,14.9532408" id="Fill-33" fill="#FFFFFF"></path>
                <path d="M20.3819636,12.2691313 C20.3101207,12.3747711 20.2177925,12.4330552 20.0989199,12.4469638 C19.7506695,12.4880276 19.5481245,11.9290306 19.4811866,11.5925727 C19.4332914,11.3528133 19.4598357,10.9908561 19.6023674,10.762025 C19.6791152,10.639496 19.7795221,10.5696214 19.9009914,10.5553815 C19.9131095,10.5537257 19.924939,10.5530634 19.9367686,10.5530634 C20.2590517,10.5530634 20.4526524,11.0809314 20.5181477,11.4064611 C20.5498855,11.66609 20.5334395,12.0465922 20.3819636,12.2691313 M20.978346,11.2763155 C20.9763263,11.260751 20.9731526,11.2458488 20.9691132,11.2312778 C20.8816899,10.8362047 20.6546203,10.352712 20.3297404,10.1291794 C20.1433529,10.0006896 19.9454243,9.96790477 19.7417252,10.0314874 C19.0789819,10.2377997 18.9393355,11.0709966 19.0209882,11.722056 C19.0648441,12.0727538 19.2731596,12.5714798 19.626892,12.8383942 C19.7688466,12.9453587 19.9191685,13 20.0694903,13 C20.1326774,13 20.195576,12.9903964 20.2581861,12.970858 C20.9062146,12.7691819 21.0542283,11.9674451 20.9841165,11.3233401 C20.983251,11.3077756 20.9815198,11.2922111 20.978346,11.2763155" id="Fill-35" fill="#FFFFFF"></path>
                <g id="Group-39" transform="translate(13.000000, 0.000000)">
                    <mask id="mask-2" fill="white">
                        <use xlink:href="#path-1"></use>
                    </mask>
                    <g id="Clip-38"></g>
                    <path d="M31.4983369,48.7735711 C31.4449315,48.7816675 31.3956342,48.8029205 31.3555802,48.8356434 L30.3651838,49.2647518 L27.3878324,43.2784867 C27.3840667,43.2717398 27.3796162,43.2660048 27.3758505,43.2595952 C27.574409,42.9161735 27.725382,42.5346313 27.8205532,42.1281253 C27.9157243,42.2472096 28.0143189,42.3608964 28.117364,42.4674988 C28.7044811,43.0743904 29.5312378,43.3850892 30.3641568,43.3850892 C30.3881207,43.3850892 30.4120847,43.3840771 30.4360486,43.3834024 L32.8536703,48.1859084 L31.4983369,48.7735711 Z M23.4231658,40.5796916 C24.0397243,40.610053 24.6340306,40.511547 25.1626072,40.3023904 C26.0550937,41.2010892 26.3156162,42.7603181 26.1150036,43.8826795 C25.9181568,44.0358361 25.6672198,44.2011373 25.4008775,44.3235952 C25.1297423,44.4480771 24.7630937,44.5641253 24.4601207,44.474053 C24.6621027,43.079788 24.2947694,41.7013783 23.4231658,40.5796916 L23.4231658,40.5796916 Z M18.9347153,41.9533783 C19.3503189,42.0444627 19.8015261,42.0731373 20.2705351,42.0306313 C20.4252739,42.0164627 20.5755622,41.9931855 20.722427,41.9628241 C21.6635261,43.4579566 21.8774901,45.1487518 21.330427,46.7683663 C21.3139946,46.7680289 21.2982468,46.7687036 21.2814721,46.7680289 C20.580355,46.7396916 19.7775622,46.4121253 19.0678865,45.8683181 C19.379418,44.3300048 19.3366252,43.0669687 18.9347153,41.9533783 L18.9347153,41.9533783 Z M6.80381441,43.4039807 C6.92637297,43.4792096 7.05475135,43.5483663 7.18963423,43.6104386 C7.22318378,43.6374265 7.26255315,43.6573301 7.3074,43.6664386 C7.31219279,43.6674506 7.31698559,43.6671133 7.32143604,43.667788 C7.74149009,43.8425349 8.21597658,43.9579084 8.73770631,44.0051373 C8.7715982,44.4413301 8.8743009,44.8400771 9.03862523,45.1909205 L6.56930991,49.8669205 L4.07568829,48.7857157 L6.80381441,43.4039807 Z M35.5400306,39.8381976 C35.4705351,39.0838843 35.1206613,38.4348241 34.5787333,38.0016675 C34.9299766,37.7186313 35.4212378,37.4872096 36.0141748,37.641041 C36.820391,37.8501976 37.0792018,38.776559 37.1528054,39.1651855 C37.2928234,39.9029687 37.1041928,40.6198361 36.6485351,41.0830169 C36.2339586,41.5043663 35.6574541,41.575547 35.2332919,41.5583422 C35.4852559,41.0648 35.5975441,40.4643181 35.5400306,39.8381976 L35.5400306,39.8381976 Z M32.6099225,38.6817639 C32.5174901,38.5555952 32.412391,38.4398843 32.2980486,38.3349687 C32.3435802,38.300559 32.4935261,38.2175711 32.9731477,38.0856675 L32.9875261,38.0816193 C33.3230216,37.9888482 33.692409,38.0731855 34.1175982,38.3400289 C34.7047153,38.7084145 35.0306252,39.4607036 34.9892018,40.3526554 C34.9621568,40.9369446 34.6995802,41.4996434 34.2685712,41.8967036 C33.8132559,42.3156916 33.2100486,42.381812 32.7198144,42.3430169 C33.5790937,41.2982458 33.3849856,39.7376675 32.6099225,38.6817639 L32.6099225,38.6817639 Z M25.687418,40.0453301 C26.0133279,39.8520289 26.3008955,39.609812 26.5374541,39.3254265 C26.7466252,40.1569928 27.0208414,40.8664386 27.3652378,41.4601735 C27.3631838,41.470294 27.3597604,41.4790651 27.3587333,41.4895229 C27.3015622,42.1230651 27.0763009,42.7417639 26.736355,43.2319325 C26.7562108,42.1571373 26.4597423,40.9116434 25.687418,40.0453301 L25.687418,40.0453301 Z M13.8427153,45.8851855 C13.8454541,45.8467277 13.8399766,45.8065831 13.8235441,45.7661012 C13.5431658,45.0779084 13.4678505,44.2706313 13.5993099,43.3665349 C13.717418,42.5545349 13.931382,41.9651855 14.2528414,41.5691373 C14.7119225,41.6720289 15.1977063,41.6892337 15.6797243,41.6274988 C15.4096162,42.3936193 15.2648054,43.2879325 15.2398144,44.3448482 C15.2107153,45.5640289 15.426391,46.5754024 15.8793099,47.3617639 C14.933418,47.2706795 14.1884811,46.7295711 13.8427153,45.8851855 L13.8427153,45.8851855 Z M6.14891351,38.7600289 C6.60491351,39.2087036 7.13075135,39.5828241 7.69527387,39.8749687 C7.08076937,40.6387277 6.84729189,41.8552096 6.95923784,42.8301494 C6.38752613,42.4152096 6.11296757,41.8838843 5.98287748,41.5003181 C5.69017477,40.638053 5.8835982,39.6280289 6.14891351,38.7600289 L6.14891351,38.7600289 Z M34.2418685,37.5590651 C33.3798505,36.3004145 33.3028234,34.5087518 33.2408595,33.0544386 L33.2357243,32.9309687 C33.1929315,31.9388241 33.2079946,30.9240771 33.2227153,29.9430651 C33.2432559,28.5528482 33.2648234,27.1150651 33.1227514,25.7103422 C32.8389495,22.9015711 31.9046973,20.0182458 30.4788414,17.5306313 L32.2829856,17.7080771 C32.6886613,18.4573301 32.9765712,19.2743904 33.2144991,19.9882217 C33.857418,21.9171855 34.2336523,24.0414747 34.3647694,26.4825349 C34.4106432,27.3431133 34.4301568,28.2202217 34.4486432,29.0686554 C34.4794541,30.4747277 34.5116342,31.9283663 34.666373,33.3526554 C34.8026252,34.6011855 35.0460306,35.961041 35.7512559,37.0267277 C35.1918685,36.9929928 34.655418,37.2352096 34.2418685,37.5590651 L34.2418685,37.5590651 Z M32.6150577,26.3590651 C32.7026973,27.5930892 32.6848955,28.855788 32.6677784,30.0773301 C32.6520306,31.1983422 32.6359405,32.3574747 32.7006432,33.4956916 C32.7800667,34.8929928 32.9200847,36.3368482 33.5688234,37.5168964 C33.1491117,37.4389687 32.7561027,37.5556916 32.4188955,37.6862458 C32.286409,37.7375229 32.0748414,37.8198361 31.9187333,37.9460048 C31.4853279,37.4106313 31.2953279,36.7018602 31.1690036,36.0581976 C30.9430577,34.9081735 30.932445,33.7065349 30.9232018,32.6462458 C30.9160126,31.7964627 30.9365532,30.9267759 30.9567514,30.0854265 C31.0002288,28.2556434 31.045418,26.363788 30.8071477,24.5228723 C30.5507333,22.5443181 29.9365712,20.6521253 28.9810937,18.8982458 C28.6322468,18.2572819 28.2981207,17.7306795 27.9537243,17.2823422 L29.7869676,17.4628241 C31.3935802,20.1366554 32.3976703,23.2895229 32.6150577,26.3590651 L32.6150577,26.3590651 Z M27.1646252,17.2047518 C27.7000486,17.7968 28.119418,18.4988241 28.4922288,19.1728482 C29.4658505,20.9344867 30.0961027,22.9990651 30.3145171,25.1429205 C30.4860306,26.8249446 30.4425532,28.5562217 30.400445,30.2304867 C30.3754541,31.2199325 30.3497784,32.2431133 30.3686072,33.2443663 L30.372373,33.4646554 C30.3963369,34.8396916 30.425436,36.4900048 31.1032739,37.7354988 C31.0560306,37.7263904 31.0081027,37.718294 30.9601748,37.7122217 C30.3607333,37.6363181 29.7804631,37.7962217 29.3258324,38.1639325 C29.1625351,38.2961735 29.0321027,38.4587759 28.9256342,38.6288 C28.9092018,38.5373783 28.8934541,38.446294 28.8787333,38.3572337 C28.5593279,36.4343422 28.6723009,34.4284627 28.7811658,32.4887036 C28.791436,32.308559 28.8017063,32.1290892 28.8112919,31.9496193 C28.9968414,28.5380048 28.9817784,24.1133301 27.2015982,20.1521735 C26.6894541,19.0126072 25.9941568,17.9567036 25.1317964,17.005041 L27.1646252,17.2047518 Z M8.2259045,40.1198843 C8.83767027,40.3712096 9.48127387,40.5297639 10.1214541,40.5850892 C9.35768829,41.2240289 8.87361622,42.2222458 8.7490036,43.4495229 C8.29848108,43.4066795 7.91813874,43.3112096 7.59736396,43.1809928 C7.35019279,42.2522699 7.5555982,40.839788 8.2259045,40.1198843 L8.2259045,40.1198843 Z M22.5697063,40.0800771 C21.9781387,40.9318843 21.1777423,41.3927036 20.1226432,41.4885108 C19.0932198,41.582294 18.1202829,41.219306 17.5834901,40.5422458 C17.4985892,40.435306 17.3301568,40.4299084 17.2315622,40.4926554 C16.3787874,41.0341012 15.2771297,41.239547 14.3565712,41.0283663 C13.6314901,40.862053 13.0536162,40.4545349 12.6849135,39.8503422 C12.6250036,39.7518361 12.4825892,39.6766072 12.3569495,39.727547 C10.3881387,40.5209928 7.75518378,39.7923181 6.23278739,38.033041 C6.21909369,38.0171855 6.20334595,38.0040289 6.18725586,37.9922217 C5.49914775,36.8803181 5.15132793,35.6152578 5.12394054,34.1251855 C5.1123009,33.4842217 5.13729189,32.8304386 5.16125586,32.1985831 C5.18248108,31.6497157 5.20404865,31.0819566 5.20199459,30.5226313 C5.19651712,29.1803181 5.11572432,27.8214747 5.03732793,26.5071614 C4.99076937,25.7299084 4.94318378,24.9263422 4.91134595,24.1349205 C4.9068955,24.0246072 4.90244505,23.9136193 4.89730991,23.802294 C4.8552018,22.8162217 4.81138198,21.7967518 4.99521982,20.835306 C5.15988649,19.9750651 5.5528955,19.0935711 6.16294955,18.2154506 C6.88186847,17.1808 7.87329189,16.242294 9.03040901,15.501812 C9.06738198,15.4781976 9.1046973,15.4552578 9.14201261,15.4329928 L21.0729856,16.6059566 C22.8466613,17.7232578 24.1670757,19.2430169 24.9965712,21.1254265 C25.6795441,22.6758843 26.0390036,24.4695711 26.1622468,26.9416675 C26.2440667,28.5794988 26.1934,30.2487036 26.1447874,31.8629205 C26.1328054,32.2545831 26.1211658,32.6459084 26.1108955,33.0372337 C26.0677604,34.7249928 26.0225712,36.4704386 26.3046613,38.1926072 C26.3258865,38.3224867 26.3484811,38.4493301 26.3721027,38.5744867 C25.8445532,39.5244627 24.583364,40.3017157 22.8778144,39.9566072 C22.7542288,39.931306 22.6415982,39.9765108 22.5697063,40.0800771 L22.5697063,40.0800771 Z M11.4600126,46.1823904 C10.6079225,44.4433542 11.3063009,41.9608 12.4843009,40.526053 C12.8071297,40.9075952 13.2148595,41.2010892 13.6914,41.3943904 C13.336391,41.9253783 13.1754901,42.5744386 13.0744991,43.1061012 C12.9502288,43.7598843 12.879364,44.7088482 13.1881568,45.6574747 C12.6332198,46.0208 12.0406252,46.1985831 11.4600126,46.1823904 L11.4600126,46.1823904 Z M3.66385045,22.4633542 C3.6279045,21.267788 3.65015676,19.9750651 4.05275135,18.6243181 C4.43617477,17.3366554 5.04622883,16.0935229 5.77815676,15.102053 L8.24370631,15.3446072 C5.99930991,16.8916916 4.48821081,19.2851855 4.33073333,21.6189687 C4.2294,23.1191614 4.3410036,24.6551133 4.44884144,26.1408 C4.4888955,26.6927036 4.53031892,27.2631614 4.55976036,27.8204627 C4.62275135,29.011306 4.64842703,30.2652337 4.63576036,31.5461494 C4.63233694,31.9239807 4.61658919,32.3082217 4.60118378,32.6799807 C4.57003063,33.4363181 4.53819279,34.218294 4.60529189,34.9918361 C4.66896757,35.7215229 4.8374,36.4272578 5.10819279,37.1016193 C4.9983009,37.054053 4.8843009,37.0172819 4.76721982,36.9933301 C4.23967027,36.886053 3.71999459,37.0483181 3.32253514,37.4389687 C3.05345405,37.3431614 2.77170631,37.3043663 2.47763423,37.3246072 C2.82305766,36.0922699 3.10685946,34.7894265 3.34170631,33.3556916 C3.72855315,30.991547 3.72855315,28.5508241 3.72855315,26.1856675 C3.72855315,25.1007518 3.7086973,23.9527518 3.66385045,22.4633542 L3.66385045,22.4633542 Z M3.01271532,37.9024867 C3.60565225,38.0229205 4.10444505,38.6237398 4.31738198,39.1311133 C4.47862523,39.5167036 4.45123784,39.9741494 4.24514775,40.3249928 C4.06918378,40.6248964 3.78401261,40.8141494 3.44235495,40.8583422 C2.98943604,40.9163663 2.68885946,40.6707759 2.55876937,40.4214747 C2.42594054,40.1667759 2.39615676,39.7768 2.71042703,39.4455229 C2.78094955,39.3709687 2.80491351,39.2741494 2.77547207,39.1800289 C2.74466126,39.0798361 2.65976036,39.000559 2.55945405,38.9776193 C2.46804865,38.9567036 2.3763009,38.9857157 2.30783243,39.0579084 C2.00657117,39.3753542 1.85628288,39.7929928 1.89565225,40.2042217 C1.93091351,40.5763181 2.12262523,40.9052337 2.43518378,41.1302458 C2.77512973,41.3751614 3.19278739,41.4672578 3.61181441,41.3893301 C4.06678739,41.3046554 4.47349009,41.0310651 4.72648108,40.6383904 C5.25471532,39.8199807 4.89628288,38.7134747 4.29136396,38.0873542 C4.15203063,37.9436434 4.0079045,37.8211855 3.85898559,37.7176193 C4.10273333,37.5428723 4.38413874,37.4791133 4.67444505,37.5384867 C5.11058919,37.6272096 5.49298559,37.9851373 5.65696757,38.4543904 C5.41185045,39.2259084 5.18898559,40.210294 5.33995856,41.175788 C4.30916577,42.261041 2.87098559,42.493812 1.72516577,41.7465831 C1.13667928,41.3630169 0.747436036,40.7267759 0.684102703,40.0446554 C0.626589189,39.426294 0.839868468,38.8528 1.28491351,38.4304386 C1.75563423,37.983788 2.41772432,37.7817157 3.01271532,37.9024867 L3.01271532,37.9024867 Z M9.28853514,43.7474024 C9.33680541,42.8662458 9.63772432,41.2911614 11.1101387,40.6141012 C11.1296523,40.6053301 11.1474541,40.5938602 11.1635441,40.582053 C11.3860667,40.5604627 11.6058505,40.5243663 11.8208414,40.4751133 C10.7267153,42.0006072 10.1337784,44.2783904 10.8064811,46.0788241 C10.792445,46.0747759 10.778409,46.0714024 10.764373,46.0670169 C9.69968829,45.7343904 9.30394054,44.6511614 9.28853514,43.7474024 L9.28853514,43.7474024 Z M12.8242468,46.4779084 C13.0101387,46.4016675 13.1929495,46.3095711 13.3702829,46.2012819 C13.6979045,46.9063422 14.2774901,47.435306 15.0022288,47.7115952 C14.9768955,47.9619084 14.9505351,48.2118843 14.9245171,48.4621976 C14.1919045,47.8202217 13.4924991,47.1580048 12.8242468,46.4779084 L12.8242468,46.4779084 Z M16.5331838,47.3506313 C15.8635622,46.4347277 15.7937243,45.2050892 15.8026252,44.3478843 C15.8142649,43.2332819 15.9929676,42.2748723 16.3318865,41.4952578 C16.6742288,41.3991133 17.0073279,41.2634988 17.3192018,41.0887518 C17.5725351,41.3555952 17.8871477,41.5708241 18.2452378,41.730053 C18.2496883,41.7455711 18.2531117,41.7610892 18.2599586,41.7762699 L18.2599586,41.7762699 C18.7970937,42.9354024 18.8570036,44.3020048 18.4475622,46.0768 C18.4441387,46.0916434 18.4434541,46.105812 18.442427,46.1199807 C18.0346973,46.7967036 17.3346072,47.2436916 16.5331838,47.3506313 L16.5331838,47.3506313 Z M21.9442468,46.7008964 C22.4385892,45.0458602 22.2085351,43.3321253 21.2835261,41.7998843 C21.8634541,41.5789205 22.3701207,41.211547 22.798391,40.6994506 C23.7918685,41.8319325 24.1715261,43.303788 23.8374,44.7634988 C23.8367153,44.7668723 23.8367153,44.7699084 23.8360306,44.7729446 C23.4954,45.5866313 22.9147874,46.4549687 21.9442468,46.7008964 L21.9442468,46.7008964 Z M30.3186252,42.8321735 C28.6544991,42.9003181 27.7483189,41.2483181 27.2817063,39.8493301 C26.737382,38.2179084 26.6555622,36.5122699 26.6476883,35.059306 C26.6415261,33.9737157 26.6737063,32.8678843 26.7048595,31.7988241 C26.7733279,29.4397398 26.8441928,27.0007036 26.510409,24.6109205 C26.2577604,22.8017157 25.7421928,21.1949205 24.978427,19.8347277 C24.3197604,18.6617639 23.3738685,17.5991133 22.2123009,16.7179566 L24.2800486,16.9213783 C25.7261027,18.3642217 26.7551838,20.1417157 27.423436,22.3543904 C28.0071297,24.2874024 28.307364,26.5034506 28.3409135,29.1297157 C28.3549495,30.2311614 28.2936703,31.3518361 28.2341027,32.4354024 C28.1854901,33.3209446 28.1351658,34.2365108 28.1262649,35.1389205 C28.1129135,36.4977639 28.1841207,37.5978602 28.3508414,38.6004627 C28.4795622,39.3756916 28.700373,40.3553542 29.2710577,41.0560289 C29.6284631,41.4942458 30.1221207,41.7492819 30.6068775,41.7489446 C30.6339225,41.7489446 30.6613099,41.7482699 30.688355,41.7465831 C30.992355,41.7287036 31.4237063,41.5981494 31.7503009,41.0796434 C32.0796342,40.5577639 31.9156523,39.9343422 31.5839225,39.588559 C31.261436,39.2528964 30.817418,39.1881253 30.3963369,39.4154988 C30.2405712,39.4991614 30.2258505,39.6627759 30.2915802,39.7811855 C30.3583369,39.9016193 30.5161568,39.9829205 30.6756883,39.8968964 C30.8218685,39.818294 30.9502468,39.8054747 31.0577423,39.8587759 C31.2015261,39.9306313 31.3069676,40.1212337 31.3401748,40.3678361 C31.3778324,40.6532337 31.2494541,40.9096193 30.9779766,41.0901012 C30.3217063,41.5252819 29.7232919,40.7379084 29.6103189,40.575306 C29.3932739,40.2642699 29.2423009,39.9009446 29.130355,39.5231133 C29.4487333,38.5808964 30.1310216,38.1264867 31.0057063,38.2779566 C31.563382,38.3744386 32.020409,38.7293301 32.3641207,39.3325108 C32.7728775,40.050053 32.8434,40.9136675 32.5486432,41.5860048 C32.1689856,42.4523181 31.1477784,42.7977639 30.3186252,42.8321735 L30.3186252,42.8321735 Z M9.11428288,10.3909687 C9.19712973,10.3751133 9.26388649,10.3245108 9.29743604,10.2523181 L13.5421387,1.07337831 L18.3239766,10.439547 C18.3654,10.5201735 18.4396883,10.5711133 18.528355,10.5792096 C18.6317423,10.5879807 18.7412919,10.5390651 18.8066793,10.4537157 L25.3320667,1.9187759 L29.0030036,11.4289928 C29.0379225,11.5187277 29.1187153,11.5936193 29.209436,11.6192578 C29.285436,11.6405108 29.3610937,11.6266795 29.4230577,11.5804627 L34.4808234,7.80113735 L32.2439586,17.1484145 L27.3809856,16.6703904 C27.3508595,16.6616193 27.3200486,16.6589205 27.2902649,16.6616193 L21.2332018,16.0658602 C21.2078685,16.0594506 21.1825351,16.0574265 21.1572018,16.0584386 L5.78466126,14.5471133 L4.53168829,6.27631807 L8.85273333,10.3184386 C8.91983243,10.3811855 9.0197964,10.4088482 9.11428288,10.3909687 L9.11428288,10.3909687 Z M37.7200667,39.1695711 C37.6420126,38.6574747 37.4414,38.0323663 36.9573279,37.5755952 C36.9415802,37.537812 36.9172739,37.5027277 36.882355,37.473041 C35.5752919,36.354053 35.3157964,34.4746795 35.162427,32.6455711 C35.058355,31.4051373 35.0292559,30.138053 35.0015261,28.9128 C34.9775622,27.8481253 34.9522288,26.7473542 34.8782829,25.665812 C34.7338144,23.5671614 34.3329315,21.5363181 33.6862468,19.6292819 C33.452427,18.9390651 33.159382,18.1412337 32.7595261,17.4098602 L35.2059045,7.1868241 C35.2284991,7.09337831 35.2048775,7.00296867 35.1412018,6.93617349 C35.1117604,6.89602892 35.0727333,6.86431807 35.0285712,6.84576386 C34.9587333,6.81708916 34.8820486,6.82316145 34.8128955,6.86296867 C34.7766072,6.8781494 34.7451117,6.90041446 34.7201207,6.92942651 L29.4011477,10.9040771 L25.6826252,1.27072771 C25.6425712,1.16716145 25.5576703,1.09665542 25.4553099,1.0821494 C25.3505532,1.06764337 25.2464811,1.11318554 25.1769856,1.20393253 L18.6180486,9.78272771 L13.7756162,0.298486747 C13.7307694,0.210101205 13.6297784,0.154438554 13.5198865,0.1568 C13.4137604,0.158824096 13.3226973,0.214486747 13.2826432,0.301522892 L8.95817477,9.65251084 L4.33176036,5.32465542 C4.24138198,5.23998072 4.12053514,5.22041446 4.01680541,5.27371566 C3.90417477,5.33140241 3.84152613,5.45655904 3.86103964,5.58508916 L5.26498559,14.8571373 C4.59673333,15.7764145 4.03529189,16.9031614 3.59401261,18.2117398 C2.96821081,20.0685108 3.04352613,22.0339084 3.11644505,23.9345349 C3.13767027,24.4847518 3.15958018,25.0535229 3.16334595,25.6088 C3.18149009,28.0205108 3.19963423,30.5145349 2.84051712,32.9353542 C2.61183243,34.4733301 2.28078739,35.9903904 1.85730991,37.4484145 C1.11442703,37.6963663 0.487940541,38.2998843 0.2014,39.0545349 C-0.122455856,39.9070169 0.235976577,40.9386313 0.706012613,41.5360771 C1.28765225,42.276559 2.11372432,42.6992578 3.03085946,42.7262458 C3.06201261,42.7272578 3.09282342,42.7275952 3.12431892,42.7275952 C3.97093153,42.7275952 4.82473333,42.388559 5.49572432,41.7988723 C5.50599459,41.827547 5.51421081,41.8568964 5.52516577,41.8855711 C5.70147207,42.3487518 5.98048108,42.7454747 6.34576036,43.0679807 L3.44714775,48.7867277 C3.40983243,48.8599325 3.40401261,48.9520289 3.43174234,49.0272578 C3.45467928,49.0903422 3.50055315,49.1395952 3.56046306,49.1655711 L4.99248108,49.7866313 C4.95927387,49.8844627 4.93051712,49.9681253 4.90518378,50.0403181 C4.80145405,50.3402217 4.74907568,50.4903422 4.62857117,51.0048 C4.62309369,51.0284145 4.62754414,51.0537157 4.64055315,51.074294 C4.65356216,51.0952096 4.67478739,51.110053 4.69909369,51.1154506 L5.11743604,51.2105831 C5.12462523,51.2122699 5.13181441,51.2129446 5.13866126,51.2129446 C5.18145405,51.2129446 5.2197964,51.1842699 5.23006667,51.1414265 C5.34338198,50.6583422 5.38891351,50.5267759 5.48921982,50.2369928 C5.5101027,50.1766072 5.53338198,50.109812 5.55974234,50.032559 L6.56485946,50.4684145 C6.60833694,50.487306 6.65660721,50.4977639 6.70419279,50.4977639 C6.79902162,50.4977639 6.8917964,50.4566072 6.94280541,50.3601253 L7.55902162,49.1935711 C9.31592252,51.2375711 11.4144811,53.1483181 13.9663009,55.0256675 C14.0149135,55.0614265 14.0690036,55.0796434 14.122409,55.0796434 C14.1535622,55.0796434 14.184373,55.0735711 14.2138144,55.0610892 C14.3045351,55.0226313 14.3712919,54.9295229 14.3836162,54.8239325 C14.3962829,54.7183422 14.3541748,54.6215229 14.2679045,54.5581012 C11.7130036,52.6783904 9.60930991,50.7484145 7.8394,48.6625831 L8.54394054,47.3283663 C11.5969495,50.3520289 15.1699766,53.2289446 18.9042468,55.6656193 C18.9203369,55.6760771 18.9381387,55.6811373 18.9559405,55.6811373 C18.986409,55.6811373 19.0161928,55.6666313 19.0343369,55.6396434 L19.5084811,54.9335711 C19.5225171,54.9133301 19.5273099,54.8883663 19.5221748,54.8644145 C19.517382,54.8401253 19.5026613,54.8192096 19.4821207,54.8057157 C15.8111838,52.4101976 12.1166252,49.4199325 9.05129189,46.3672578 L9.38062523,45.7438361 C9.64251712,46.0727518 9.97664324,46.3341976 10.3761568,46.5109687 C10.9393099,46.7602699 11.5849676,46.8074988 12.2251477,46.6664867 C13.0614901,47.5304386 13.9505532,48.3640289 14.8875441,49.1675952 C14.9152739,49.2276434 14.9666252,49.2725108 15.0350937,49.2937639 C17.4684631,51.3613783 20.2287694,53.223547 23.2817784,54.8509205 C23.3255982,54.8741976 23.3721568,54.8860048 23.4176883,54.8860048 C23.4666432,54.8860048 23.5149135,54.8725108 23.5590757,54.8458602 C23.6491117,54.7912096 23.7055982,54.6903422 23.7028595,54.5888 C23.7001207,54.4956916 23.6480847,54.4157398 23.560445,54.3688482 C20.555364,52.7671133 17.8381928,50.9369928 15.4421387,48.9071614 C15.4791117,48.5607036 15.5147153,48.2139084 15.5499766,47.8674506 C15.6886252,47.8937639 15.8310396,47.9116434 15.9768775,47.9204145 C16.0480847,47.9248 16.1186072,47.9271614 16.1891297,47.9271614 C17.3229676,47.9271614 18.3465712,47.3641253 18.9086973,46.4391133 C19.7179946,47.0031614 20.6046613,47.3162217 21.4372378,47.3266795 C23.0452198,47.350294 23.9202468,45.9904386 24.342355,45.0111133 C24.851418,45.1281735 25.6196342,44.9787277 26.5251297,44.257812 C26.5538865,44.242294 26.5785351,44.2217157 26.598391,44.1964145 C26.7469676,44.0709205 26.8849315,43.9315952 27.0115982,43.7804627 L29.9851838,49.7586313 C30.0337964,49.8564627 30.1289676,49.8979566 30.2248234,49.8979566 C30.2727514,49.8979566 30.3210216,49.8874988 30.3638144,49.8689446 L31.400427,49.4195952 C31.5428414,49.7856193 31.677382,50.1337639 31.7814541,50.5051855 C31.8081568,50.6016675 31.8776523,50.6711614 31.9717964,50.6951133 C31.9957604,50.7011855 32.0200667,50.7042217 32.0447153,50.7042217 C32.1241387,50.7042217 32.2035622,50.6731855 32.2597063,50.6168482 C32.3274901,50.549041 32.3511117,50.4545831 32.3240667,50.3577639 C32.2131477,49.9627277 32.0645712,49.5808482 31.920445,49.2114506 C31.9187333,49.2067277 31.9166793,49.2016675 31.9146252,49.1962699 L33.3685532,48.5661012 C33.4284631,48.5401253 33.4739946,48.4912096 33.4972739,48.4284627 C33.5250036,48.3532337 33.5191838,48.2608 33.4822108,48.1875952 L31.0300126,43.3176193 C31.4408234,43.2336193 31.8369135,43.0700048 32.1891838,42.8261012 C32.4435441,42.877041 32.6893459,42.9040289 32.9245351,42.9040289 C33.6311297,42.9040289 34.2463189,42.6756434 34.7331297,42.227306 C34.7834541,42.1810892 34.8306973,42.1318361 34.8765712,42.080559 C35.0289135,42.1008 35.1778324,42.1115952 35.3226432,42.1115952 C35.9542649,42.1112578 36.515364,41.9203181 36.9689676,41.5461976 C37.6978144,40.945041 37.8347514,39.924559 37.7200667,39.1695711 L37.7200667,39.1695711 Z" id="Fill-37" fill="#FFFFFF" mask="url(#mask-2)"></path>
                </g>
                <path d="M37,21.1377091 C37,21.0952204 36.9739503,21.0572842 36.9346871,21.041351 L34.3270777,20.0072085 C34.2904572,19.9927927 34.2489287,20.0003799 34.2198588,20.026556 L30.0341683,23.819044 C29.9967927,23.8528073 29.9892421,23.9085736 30.0156693,23.9514416 C30.0353009,23.9825493 30.0689012,24 30.1036341,24 C30.1164701,24 30.1296837,23.9977238 30.1421423,23.9924127 L36.9354421,21.2344465 C36.9747054,21.2185133 37,21.1801977 37,21.1377091" id="Fill-40" fill="#FFFFFF"></path>
                <path d="M24.9063146,24 C24.9339906,24 24.9609832,23.9877758 24.9794339,23.9653647 C25.0077932,23.9300502 25.0067682,23.8797951 24.9767005,23.8454993 L21.6169722,20.031539 C21.593738,20.0050532 21.5571784,19.9941872 21.5226688,20.0030158 L19.0697562,20.6464858 C19.0328549,20.6559935 19.0051789,20.6872332 19.0007371,20.7249246 C18.9959536,20.762616 19.0147459,20.7996282 19.0485721,20.8179646 L24.861213,23.9884549 C24.8755635,23.9962648 24.8909391,24 24.9063146,24" id="Fill-42" fill="#FFFFFF"></path>
                <path d="M49.1965182,45.5870227 L52.6177845,46.9769133 C52.6558602,46.9924247 52.6946752,47 52.7320115,47 C52.7870919,47 52.8395846,46.9834064 52.8839446,46.9505801 C52.967859,46.8878131 53.012219,46.7745441 52.9970626,46.6616358 C52.9819063,46.5476453 52.9112999,46.4571022 52.8033572,46.4130932 L49.3820909,45.0235633 C49.2874562,44.9846045 49.1902338,44.9943442 49.1159308,45.0498966 C49.0323861,45.1123028 48.9880261,45.2259325 49.0028128,45.3388409 C49.0179691,45.4528314 49.0885755,45.5430137 49.1965182,45.5870227" id="Fill-44" fill="#FFFFFF"></path>
                <path d="M48.1916327,47.5749117 L51.6278198,48.9770432 C51.6652558,48.9925832 51.7026917,49 51.7390478,49 C51.792682,49 51.8437964,48.9837536 51.8869917,48.9512609 C51.9687029,48.8901605 52.0118982,48.7789082 51.9971398,48.6683624 C51.9823814,48.5567569 51.9136288,48.4681083 51.8085202,48.4253733 L48.3723331,47.0228887 C48.2283487,46.9639073 48.0854442,47.0218291 48.0256907,47.1631018 C47.9644974,47.3072 48.0098524,47.5007436 48.1916327,47.5749117" id="Fill-46" fill="#FFFFFF"></path>
                <path d="M47.1867073,48.5615528 L50.6357227,49.9775728 C50.6730246,49.9927543 50.7099746,50 50.745165,50 C50.8444021,50 50.9313225,49.9430694 50.9746067,49.8416293 C51.0347824,49.7008554 50.9907943,49.5114317 50.8127307,49.4386295 L47.3637152,48.0222645 C47.2739796,47.9856909 47.1814287,47.9943167 47.1110478,48.0471069 C47.0311655,48.1067978 46.988585,48.2151385 47.0026612,48.3234792 C47.0170893,48.43251 47.0839512,48.5194586 47.1867073,48.5615528" id="Fill-48" fill="#FFFFFF"></path>
                <g id="Group-52" transform="translate(45.000000, 23.000000)">
                    <mask id="mask-4" fill="white">
                        <use xlink:href="#path-3"></use>
                    </mask>
                    <g id="Clip-51"></g>
                    <path d="M4.33664444,28.7308656 L3.79021852,30.4327719 C3.75995926,30.5276469 3.7304037,30.6245844 3.70084815,30.7218656 C3.44962593,31.5503031 3.21247778,32.3330219 2.22236667,32.4282406 C1.75932963,32.4729281 1.43316296,32.2780219 1.2414037,32.1068344 C0.930014815,31.8287406 0.746348148,31.4083344 0.75057037,30.9817406 C0.752681481,30.7222094 0.89307037,30.4695531 1.02888519,30.2254906 C1.06512593,30.1601781 1.10066296,30.0958969 1.13303333,30.0329906 L2.11223704,28.1279281 C2.82544074,28.4424594 3.58931111,28.6614281 4.33664444,28.7308656 L4.33664444,28.7308656 Z M9.68866296,15.0272719 L7.32738519,21.0490844 C6.98468148,20.7878344 6.64444074,20.5912094 6.37210741,20.4537094 C6.16908889,20.3516156 5.96395926,20.2594906 5.75812593,20.1763031 C6.64127407,18.2537094 7.52582963,16.3311156 8.41214444,14.4092094 C8.79882963,14.6714906 9.22808889,14.8811781 9.68866296,15.0272719 L9.68866296,15.0272719 Z M9.24110741,7.11345938 C9.24110741,7.11380313 9.24075556,7.11414688 9.24075556,7.11449063 C9.23477407,7.13408438 9.2309037,7.15299063 9.22879259,7.17086563 C9.07257037,7.86042813 9.47051481,8.33892813 9.95079259,8.51217813 C10.4592185,8.69539688 11.161163,8.56958438 11.5007,7.86042813 L14.6620889,1.26592813 L15.1610148,1.47458438 L12.5773667,8.49224063 C12.377163,9.03674063 12.4788481,9.52211563 12.8722185,9.89645938 C13.1185148,10.1312406 13.445737,10.2302406 13.792663,10.1766156 C14.1519037,10.1205844 14.4826444,9.90745938 14.6810889,9.60977188 C14.6990333,9.58983438 14.7145148,9.56645938 14.7268296,9.54033438 L17.6127185,3.68867813 L18.0792741,3.86777188 L15.6381259,10.2051469 C15.5572,10.4148344 15.478737,10.6300219 15.4034407,10.8376469 C15.0449037,11.8238656 14.6744037,12.8441156 13.8961074,13.6178969 C13.213163,14.2971469 12.2659778,14.6738969 11.2297741,14.6783656 L11.2114778,14.6783656 C10.0647926,14.6783656 8.9072,14.2153344 8.11166296,13.4381156 C7.46003333,12.8018344 7.04555185,11.9235531 6.94421852,10.9658656 C6.86047778,10.1745531 7.08636667,9.23542813 7.6152,8.17461563 C7.89597778,7.61224063 8.14157037,7.02545938 8.37942222,6.45827188 L10.6872185,0.968584375 L11.1207,1.13942812 L9.24110741,7.11345938 Z M18.5359778,3.43808438 L17.5557185,3.06133438 C17.4346815,3.01492813 17.2728296,3.07852188 17.2158296,3.19470938 L14.2430333,9.22202188 C14.2409222,9.22545938 14.2388111,9.22924063 14.2370519,9.23302188 L14.2367,9.23302188 C14.1058111,9.47811563 13.863737,9.62317813 13.6086444,9.60908438 C13.3679778,9.59670938 13.1727,9.44889688 13.0731259,9.20311563 C13.0066259,9.03949063 13.0625704,8.84114688 13.1262556,8.66824063 L15.8010333,1.40308438 C15.8457185,1.28174063 15.7771074,1.12086562 15.6599407,1.07205312 L14.6543481,0.650615625 C14.5195889,0.594240625 14.3373296,0.614865625 14.2652,0.765084375 L11.2635519,7.02649063 L10.9950889,7.58680313 C10.9412556,7.69852188 10.895163,7.79545938 10.8138852,7.88827188 C10.6344407,8.09349063 10.3997556,8.14264688 10.1692926,8.02302188 C9.91912593,7.89342813 9.7154037,7.56549063 9.80688519,7.24133438 C9.80829259,7.23652188 9.80934815,7.23170938 9.8104037,7.22689688 L11.7529778,1.05349062 C11.7980148,0.911178125 11.7192,0.768521875 11.5622741,0.706646875 L10.6172,0.334021875 C10.458163,0.271115625 10.3114407,0.381459375 10.2544407,0.516896875 L7.52653333,7.00517813 C7.42660741,7.24270938 7.31858889,7.48264688 7.21373704,7.71433438 C6.75281111,8.73458438 6.2764037,9.78920938 6.36647778,10.9827094 C6.45655185,12.1772406 7.04555185,13.2689906 7.94488519,14.0506781 C7.03394074,16.0268969 6.1244037,18.0034594 5.21627407,19.9807094 C4.90981111,19.8830844 4.60581111,19.8078031 4.31131111,19.7589906 C4.12482963,19.7280531 3.98655185,19.8624594 3.96121852,20.0099281 C3.93518148,20.1601469 4.02384815,20.2828656 4.1769037,20.3083031 C6.25986667,20.6517094 8.45471852,22.0610844 8.35268148,24.3449594 C8.2509963,26.6095844 6.76618148,27.9783969 5.35173704,28.1602406 C4.33136667,28.2915531 3.13858889,28.0134594 1.80612593,27.3338656 C1.65342222,27.2558344 1.45357037,27.1506469 1.26216296,27.0279281 C1.17736667,26.9732719 1.0799037,26.9660531 0.994755556,27.0076469 C0.900811111,27.0540531 0.836422222,27.1530531 0.830088889,27.2596156 C0.824107407,27.3620531 0.872311111,27.4534906 0.961681481,27.5108969 C1.1639963,27.6404906 1.37581111,27.7632094 1.59431111,27.8776781 L0.431792593,30.1388656 C0.133774074,30.7191156 0.120051852,31.3708656 0.394496296,31.9270531 C0.656977778,32.4588344 1.16188519,32.8369594 1.77938519,32.9638031 C1.89831111,32.9882094 2.0197,32.9998969 2.14108889,32.9998969 C2.74205185,32.9998969 3.34864444,32.7108031 3.70155185,32.2305844 C3.91512593,31.9401156 4.01188519,31.6355531 4.11427407,31.3124281 L4.93584815,28.7528656 C5.73982963,28.7367094 6.50158889,28.5242719 7.1314037,28.0443969 C8.4599963,27.0317094 9.18621852,25.0520531 8.85829259,23.3370844 C8.70629259,22.5447406 8.27773704,21.9204906 7.78760741,21.4443969 C7.79147778,21.4364906 7.79605185,21.4285844 7.79957037,21.4199906 L10.2505704,15.1688969 C10.5415519,15.2242406 10.8328852,15.2531156 11.1221074,15.2531156 C12.6227556,15.2531156 14.0554963,14.5229906 14.9481444,13.2480219 C15.4227926,12.5701469 15.7035704,11.7633656 15.9748481,10.9827094 C16.0670333,10.7183656 16.1620333,10.4447406 16.2623111,10.1845219 L18.7256259,3.79077188 C18.7843852,3.63814688 18.6753111,3.49170938 18.5359778,3.43808438 L18.5359778,3.43808438 Z" id="Fill-50" fill="#FFFFFF" mask="url(#mask-4)"></path>
                </g>
                <path d="M10.0252124,46.832989 C10.0699704,46.9272084 10.170676,47 10.2868494,47 C10.3246963,47 10.3641887,46.9924372 10.4040102,46.975421 L13.8526829,45.4805148 C13.9846533,45.4231638 14.0350061,45.2942817 13.9747802,45.1672903 C13.9158707,45.0421896 13.7582303,44.9549027 13.5963115,45.0248583 L10.1476388,46.5197645 C10.0153393,46.5771155 9.96498647,46.7056825 10.0252124,46.832989" id="Fill-53" fill="#FFFFFF"></path>
                <path d="M11.0012539,48.7049067 C10.9915516,48.7948131 11.0387693,48.8903581 11.1215618,48.9483117 C11.1700731,48.9824573 11.2253759,49 11.281649,49 C11.3198112,49 11.3586202,48.9918552 11.3961356,48.9755655 L14.8546653,47.4775442 C14.9840287,47.421157 15.034157,47.2939724 14.9759435,47.1677276 C14.9183768,47.0427359 14.7634641,46.9553356 14.603377,47.0242534 L11.1448472,48.5222747 C11.0620547,48.5582999 11.0096625,48.6247115 11.0012539,48.7049067" id="Fill-55" fill="#FFFFFF"></path>
                <path d="M11.0013553,49.6976933 C10.9912124,49.7894079 11.0386549,49.8868746 11.1217612,49.9463134 C11.1718213,49.9817849 11.228098,50 11.2856835,50 C11.3239648,50 11.3629004,49.9920109 11.4008545,49.9757132 L14.8527107,48.4868685 C14.9364714,48.4507579 14.9894762,48.3833301 14.9986375,48.302161 C15.0087804,48.210766 14.961665,48.1132992 14.8782315,48.0535409 C14.7951252,47.9944217 14.6936963,47.9835566 14.5991383,48.0244607 L11.1472821,49.5129858 C11.0635214,49.5490964 11.0105166,49.6165242 11.0013553,49.6976933" id="Fill-57" fill="#FFFFFF"></path>
                <g id="Group-61" transform="translate(0.000000, 21.000000)">
                    <mask id="mask-6" fill="white">
                        <use xlink:href="#path-5"></use>
                    </mask>
                    <g id="Clip-60"></g>
                    <path d="M2.55544694,1.735564 C4.33836531,2.693344 5.91242653,4.208044 7.10763061,6.116124 C8.07697755,7.663804 8.67024286,9.542304 9.03071224,12.207564 C9.22638571,13.651204 9.31450816,15.147204 9.2933449,16.653744 C9.28467143,17.276624 9.60212041,17.848504 9.90916122,18.401344 C10.006651,18.576784 10.0989367,18.742704 10.1808143,18.909984 L11.6632837,21.937684 C11.2979571,22.079464 10.9524061,22.249464 10.6377327,22.444964 C10.3365898,22.631624 10.0666714,22.839704 9.82901837,23.065804 L0.760732653,0.960364 C1.43136531,1.156544 2.05724286,1.467984 2.55544694,1.735564 M13.8382429,30.190504 C14.3857122,30.089864 14.942549,29.926324 15.4737122,29.715524 L16.2532837,31.293804 C16.5821816,31.959524 16.1509367,32.717044 15.5628755,33.037324 C15.1684061,33.252204 14.7957939,33.204604 14.5525898,33.126064 C14.1497939,32.996864 13.8011204,32.688484 13.6196714,32.300884 C13.6168959,32.295784 13.6141204,32.290344 13.6113449,32.285244 L12.7970796,30.299984 C13.1658755,30.291144 13.5207939,30.248984 13.8382429,30.190504 M16.5533857,30.620944 L15.9941204,29.489084 C16.1703653,29.405784 16.3431408,29.318404 16.5082837,29.225244 C16.6661408,29.135824 16.6775898,28.967864 16.6071612,28.847844 C16.5377735,28.730204 16.3785286,28.652684 16.2213653,28.741764 C15.2461204,29.292904 14.1331408,29.656364 13.1676102,29.738984 C11.9463857,29.844044 10.9791204,29.531584 10.2907939,28.811464 C9.10842653,27.573184 8.84614082,25.390384 9.71799796,24.044324 C10.261651,23.204864 11.2587531,22.589804 12.681549,22.217164 C12.9240592,22.153244 13.3001408,22.074024 13.5100388,22.051244 C13.6966918,22.031184 13.7910592,21.866284 13.7744061,21.718044 C13.7577531,21.569464 13.6397939,21.476984 13.4892224,21.493304 L13.4892224,21.493304 C13.0531204,21.540904 12.6201408,21.628964 12.2041612,21.752724 L9.85677347,16.959404 C9.85746735,16.931184 9.85850816,16.902964 9.85920204,16.874404 C9.96640612,12.940944 9.41477347,9.611664 8.21922245,6.979384 C7.22801837,4.797944 5.49714082,2.867084 3.34577347,1.542444 C2.25846735,0.872644 1.25338571,0.451384 0.358630612,0.289544 C0.250385714,0.269824 0.12687551,0.314704 0.0571408163,0.398004 C-0.00218571429,0.469064 -0.0160632653,0.559164 0.018977551,0.644844 L9.40748776,23.530584 C9.12403878,23.894384 8.9131,24.292864 8.78403878,24.717864 C8.31740612,26.257044 8.8728551,28.266784 10.0763857,29.393204 C10.6876918,29.965764 11.4391612,30.210904 12.1767531,30.281284 L13.0954469,32.520184 C13.1013449,32.534464 13.1082837,32.548404 13.1159163,32.561664 C13.1166102,32.563364 13.117651,32.565064 13.1183449,32.566764 C13.4541816,33.283824 14.1293245,33.709164 14.9095898,33.709164 C14.9737735,33.709164 15.038998,33.706104 15.1045694,33.700324 C15.9646306,33.623484 16.6581612,33.041744 16.8718755,32.217924 C17.0214061,31.640264 16.8160184,31.152704 16.5533857,30.620944" id="Fill-59" fill="#FFFFFF" mask="url(#mask-6)"></path>
                </g>
            </g>
        </g>
    </g>
</svg>