<?xml version="1.0" encoding="UTF-8"?>
<svg width="117px" height="66px" viewBox="0 0 117 66" version="1.1" xmlns="http://www.w3.org/2000/svg" xmlns:xlink="http://www.w3.org/1999/xlink">
    <!-- Generator: Sketch 54.1 (76490) - https://sketchapp.com -->
    <title>fixBtn_2</title>
    <desc>Created with Sketch.</desc>
    <g id="Page-1" stroke="none" stroke-width="1" fill="none" fill-rule="evenodd">
        <g id="2-copy-2" transform="translate(-518.000000, -1101.000000)">
            <g id="fixBtn_2" transform="translate(518.000000, 1101.000000)">
                <rect id="Rectangle" x="0" y="0" width="117" height="64"></rect>
                <g id="Group-8-Copy" transform="translate(16.000000, 1.000000)" fill-rule="nonzero">
                    <path d="M24.3515625,11.9375 C24.2734371,11.9375 24.234375,11.9687497 24.234375,12.03125 L24.234375,12.6171875 C24.234375,12.6953129 24.2734371,12.734375 24.3515625,12.734375 L28.078125,12.734375 C28.1406253,12.734375 28.171875,12.6953129 28.171875,12.6171875 L28.171875,12.03125 C28.171875,11.9687497 28.1406253,11.9375 28.078125,11.9375 L24.3515625,11.9375 Z M24.3515625,8.75 C24.2734371,8.75 24.234375,8.78124969 24.234375,8.84375 L24.234375,9.40625 C24.234375,9.48437539 24.2734371,9.5234375 24.3515625,9.5234375 L28.078125,9.5234375 C28.1406253,9.5234375 28.171875,9.48437539 28.171875,9.40625 L28.171875,8.84375 C28.171875,8.78124969 28.1406253,8.75 28.078125,8.75 L24.3515625,8.75 Z M35.6015625,9.5234375 C35.6796879,9.5234375 35.71875,9.48437539 35.71875,9.40625 L35.71875,8.84375 C35.71875,8.78124969 35.6796879,8.75 35.6015625,8.75 L31.6640625,8.75 C31.6015622,8.75 31.5703125,8.78124969 31.5703125,8.84375 L31.5703125,9.40625 C31.5703125,9.48437539 31.6015622,9.5234375 31.6640625,9.5234375 L35.6015625,9.5234375 Z M35.6015625,12.734375 C35.6796879,12.734375 35.71875,12.6953129 35.71875,12.6171875 L35.71875,12.03125 C35.71875,11.9687497 35.6796879,11.9375 35.6015625,11.9375 L31.6640625,11.9375 C31.6015622,11.9375 31.5703125,11.9687497 31.5703125,12.03125 L31.5703125,12.6171875 C31.5703125,12.6953129 31.6015622,12.734375 31.6640625,12.734375 L35.6015625,12.734375 Z M37.5234375,23.1171875 C37.4609372,23.0703123 37.3984378,23.046875 37.3359375,23.046875 L35.4140625,23.09375 C35.3984374,23.09375 35.390625,23.1015624 35.390625,23.1171875 L35.390625,23.140625 C37.2656344,24.0937548 38.8046815,24.9609336 40.0078125,25.7421875 C40.1796884,25.851563 40.265625,26.0078115 40.265625,26.2109375 C40.265625,26.4140635 40.1875008,26.5781244 40.03125,26.703125 L38.6484375,27.6875 C38.4453115,27.8281257 38.2226575,27.8945313 37.9804688,27.8867188 C37.73828,27.8789062 37.515626,27.8046882 37.3125,27.6640625 C36.2656198,26.8984337 34.9531329,26.0781294 33.375,25.203125 C33.2031241,25.1093745 33.1132813,24.9687509 33.1054688,24.78125 C33.0976562,24.5937491 33.1718742,24.445313 33.328125,24.3359375 L34.9921875,23.1875 C35.0078126,23.1718749 35.015625,23.1562501 35.015625,23.140625 C35.015625,23.1249999 35.0078126,23.1171875 34.9921875,23.1171875 L31.7578125,23.2109375 C31.6953122,23.2109375 31.6640625,23.2499996 31.6640625,23.328125 L31.6640625,27.453125 C31.6640625,27.6718761 31.5820321,27.8632804 31.4179688,28.0273438 C31.2539054,28.1914071 31.0546887,28.2734375 30.8203125,28.2734375 L29.0390625,28.2734375 C28.8046863,28.2734375 28.6054696,28.1914071 28.4414062,28.0273438 C28.2773429,27.8632804 28.1953125,27.6718761 28.1953125,27.453125 L28.1953125,23.3984375 C28.1953125,23.3203121 28.1640628,23.28125 28.1015625,23.28125 L24.4453125,23.3515625 C24.4296874,23.3515625 24.421875,23.3593749 24.421875,23.375 C24.421875,23.3906251 24.4296874,23.3984375 24.4453125,23.3984375 L26.53125,24.21875 C26.7187509,24.2812503 26.8281248,24.4062491 26.859375,24.59375 C26.8906252,24.7812509 26.8359382,24.9374994 26.6953125,25.0625 C25.4609313,26.1093802 23.9687587,27.0546833 22.21875,27.8984375 C21.9843738,27.992188 21.746095,28.0156252 21.5039062,27.96875 C21.2617175,27.9218748 21.0468759,27.8125009 20.859375,27.640625 C20.3906227,27.1874977 19.9609395,26.7890642 19.5703125,26.4453125 C19.460937,26.351562 19.40625,26.2421881 19.40625,26.1171875 C19.40625,25.8828113 19.5078115,25.7343753 19.7109375,25.671875 C21.5390716,25.0312468 22.9765573,24.2890667 24.0234375,23.4453125 C24.0390626,23.4453125 24.0429688,23.4335939 24.0351562,23.4101562 C24.0273437,23.3867186 24.0156251,23.375 24,23.375 C22.6406182,23.4062502 21.4296928,23.4296874 20.3671875,23.4453125 C20.1328113,23.4453125 19.9335946,23.3671883 19.7695312,23.2109375 C19.6054679,23.0546867 19.5156251,22.8593762 19.5,22.625 L19.4765625,21.5703125 C19.4609374,21.3515614 19.5312492,21.1601571 19.6875,20.9960938 C19.8437508,20.8320304 20.0390613,20.75 20.2734375,20.75 C21.6640695,20.75 22.85937,20.7421876 23.859375,20.7265625 C23.9218753,20.7265625 23.9843747,20.7109377 24.046875,20.6796875 C24.3593766,20.5234367 24.6171865,20.398438 24.8203125,20.3046875 C24.8359376,20.3046875 24.8476562,20.2929689 24.8554688,20.2695312 C24.8632813,20.2460936 24.8515627,20.2265626 24.8203125,20.2109375 C23.914058,19.5234341 22.8515686,18.8125037 21.6328125,18.078125 C21.4609366,17.9843745 21.3671876,17.8398447 21.3515625,17.6445312 C21.3359374,17.4492178 21.4062492,17.2890631 21.5625,17.1640625 L22.6875,16.34375 C22.9375013,16.1562491 23.1953112,16.0625 23.4609375,16.0625 C23.6796886,16.0625 23.890624,16.117187 24.09375,16.2265625 C24.2343757,16.3046879 24.3828117,16.3906245 24.5390625,16.484375 C24.6015628,16.5312502 24.6562498,16.5312502 24.703125,16.484375 C25.0156266,16.2499988 25.468747,15.882815 26.0625,15.3828125 C26.0781251,15.3671874 26.0820313,15.3515626 26.0742188,15.3359375 C26.0664062,15.3203124 26.0546876,15.3125 26.0390625,15.3125 L21.796875,15.3125 C21.5781239,15.3125 21.3867196,15.2343758 21.2226562,15.078125 C21.0585929,14.9218742 20.9765625,14.7265637 20.9765625,14.4921875 L20.9765625,6.9921875 C20.9765625,6.75781133 21.0585929,6.55859457 21.2226562,6.39453125 C21.3867196,6.23046793 21.5781239,6.1484375 21.796875,6.1484375 L38.3203125,6.1484375 C38.5390636,6.1484375 38.7304679,6.23046793 38.8945312,6.39453125 C39.0585946,6.55859457 39.140625,6.75781133 39.140625,6.9921875 L39.140625,14.4921875 C39.140625,14.7265637 39.0585946,14.9218742 38.8945312,15.078125 C38.7304679,15.2343758 38.5390636,15.3125 38.3203125,15.3125 L30.375,15.3125 L30.375,15.3359375 C30.4375003,15.3671877 30.4726562,15.4179684 30.4804688,15.4882812 C30.4882813,15.5585941 30.4609378,15.6093748 30.3984375,15.640625 C29.304682,16.4531291 28.1953181,17.2031216 27.0703125,17.890625 C27.0390623,17.890625 27.0234375,17.9062498 27.0234375,17.9375 C27.0234375,17.9687502 27.0390623,17.9921874 27.0703125,18.0078125 C27.4140642,18.2578138 27.6796866,18.4453119 27.8671875,18.5703125 C27.9296878,18.6171877 27.9921872,18.6171877 28.0546875,18.5703125 C29.6640705,17.6328078 31.0624941,16.7187545 32.25,15.828125 C32.5000012,15.6406241 32.7499988,15.546875 33,15.546875 C33.203126,15.546875 33.4140614,15.6093744 33.6328125,15.734375 L35.15625,16.578125 C35.3125008,16.6718755 35.3945312,16.8124991 35.4023438,17 C35.4101563,17.1875009 35.3359383,17.3281245 35.1796875,17.421875 C33.3515534,18.5781308 31.4843845,19.6484326 29.578125,20.6328125 C29.5624999,20.6328125 29.5546875,20.6406249 29.5546875,20.65625 C29.5546875,20.6718751 29.5624999,20.6796875 29.578125,20.6796875 L34.40625,20.609375 C34.4218751,20.609375 34.4335937,20.6015626 34.4414062,20.5859375 C34.4492188,20.5703124 34.4453126,20.5546876 34.4296875,20.5390625 C34.2890618,20.429687 34.1171885,20.3046882 33.9140625,20.1640625 C33.7421866,20.054687 33.6601562,19.9023447 33.6679688,19.7070312 C33.6757813,19.5117178 33.7656241,19.3593755 33.9375,19.25 L35.015625,18.59375 C35.2500012,18.4374992 35.4843738,18.359375 35.71875,18.359375 C35.9687512,18.359375 36.2109363,18.4374992 36.4453125,18.59375 C38.1015708,19.7031305 39.4453073,20.7421827 40.4765625,21.7109375 C40.6171882,21.8359381 40.6875,21.9843741 40.6875,22.15625 C40.6875,22.4218763 40.5781261,22.6171869 40.359375,22.7421875 L39.046875,23.5625 C38.843749,23.6875006 38.6250012,23.7343752 38.390625,23.703125 C38.1562488,23.6718748 37.9531259,23.5703134 37.78125,23.3984375 C37.7031246,23.304687 37.617188,23.210938 37.5234375,23.1171875 Z M52.0156251,17.84375 C52.187501,18.0156259 52.2773438,18.2265613 52.2851563,18.4765625 C52.2929689,18.7265638 52.2265633,18.9453116 52.0859376,19.1328125 L51.1015626,20.515625 C50.9921871,20.6718758 50.843751,20.7421876 50.6562501,20.7265625 C50.4687492,20.7109374 50.335938,20.6171884 50.2578126,20.4453125 C50.1484371,20.2421865 50.0156259,20.0078138 49.8593751,19.7421875 C49.8593751,19.7265624 49.8515627,19.71875 49.8359376,19.71875 C49.8203125,19.71875 49.8125001,19.7265624 49.8125001,19.7421875 L49.8125001,27.453125 C49.8125001,27.6718761 49.7343759,27.8632804 49.5781251,28.0273438 C49.4218743,28.1914071 49.2265638,28.2734375 48.9921876,28.2734375 L47.2578126,28.2734375 C47.0390615,28.2734375 46.8476572,28.1914071 46.6835938,28.0273438 C46.5195305,27.8632804 46.4375001,27.6718761 46.4375001,27.453125 L46.4375001,21.2421875 C46.4375001,21.2265624 46.4296877,21.2148438 46.4140626,21.2070312 C46.3984375,21.1992187 46.3906251,21.2031249 46.3906251,21.21875 C45.9062477,22.3125055 45.4140651,23.2343712 44.9140626,23.984375 C44.8203121,24.1250007 44.687501,24.1835939 44.5156251,24.1601562 C44.3437492,24.1367186 44.2265629,24.0390634 44.1640626,23.8671875 C43.9296864,23.3046847 43.6328144,22.6875034 43.2734376,22.015625 C43.1640621,21.812499 43.1093751,21.609376 43.1093751,21.40625 C43.1093751,21.1406237 43.1953117,20.8828138 43.3671876,20.6328125 C44.4296929,19.1796802 45.3593711,17.4062605 46.1562501,15.3125 C46.1875003,15.2499997 46.164063,15.21875 46.0859376,15.21875 L44.2812501,15.21875 C44.062499,15.21875 43.8710947,15.1367196 43.7070313,14.9726562 C43.542968,14.8085929 43.4609376,14.6171886 43.4609376,14.3984375 L43.4609376,12.8046875 C43.4609376,12.5859364 43.542968,12.3945321 43.7070313,12.2304688 C43.8710947,12.0664054 44.062499,11.984375 44.2812501,11.984375 L46.3203126,11.984375 C46.398438,11.984375 46.4375001,11.9453129 46.4375001,11.8671875 L46.4375001,9.921875 C46.4375001,9.85937469 46.4062504,9.828125 46.3437501,9.828125 C45.8281225,9.90625039 45.3281275,9.96874977 44.8437501,10.015625 C44.6093739,10.0468752 44.3984385,9.9921882 44.2109376,9.8515625 C44.0234367,9.7109368 43.8906255,9.53125109 43.8125001,9.3125 C43.7031246,8.9531232 43.5703134,8.58593938 43.4140626,8.2109375 C43.3359372,8.02343656 43.3476558,7.83593844 43.4492188,7.6484375 C43.5507819,7.46093656 43.7031241,7.35156266 43.9062501,7.3203125 C46.0625109,6.97656078 47.9218673,6.52344031 49.4843751,5.9609375 C49.7187513,5.88281211 49.9570301,5.87499969 50.1992188,5.9375 C50.4414076,6.00000031 50.6406243,6.12499906 50.7968751,6.3125 L52.0156251,7.71875 C52.1406257,7.87500078 52.1796878,8.05078027 52.1328126,8.24609375 C52.0859374,8.44140723 51.9609386,8.57031219 51.7578126,8.6328125 C51.1953098,8.82031344 50.5859409,8.9843743 49.9296876,9.125 C49.8515622,9.14062508 49.8125001,9.18749961 49.8125001,9.265625 L49.8125001,11.8671875 C49.8125001,11.9453129 49.8515622,11.984375 49.9296876,11.984375 L51.7812501,11.984375 C51.8125003,11.984375 51.8281251,11.9687502 51.8281251,11.9375 C51.8281251,11.8437495 51.863281,11.7617191 51.9335938,11.6914062 C52.0039067,11.6210934 52.0937496,11.5859375 52.2031251,11.5859375 L56.9375001,11.5859375 C57.0156255,11.5859375 57.0546876,11.5468754 57.0546876,11.46875 L57.0546876,11.140625 C57.0546876,11.0624996 57.0156255,11.0234375 56.9375001,11.0234375 L53.7968751,11.0234375 C53.5624989,11.0234375 53.3632822,10.9414071 53.1992188,10.7773438 C53.0351555,10.6132804 52.9531251,10.4218761 52.9531251,10.203125 L52.9531251,9.921875 C52.9531251,9.68749883 53.0351555,9.48828207 53.1992188,9.32421875 C53.3632822,9.16015543 53.5624989,9.078125 53.7968751,9.078125 L56.9375001,9.078125 C57.0156255,9.078125 57.0546876,9.04687531 57.0546876,8.984375 L57.0546876,8.609375 C57.0546876,8.54687469 57.0156255,8.515625 56.9375001,8.515625 L53.4453126,8.515625 C53.2109364,8.515625 53.0117197,8.43359457 52.8476563,8.26953125 C52.683593,8.10546793 52.6015626,7.90625117 52.6015626,7.671875 L52.6015626,7.296875 C52.6015626,7.06249883 52.683593,6.86328207 52.8476563,6.69921875 C53.0117197,6.53515543 53.2109364,6.453125 53.4453126,6.453125 L56.9375001,6.453125 C57.0156255,6.453125 57.0546876,6.42187531 57.0546876,6.359375 L57.0546876,6.3125 C57.0546876,6.07812383 57.1328118,5.87890707 57.2890626,5.71484375 C57.4453134,5.55078043 57.6406239,5.46875 57.8750001,5.46875 L59.7031251,5.46875 C59.9218762,5.46875 60.1132805,5.55078043 60.2773438,5.71484375 C60.4414072,5.87890707 60.5234376,6.07812383 60.5234376,6.3125 L60.5234376,6.359375 C60.5234376,6.42187531 60.5624997,6.453125 60.6406251,6.453125 L64.4140626,6.453125 C64.6484388,6.453125 64.8476555,6.53515543 65.0117188,6.69921875 C65.1757822,6.86328207 65.2578126,7.06249883 65.2578126,7.296875 L65.2578126,7.671875 C65.2578126,7.90625117 65.1757822,8.10546793 65.0117188,8.26953125 C64.8476555,8.43359457 64.6484388,8.515625 64.4140626,8.515625 L60.6406251,8.515625 C60.5624997,8.515625 60.5234376,8.54687469 60.5234376,8.609375 L60.5234376,8.984375 C60.5234376,9.04687531 60.5624997,9.078125 60.6406251,9.078125 L63.9218751,9.078125 C64.1406262,9.078125 64.3320305,9.16015543 64.4960938,9.32421875 C64.6601572,9.48828207 64.7421876,9.68749883 64.7421876,9.921875 L64.7421876,10.203125 C64.7421876,10.4218761 64.6601572,10.6132804 64.4960938,10.7773438 C64.3320305,10.9414071 64.1406262,11.0234375 63.9218751,11.0234375 L60.6406251,11.0234375 C60.5624997,11.0234375 60.5234376,11.0624996 60.5234376,11.140625 L60.5234376,11.46875 C60.5234376,11.5468754 60.5624997,11.5859375 60.6406251,11.5859375 L64.8593751,11.5859375 C65.0781262,11.5859375 65.2695305,11.6640617 65.4335938,11.8203125 C65.5976572,11.9765633 65.6796876,12.1718738 65.6796876,12.40625 L65.6796876,12.8515625 C65.6796876,13.0859387 65.5976572,13.2851554 65.4335938,13.4492188 C65.2695305,13.6132821 65.0781262,13.6953125 64.8593751,13.6953125 L52.1093751,13.6953125 C52.0468748,13.6953125 52.0156251,13.7265622 52.0156251,13.7890625 L52.0156251,14.3984375 C52.0156251,14.6171886 51.9335947,14.8085929 51.7695313,14.9726562 C51.605468,15.1367196 51.4062513,15.21875 51.1718751,15.21875 L49.9296876,15.21875 C49.8515622,15.21875 49.8125001,15.2578121 49.8125001,15.3359375 L49.8125001,15.5 C49.8125001,15.5781254 49.8437498,15.6406248 49.9062501,15.6875 C50.4531278,16.2031276 51.1562458,16.9218704 52.0156251,17.84375 Z M56.4921876,21.59375 C56.4296873,21.59375 56.3984376,21.6249997 56.3984376,21.6875 L56.3984376,22.203125 C56.3984376,22.2656253 56.4296873,22.296875 56.4921876,22.296875 L61.2265626,22.296875 C61.304688,22.296875 61.3437501,22.2656253 61.3437501,22.203125 L61.3437501,21.6875 C61.3437501,21.6249997 61.304688,21.59375 61.2265626,21.59375 L56.4921876,21.59375 Z M56.4921876,18.9453125 C56.4296873,18.9453125 56.3984376,18.9765622 56.3984376,19.0390625 L56.3984376,19.5546875 C56.3984376,19.6328129 56.4296873,19.671875 56.4921876,19.671875 L61.2265626,19.671875 C61.304688,19.671875 61.3437501,19.6328129 61.3437501,19.5546875 L61.3437501,19.0390625 C61.3437501,18.9765622 61.304688,18.9453125 61.2265626,18.9453125 L56.4921876,18.9453125 Z M56.4921876,16.3203125 C56.4296873,16.3203125 56.3984376,16.3593746 56.3984376,16.4375 L56.3984376,16.9296875 C56.3984376,16.9921878 56.4296873,17.0234375 56.4921876,17.0234375 L61.2265626,17.0234375 C61.304688,17.0234375 61.3437501,16.9921878 61.3437501,16.9296875 L61.3437501,16.4375 C61.3437501,16.3593746 61.304688,16.3203125 61.2265626,16.3203125 L56.4921876,16.3203125 Z M64.6250001,23.5390625 C64.6250001,23.7734387 64.5429697,23.9687492 64.3789063,24.125 C64.214843,24.2812508 64.0234387,24.359375 63.8046876,24.359375 L62.5859376,24.359375 L62.5742188,24.3828125 C62.5664063,24.3984376 62.5703125,24.4140624 62.5859376,24.4296875 C63.6953181,25.1171909 64.6484336,25.7187474 65.4453126,26.234375 C65.6015634,26.3281255 65.6796876,26.4609366 65.6796876,26.6328125 C65.6796876,26.8359385 65.5859385,26.9843745 65.3984376,27.078125 L63.8515626,27.921875 C63.6484366,28.0312505 63.4453136,28.0859375 63.2421876,28.0859375 C62.9765613,28.0859375 62.7187514,27.984376 62.4687501,27.78125 C61.656246,27.1562469 60.8203169,26.5390655 59.9609376,25.9296875 C59.8046868,25.820312 59.7226564,25.6640635 59.7148438,25.4609375 C59.7070313,25.2578115 59.7890617,25.101563 59.9609376,24.9921875 L60.7343751,24.4296875 C60.7500002,24.4140624 60.7539064,24.3984376 60.7460938,24.3828125 C60.7382813,24.3671874 60.7265627,24.359375 60.7109376,24.359375 L57.0781251,24.359375 C57.0625,24.359375 57.0507814,24.3671874 57.0429688,24.3828125 C57.0351563,24.3984376 57.0390625,24.4140624 57.0546876,24.4296875 L57.8984376,24.9921875 C58.0703135,25.1171881 58.1562501,25.281249 58.1562501,25.484375 C58.1562501,25.687501 58.0703135,25.8437495 57.8984376,25.953125 C56.6171812,26.7968792 55.1562583,27.5234345 53.5156251,28.1328125 C53.3593743,28.1796877 53.2109383,28.203125 53.0703126,28.203125 C52.742186,28.203125 52.4453139,28.0625014 52.1796876,27.78125 C51.8828111,27.4687484 51.5625018,27.1406267 51.2187501,26.796875 C51.1249996,26.7031245 51.0781251,26.5937506 51.0781251,26.46875 L51.0781251,26.3515625 C51.1250003,26.1640616 51.2343742,26.0468752 51.4062501,26 C52.578131,25.5781229 53.7109321,25.0546906 54.8046876,24.4296875 C54.8203127,24.4140624 54.8281251,24.3984376 54.8281251,24.3828125 C54.8281251,24.3671874 54.8203127,24.359375 54.8046876,24.359375 L54.1015626,24.359375 C53.8828115,24.359375 53.6914072,24.2812508 53.5273438,24.125 C53.3632805,23.9687492 53.2812501,23.7734387 53.2812501,23.5390625 L53.2812501,15.1015625 C53.2812501,14.8671863 53.3632805,14.6679696 53.5273438,14.5039062 C53.6914072,14.3398429 53.8828115,14.2578125 54.1015626,14.2578125 L63.8046876,14.2578125 C64.0234387,14.2578125 64.214843,14.3398429 64.3789063,14.5039062 C64.5429697,14.6679696 64.6250001,14.8671863 64.6250001,15.1015625 L64.6250001,23.5390625 Z" id="累積" fill="#FFFFFF"></path>
                    <path d="M10.28125,41.0429688 C10.28125,40.9518225 10.2356775,40.90625 10.1445312,40.90625 L8.33984375,40.90625 C8.24869746,40.90625 8.203125,40.9518225 8.203125,41.0429688 C7.98437391,46.5846631 7.2916725,50.85936 6.125,53.8671875 C6.08854148,53.9401045 6.11588496,53.985677 6.20703125,54.0039062 C7.02734785,54.058594 7.75650723,54.0859375 8.39453125,54.0859375 C8.77734566,54.0859375 9.09635289,53.9036477 9.3515625,53.5390625 C9.60677211,53.1744773 9.79817645,52.09441 9.92578125,50.2988281 C10.0533861,48.5032462 10.1718745,45.4179906 10.28125,41.0429688 Z M8.28515625,36.8046875 C8.28515625,36.8958338 8.33072871,36.9414062 8.421875,36.9414062 L13.3164062,36.9414062 C13.5716159,36.9414062 13.7949209,37.0325512 13.9863281,37.2148438 C14.1777353,37.3971363 14.2734375,37.6249986 14.2734375,37.8984375 C14.2734375,38.2812519 14.264323,38.5546867 14.2460938,38.71875 C14.1184889,44.9713854 13.9680998,49.2916547 13.7949219,51.6796875 C13.6217439,54.0677203 13.3255229,55.580726 12.90625,56.21875 C12.5598941,56.7291692 12.2089862,57.1028634 11.8535156,57.3398438 C11.4980451,57.5768241 11.0651067,57.7591139 10.5546875,57.8867188 C10.0078098,58.0143236 9.20573445,58.078125 8.1484375,58.078125 L8.12109375,58.078125 C7.84765488,58.078125 7.61067809,57.9869801 7.41015625,57.8046875 C7.20963441,57.6223949 7.08203152,57.3945326 7.02734375,57.1210938 C6.84505117,56.0273383 6.53515844,55.0612021 6.09765625,54.2226562 C6.09765625,54.204427 6.08398451,54.1953125 6.05664062,54.1953125 C6.02929674,54.1953125 6.015625,54.2135415 6.015625,54.25 C5.45051801,55.5989651 4.77604559,56.8111925 3.9921875,57.8867188 C3.84635344,58.0690113 3.66406359,58.1601562 3.4453125,58.1601562 L3.41796875,58.1601562 C3.1809884,58.1601562 2.98046957,58.0598968 2.81640625,57.859375 C2.32421629,57.2578095 1.78646125,56.7018255 1.203125,56.1914062 C1.00260316,56.0273429 0.884114766,55.8177096 0.84765625,55.5625 C0.829426992,55.5078122 0.8203125,55.4531253 0.8203125,55.3984375 C0.8203125,55.1979157 0.884113945,55.0156258 1.01171875,54.8515625 C2.16016199,53.2473878 2.96679455,51.3470162 3.43164062,49.1503906 C3.8964867,46.9537651 4.17447871,44.2513181 4.265625,41.0429688 C4.265625,40.9518225 4.22005254,40.90625 4.12890625,40.90625 L2.32421875,40.90625 C2.05077988,40.90625 1.81836033,40.8105478 1.62695312,40.6191406 C1.43554592,40.4277334 1.33984375,40.2044284 1.33984375,39.9492188 L1.33984375,37.8984375 C1.33984375,37.6249986 1.43554592,37.3971363 1.62695312,37.2148438 C1.81836033,37.0325512 2.05077988,36.9414062 2.32421875,36.9414062 L4.18359375,36.9414062 C4.27474004,36.9414062 4.3203125,36.8958338 4.3203125,36.8046875 L4.3203125,33.4414062 C4.3203125,33.1861966 4.41145742,32.9628916 4.59375,32.7714844 C4.77604258,32.5800772 5.00390488,32.484375 5.27734375,32.484375 L7.35546875,32.484375 C7.61067836,32.484375 7.83398342,32.5800772 8.02539062,32.7714844 C8.21679783,32.9628916 8.3125,33.1861966 8.3125,33.4414062 C8.3125,34.8268298 8.30338551,35.9479124 8.28515625,36.8046875 Z M19.359375,52.0625 C19.359375,52.1536463 19.395833,52.1992188 19.46875,52.1992188 L21.7929688,52.1992188 C21.884115,52.1992188 21.9296875,52.1536463 21.9296875,52.0625 L21.9296875,39.15625 C21.9296875,39.0651037 21.884115,39.0195312 21.7929688,39.0195312 L19.46875,39.0195312 C19.395833,39.0195312 19.359375,39.0651037 19.359375,39.15625 L19.359375,52.0625 Z M15.4492188,36.09375 C15.4492188,35.8203111 15.5449209,35.5878916 15.7363281,35.3964844 C15.9277353,35.2050772 16.1601549,35.109375 16.4335938,35.109375 L25.046875,35.109375 C25.3203139,35.109375 25.5481762,35.2050772 25.7304688,35.3964844 C25.9127613,35.5878916 26.0039062,35.8203111 26.0039062,36.09375 L26.0039062,56.8203125 C26.0039062,57.0937514 25.9127613,57.3261709 25.7304688,57.5175781 C25.5481762,57.7089853 25.3203139,57.8046875 25.046875,57.8046875 L22.8867188,57.8046875 C22.6315091,57.8046875 22.4082041,57.7089853 22.2167969,57.5175781 C22.0253897,57.3261709 21.9296875,57.0937514 21.9296875,56.8203125 L21.9296875,56.2460938 C21.9296875,56.1549475 21.884115,56.109375 21.7929688,56.109375 L19.46875,56.109375 C19.395833,56.109375 19.359375,56.1549475 19.359375,56.2460938 L19.359375,57.0390625 C19.359375,57.3125014 19.2636728,57.5449209 19.0722656,57.7363281 C18.8808584,57.9277353 18.6484389,58.0234375 18.375,58.0234375 L16.4335938,58.0234375 C16.1601549,58.0234375 15.9277353,57.9277353 15.7363281,57.7363281 C15.5449209,57.5449209 15.4492188,57.3125014 15.4492188,57.0390625 L15.4492188,36.09375 Z M36.1028647,51.8710938 C36.1940109,51.8710938 36.2395834,51.8346358 36.2395834,51.7617188 L36.2395834,45.5546875 C36.2395834,45.4817705 36.1940109,45.4453125 36.1028647,45.4453125 L34.8723959,45.4453125 C34.7812496,45.4453125 34.7356772,45.4817705 34.7356772,45.5546875 L34.7356772,51.7617188 C34.7356772,51.8346358 34.7812496,51.8710938 34.8723959,51.8710938 L36.1028647,51.8710938 Z M43.6223959,51.078125 C43.6223959,51.0963543 43.6269531,51.1145832 43.6360678,51.1328125 C43.6451824,51.1510418 43.6588541,51.1601562 43.6770834,51.1601562 L45.1263022,50.9414062 C45.399741,50.9049477 45.6458323,50.9687492 45.8645834,51.1328125 C46.0833345,51.2968758 46.2109374,51.5065091 46.2473959,51.7617188 C46.4296885,52.8554742 46.5390624,53.9127553 46.5755209,54.9335938 C46.5937502,55.2252619 46.5117197,55.4759104 46.3294272,55.6855469 C46.1471346,55.8951833 45.9101578,56.018229 45.6184897,56.0546875 L44.7981772,56.1914062 C44.5611968,56.2278648 44.3470062,56.1640633 44.155599,56 C43.9641918,55.8359367 43.8684897,55.6263034 43.8684897,55.3710938 C43.8684897,54.1315042 43.7773447,52.9010478 43.5950522,51.6796875 C43.5768229,51.6614582 43.5631512,51.6523438 43.5540365,51.6523438 C43.5449219,51.6523438 43.5403647,51.6614582 43.5403647,51.6796875 C43.2669258,53.7942814 42.8476591,55.4257755 42.2825522,56.5742188 C42.1549473,56.8111991 41.9544285,56.9661455 41.6809897,57.0390625 C41.4075508,57.1119795 41.152345,57.0755216 40.9153647,56.9296875 L39.4934897,56.1640625 C39.3658848,56.0911455 39.2838544,55.9817716 39.2473959,55.8359375 C39.2109374,55.6901034 39.2291664,55.5533861 39.3020834,55.4257812 C39.3203127,55.3710935 39.3111982,55.34375 39.2747397,55.34375 L34.8723959,55.34375 C34.7812496,55.34375 34.7356772,55.3893225 34.7356772,55.4804688 L34.7356772,56.5195312 C34.7356772,56.7747409 34.639975,56.9980459 34.4485678,57.1894531 C34.2571606,57.3808603 34.0338555,57.4765625 33.7786459,57.4765625 L32.2473959,57.4765625 C31.973957,57.4765625 31.7415375,57.3808603 31.5501303,57.1894531 C31.3587231,56.9980459 31.2630209,56.7747409 31.2630209,56.5195312 L31.2630209,51.2695312 L31.2356771,51.2695312 C31.1627601,51.3606775 31.067058,51.4016928 30.9485678,51.3925781 C30.8300776,51.3834635 30.7434899,51.3242193 30.6888021,51.2148438 C30.324217,50.3398394 29.8684924,49.4557336 29.3216146,48.5625 C29.1575513,48.2890611 29.0755209,48.0156264 29.0755209,47.7421875 C29.0755209,47.4869779 29.1484368,47.2226576 29.2942709,46.9492188 C30.643236,44.6158737 31.6002577,41.2070537 32.1653647,36.7226562 C32.1653647,36.63151 32.1289067,36.5859375 32.0559897,36.5859375 L30.4973959,36.5859375 C30.2421863,36.5859375 30.0188812,36.4947926 29.827474,36.3125 C29.6360668,36.1302074 29.5403646,35.9023451 29.5403646,35.6289062 L29.5403646,33.90625 C29.5403646,33.6328111 29.6360668,33.4003916 29.827474,33.2089844 C30.0188812,33.0175772 30.2421863,32.921875 30.4973959,32.921875 L39.4388022,32.921875 C39.6940118,32.921875 39.9173168,33.0175772 40.108724,33.2089844 C40.3001312,33.4003916 40.3958334,33.6328111 40.3958334,33.90625 L40.3958334,35.6289062 C40.3958334,35.9023451 40.3001312,36.1302074 40.108724,36.3125 C39.9173168,36.4947926 39.6940118,36.5859375 39.4388022,36.5859375 L36.1302084,36.5859375 C36.0390621,36.5859375 35.9934897,36.63151 35.9934897,36.7226562 C35.665363,38.8190209 35.3463558,40.5325454 35.0364584,41.8632812 C35.0182291,41.9361983 35.0455726,41.9726562 35.1184897,41.9726562 L38.7552084,41.9726562 C39.0286473,41.9726562 39.2610668,42.0683584 39.452474,42.2597656 C39.6438812,42.4511728 39.7395834,42.6744779 39.7395834,42.9296875 L39.7395834,54.359375 C39.7395834,54.3776043 39.7441406,54.3867188 39.7532553,54.3867188 L39.7669272,54.3867188 C40.1497416,53.4023388 40.4322908,52.2083404 40.6145834,50.8046875 C40.6510419,50.5494779 40.7740876,50.3489591 40.983724,50.203125 C41.1933605,50.0572909 41.42578,50.0117185 41.6809897,50.0664062 L43.1575522,50.4492188 C43.3033862,50.4856773 43.4218746,50.5631504 43.5130209,50.6816406 C43.6041672,50.8001308 43.6406252,50.9322909 43.6223959,51.078125 Z M46.6848959,51.9804688 C46.6119789,51.7252591 46.6438796,51.4791679 46.780599,51.2421875 C46.9173185,51.0052071 47.11328,50.8593753 47.3684897,50.8046875 L47.8880209,50.640625 C48.1614598,50.567708 48.4166655,50.5996087 48.6536459,50.7363281 C48.8906263,50.8730476 49.0546871,51.0690091 49.1458334,51.3242188 C49.3828138,52.1080768 49.5742181,52.8736942 49.7200522,53.6210938 C49.7565107,53.8945326 49.7018237,54.1451812 49.5559897,54.3730469 C49.4101556,54.6009126 49.2005223,54.7513017 48.9270834,54.8242188 L48.2434897,55.015625 C48.0065093,55.088542 47.7832042,55.0520841 47.5735678,54.90625 C47.3639313,54.7604159 47.2408857,54.5598971 47.2044272,54.3046875 C47.0768223,53.5755172 46.903647,52.8007854 46.6848959,51.9804688 Z M44.9075522,44.7070312 C44.8346351,44.7070312 44.7981772,44.7526037 44.7981772,44.84375 L44.7981772,45.7734375 C44.7981772,45.8463545 44.8346351,45.8828125 44.9075522,45.8828125 L46.7942709,45.8828125 C46.8854172,45.8828125 46.9309897,45.8463545 46.9309897,45.7734375 L46.9309897,44.84375 C46.9309897,44.7526037 46.8854172,44.7070312 46.7942709,44.7070312 L44.9075522,44.7070312 Z M46.9309897,36.5859375 C46.9309897,36.4947912 46.8854172,36.4492188 46.7942709,36.4492188 L44.9075522,36.4492188 C44.8346351,36.4492188 44.7981772,36.4947912 44.7981772,36.5859375 L44.7981772,37.296875 C44.7981772,37.369792 44.8346351,37.40625 44.9075522,37.40625 L46.7942709,37.40625 C46.8854172,37.40625 46.9309897,37.369792 46.9309897,37.296875 L46.9309897,36.5859375 Z M46.7942709,41.6171875 C46.8854172,41.6171875 46.9309897,41.571615 46.9309897,41.4804688 L46.9309897,40.6328125 C46.9309897,40.5598955 46.8854172,40.5234375 46.7942709,40.5234375 L44.9075522,40.5234375 C44.8346351,40.5234375 44.7981772,40.5598955 44.7981772,40.6328125 L44.7981772,41.4804688 C44.7981772,41.571615 44.8346351,41.6171875 44.9075522,41.6171875 L46.7942709,41.6171875 Z M50.5130209,45.7734375 C50.5130209,45.8463545 50.5494789,45.8828125 50.6223959,45.8828125 L54.6419272,45.8828125 C54.8971368,45.8828125 55.1158846,45.9830719 55.2981772,46.1835938 C55.4804697,46.3658863 55.5716147,46.5755196 55.5716147,46.8125 C55.5716147,46.885417 55.5625002,47.0494779 55.5442709,47.3046875 C55.4166661,50.5677246 55.2617197,52.9511644 55.0794272,54.4550781 C54.8971346,55.9589919 54.6236998,56.9387998 54.2591147,57.3945312 C53.7486954,58.0507845 53.0468795,58.4518222 52.1536459,58.5976562 C51.6432267,58.6888025 50.9505253,58.734375 50.0755209,58.734375 C49.802082,58.734375 49.5651052,58.6386728 49.3645834,58.4472656 C49.1640616,58.2558584 49.0364587,58.0234389 48.9817709,57.75 C48.8723954,57.184893 48.717449,56.647138 48.5169272,56.1367188 C48.4440101,55.9361969 48.4667963,55.7493498 48.5852865,55.5761719 C48.7037767,55.4029939 48.8632803,55.3255207 49.0638022,55.34375 C49.5013043,55.3619793 49.8932275,55.3710938 50.2395834,55.3710938 C50.56771,55.3710938 50.8411448,55.2526054 51.0598959,55.015625 C51.2239592,54.8151032 51.3697911,54.3138061 51.4973959,53.5117188 C51.4973959,53.4934895 51.4882814,53.4752605 51.4700522,53.4570312 C51.4518229,53.438802 51.4244794,53.4296875 51.3880209,53.4296875 L51.3880209,53.4570312 C51.1510405,53.5481775 50.918621,53.5345058 50.6907553,53.4160156 C50.4628896,53.2975254 50.3033859,53.1197929 50.2122397,52.8828125 C50.0481763,52.4088518 49.856772,51.9257837 49.6380209,51.4335938 C49.5286454,51.1966134 49.5195309,50.9596366 49.6106772,50.7226562 C49.7018234,50.4856759 49.8658843,50.321615 50.1028647,50.2304688 L50.2395834,50.1484375 C50.5130223,50.0572912 50.7818998,50.0572912 51.046224,50.1484375 C51.3105483,50.2395838 51.5065098,50.4036446 51.6341147,50.640625 C51.6523439,50.6953128 51.6660156,50.7272135 51.6751303,50.7363281 C51.6842449,50.7454428 51.6979166,50.75 51.7161459,50.75 C51.7343752,50.75 51.7434897,50.7408855 51.7434897,50.7226562 C51.7434897,50.5950514 51.7480469,50.3945326 51.7571615,50.1210938 C51.7662762,49.8476549 51.7799479,49.6380216 51.7981772,49.4921875 C51.7981772,49.4010412 51.7526047,49.3554688 51.6614584,49.3554688 L42.0911459,49.3554688 C41.8359363,49.3554688 41.6126312,49.2643238 41.421224,49.0820312 C41.2298168,48.8997387 41.1341147,48.6718764 41.1341147,48.3984375 L41.1341147,33.9609375 C41.1341147,33.6874986 41.2298168,33.4550791 41.421224,33.2636719 C41.6126312,33.0722647 41.8359363,32.9765625 42.0911459,32.9765625 L54.0677084,32.9765625 C54.3411473,32.9765625 54.5735668,33.0722647 54.764974,33.2636719 C54.9563812,33.4550791 55.0520834,33.6874986 55.0520834,33.9609375 L55.0520834,35.4921875 C55.0520834,35.7473971 54.9563812,35.9707022 54.764974,36.1621094 C54.5735668,36.3535166 54.3411473,36.4492188 54.0677084,36.4492188 L50.6223959,36.4492188 C50.5494789,36.4492188 50.5130209,36.4947912 50.5130209,36.5859375 L50.5130209,37.296875 C50.5130209,37.369792 50.5494789,37.40625 50.6223959,37.40625 L53.1653647,37.40625 C53.4388035,37.40625 53.6712231,37.5019522 53.8626303,37.6933594 C54.0540375,37.8847666 54.1497397,38.1171861 54.1497397,38.390625 L54.1497397,39.5390625 C54.1497397,39.8125014 54.0540375,40.0449209 53.8626303,40.2363281 C53.6712231,40.4277353 53.4388035,40.5234375 53.1653647,40.5234375 L50.6223959,40.5234375 C50.5494789,40.5234375 50.5130209,40.5598955 50.5130209,40.6328125 L50.5130209,41.4804688 C50.5130209,41.571615 50.5494789,41.6171875 50.6223959,41.6171875 L53.1653647,41.6171875 C53.4388035,41.6171875 53.6712231,41.7083324 53.8626303,41.890625 C54.0540375,42.0729176 54.1497397,42.3007799 54.1497397,42.5742188 L54.1497397,43.75 C54.1497397,44.0234389 54.0540375,44.2513012 53.8626303,44.4335938 C53.6712231,44.6158863 53.4388035,44.7070312 53.1653647,44.7070312 L50.6223959,44.7070312 C50.5494789,44.7070312 50.5130209,44.7526037 50.5130209,44.84375 L50.5130209,45.7734375 Z M84.0455731,45.0351562 C84.0455731,45.3085951 83.9498709,45.5364574 83.7584637,45.71875 C83.5670565,45.9010426 83.3437514,45.9921875 83.0885418,45.9921875 L77.7291668,45.9921875 C77.6380205,45.9921875 77.6197915,46.0286455 77.6744793,46.1015625 C78.8593811,48.0885516 80.7005085,49.4557254 83.1979168,50.203125 C83.3984386,50.276042 83.5260415,50.4127594 83.5807293,50.6132812 C83.6354171,50.8138031 83.5989591,50.9960929 83.4713543,51.1601562 C82.9609351,51.7434925 82.496096,52.3723925 82.0768231,53.046875 C81.9127597,53.2838554 81.7031264,53.4524735 81.4479168,53.5527344 C81.1927072,53.6529953 80.9375014,53.648438 80.6822918,53.5390625 C78.3489468,52.6093704 76.5169339,51.0507922 75.1861981,48.8632812 C75.1679688,48.8268227 75.1451826,48.8085938 75.1178387,48.8085938 C75.0904948,48.8085938 75.0677086,48.8268227 75.0494793,48.8632812 C73.828119,50.7408948 71.9778771,52.281244 69.4986981,53.484375 C69.2434884,53.5937505 68.9837254,53.6119795 68.7194012,53.5390625 C68.4550769,53.4661455 68.2317719,53.3203136 68.0494793,53.1015625 C67.6119771,52.572914 67.1380235,52.0625025 66.6276043,51.5703125 C66.4817702,51.4244784 66.4270833,51.2467458 66.4635418,51.0371094 C66.5000003,50.8274729 66.6184887,50.6770838 66.8190106,50.5859375 C69.5716285,49.5104113 71.321611,48.0247491 72.0690106,46.1289062 C72.1054691,46.03776 72.0781256,45.9921875 71.9869793,45.9921875 L66.9830731,45.9921875 C66.7096342,45.9921875 66.4817719,45.9010426 66.2994793,45.71875 C66.1171867,45.5364574 66.0260418,45.3085951 66.0260418,45.0351562 L66.0260418,43.3671875 C66.0260418,43.0937486 66.1171867,42.8613291 66.2994793,42.6699219 C66.4817719,42.4785147 66.7096342,42.3828125 66.9830731,42.3828125 L72.4518231,42.3828125 C72.5247401,42.3828125 72.5611981,42.3463545 72.5611981,42.2734375 L72.5611981,40.46875 C72.5611981,40.395833 72.5247401,40.359375 72.4518231,40.359375 L67.9947918,40.359375 C67.7213529,40.359375 67.4889334,40.2636728 67.2975262,40.0722656 C67.106119,39.8808584 67.0104168,39.6484389 67.0104168,39.375 L67.0104168,37.7617188 C67.0104168,37.4882799 67.106119,37.2604176 67.2975262,37.078125 C67.4889334,36.8958324 67.7213529,36.8046875 67.9947918,36.8046875 L69.2526043,36.8046875 C69.3255213,36.8046875 69.3528648,36.759115 69.3346356,36.6679688 C68.9882797,35.8841107 68.569013,35.0911498 68.0768231,34.2890625 C67.9492182,34.0885407 67.9218748,33.8652356 67.9947918,33.6191406 C68.0677088,33.3730456 68.2226552,33.2044275 68.4596356,33.1132812 L70.1002606,32.4570312 C70.3554702,32.3476557 70.6243477,32.3294267 70.9069012,32.4023438 C71.1894547,32.4752608 71.4127597,32.6302071 71.5768231,32.8671875 C72.1783886,33.7239626 72.6614566,34.5442669 73.0260418,35.328125 C73.1354173,35.5833346 73.1354173,35.8339831 73.0260418,36.0800781 C72.9166663,36.3261731 72.7343764,36.5039057 72.4791668,36.6132812 L72.1783856,36.75 C72.1601563,36.75 72.155599,36.7591145 72.1647137,36.7773438 L72.1783856,36.8046875 L77.4010418,36.8046875 C77.4192711,36.8046875 77.4283856,36.795573 77.4283856,36.7773438 C77.4283856,36.7591145 77.4192711,36.75 77.4010418,36.75 L77.1549481,36.6679688 C76.9179677,36.5768225 76.7584641,36.4173188 76.6764324,36.1894531 C76.5944008,35.9615874 76.617187,35.7382823 76.7447918,35.5195312 C77.255211,34.6445269 77.6927066,33.7786501 78.0572918,32.921875 C78.1666673,32.6848946 78.3489572,32.5026048 78.6041668,32.375 C78.7500009,32.302083 78.8958327,32.265625 79.0416668,32.265625 C79.1510423,32.265625 79.2513018,32.283854 79.3424481,32.3203125 L81.6666668,33.0039062 C81.9036472,33.0768233 82.0631508,33.2272124 82.1451824,33.4550781 C82.2272141,33.6829438 82.1953134,33.8971344 82.0494793,34.0976562 C81.4114553,35.0638069 80.7916698,35.9296837 80.1901043,36.6953125 C80.1536458,36.7682295 80.1718748,36.8046875 80.2447918,36.8046875 L82.0768231,36.8046875 C82.3320327,36.8046875 82.5553377,36.8958324 82.7467449,37.078125 C82.9381521,37.2604176 83.0338543,37.4882799 83.0338543,37.7617188 L83.0338543,39.375 C83.0338543,39.6484389 82.9381521,39.8808584 82.7467449,40.0722656 C82.5553377,40.2636728 82.3320327,40.359375 82.0768231,40.359375 L76.7721356,40.359375 C76.6992185,40.359375 76.6627606,40.395833 76.6627606,40.46875 L76.6627606,42.2734375 C76.6627606,42.3463545 76.6992185,42.3828125 76.7721356,42.3828125 L83.0885418,42.3828125 C83.3437514,42.3828125 83.5670565,42.4785147 83.7584637,42.6699219 C83.9498709,42.8613291 84.0455731,43.0937486 84.0455731,43.3671875 L84.0455731,45.0351562 Z M65.2057293,36.1210938 C65.3880219,36.3216156 65.4654951,36.5585924 65.4381512,36.8320312 C65.4108073,37.1054701 65.2877616,37.3242179 65.0690106,37.4882812 L63.3190106,38.9375 C63.1184887,39.1015633 62.8906264,39.1653648 62.6354168,39.1289062 C62.3802072,39.0924477 62.1705739,38.9739593 62.0065106,38.7734375 C61.2408817,37.8437454 60.2200586,36.8411512 58.9440106,35.765625 C58.761718,35.6015617 58.6705731,35.3919284 58.6705731,35.1367188 C58.6705731,34.8815091 58.7708325,34.6809903 58.9713543,34.5351562 L60.4752606,33.3046875 C60.6940116,33.1223949 60.9492174,33.03125 61.2408856,33.03125 L61.2682293,33.03125 C61.5416682,33.03125 61.7877595,33.1132804 62.0065106,33.2773438 C63.3190171,34.2981822 64.3854127,35.2460894 65.2057293,36.1210938 Z M64.1940106,42.9023438 C64.4674494,42.9023438 64.699869,42.9980459 64.8912762,43.1894531 C65.0826834,43.3808603 65.1783856,43.6041654 65.1783856,43.859375 L65.1783856,51.5703125 C65.1783856,51.6432295 65.1966145,51.7161455 65.2330731,51.7890625 C65.7434923,52.5911498 66.4589799,53.1835918 67.3795574,53.5664062 C68.3001349,53.9492207 69.4622327,54.1679685 70.8658856,54.2226562 C71.813807,54.277344 72.980462,54.3046875 74.3658856,54.3046875 C75.1679729,54.3046875 76.0338497,54.295573 76.9635418,54.2773438 C79.5338672,54.2408852 81.7851467,54.1497403 83.7174481,54.0039062 C83.9361991,53.985677 84.1093745,54.0677074 84.2369793,54.25 C84.3281256,54.3593755 84.3736981,54.4778639 84.3736981,54.6054688 C84.3736981,54.6783858 84.3554691,54.7513017 84.3190106,54.8242188 C84.0273424,55.6080768 83.7903656,56.3736942 83.6080731,57.1210938 C83.535156,57.3945326 83.3893241,57.6269522 83.1705731,57.8183594 C82.951822,58.0097666 82.7057307,58.1145832 82.4322918,58.1328125 C80.1354053,58.2239588 77.9570417,58.2695312 75.8971356,58.2695312 C74.092439,58.2695312 72.388029,58.2330733 70.7838543,58.1601562 C69.0703041,58.0872392 67.643886,57.8365907 66.5045574,57.4082031 C65.3652288,56.9798156 64.3489629,56.2643279 63.4557293,55.2617188 C63.4010415,55.1888017 63.3463546,55.1796872 63.2916668,55.234375 C62.2161406,56.1822964 61.2226609,57.0299442 60.3111981,57.7773438 C60.1106762,57.9231778 59.8919284,57.9687503 59.6549481,57.9140625 C59.4179677,57.8593747 59.2447923,57.7226573 59.1354168,57.5039062 L57.9869793,55.015625 C57.9322915,54.8697909 57.9049481,54.7239591 57.9049481,54.578125 C57.9049481,54.4687495 57.923177,54.3593755 57.9596356,54.25 C58.0325526,53.9765611 58.1874989,53.7760423 58.4244793,53.6484375 C59.4088592,53.0651012 60.3020795,52.4908882 61.1041668,51.9257812 C61.1588546,51.8710935 61.1861981,51.807292 61.1861981,51.734375 L61.1861981,46.7578125 C61.1861981,46.6848955 61.1497401,46.6484375 61.0768231,46.6484375 L59.2721356,46.6484375 C59.0169259,46.6484375 58.7936209,46.5527353 58.6022137,46.3613281 C58.4108065,46.1699209 58.3151043,45.9375014 58.3151043,45.6640625 L58.3151043,43.859375 C58.3151043,43.6041654 58.4108065,43.3808603 58.6022137,43.1894531 C58.7936209,42.9980459 59.0169259,42.9023438 59.2721356,42.9023438 L64.1940106,42.9023438 Z" id="加碼送" fill="#FDEEBE"></path>
                </g>
            </g>
        </g>
    </g>
</svg>