<?xml version="1.0" encoding="UTF-8"?>
<svg width="117px" height="66px" viewBox="0 0 117 66" version="1.1" xmlns="http://www.w3.org/2000/svg" xmlns:xlink="http://www.w3.org/1999/xlink">
    <!-- Generator: Sketch 54.1 (76490) - https://sketchapp.com -->
    <title>fixBtn_3</title>
    <desc>Created with Sketch.</desc>
    <g id="Page-1" stroke="none" stroke-width="1" fill="none" fill-rule="evenodd">
        <g id="2-copy-2" transform="translate(-645.000000, -1101.000000)">
            <g id="fixBtn_3" transform="translate(645.000000, 1101.000000)">
                <rect id="Rectangle" x="0" y="0" width="117" height="64"></rect>
                <g id="Group-8-Copy-2" transform="translate(15.000000, 0.000000)" fill-rule="nonzero">
                    <path d="M26.0859375,8.8671875 C26.0859375,8.80468719 26.0546878,8.7734375 25.9921875,8.7734375 L23.2734375,8.7734375 C23.1953121,8.7734375 23.15625,8.80468719 23.15625,8.8671875 L23.15625,9.4765625 C23.15625,9.55468789 23.1953121,9.59375 23.2734375,9.59375 L25.9921875,9.59375 C26.0546878,9.59375 26.0859375,9.55468789 26.0859375,9.4765625 L26.0859375,8.8671875 Z M23.15625,12.5703125 C23.15625,12.6484379 23.1953121,12.6875 23.2734375,12.6875 L25.9921875,12.6875 C26.0546878,12.6875 26.0859375,12.6484379 26.0859375,12.5703125 L26.0859375,11.890625 C26.0859375,11.8281247 26.0546878,11.796875 25.9921875,11.796875 L23.2734375,11.796875 C23.1953121,11.796875 23.15625,11.8281247 23.15625,11.890625 L23.15625,12.5703125 Z M29.34375,14.3046875 C29.34375,14.5234386 29.2656258,14.7148429 29.109375,14.8789062 C28.9531242,15.0429696 28.7578137,15.125 28.5234375,15.125 L23.2734375,15.125 C23.1953121,15.125 23.15625,15.1640621 23.15625,15.2421875 L23.15625,27.453125 C23.15625,27.6718761 23.0742196,27.8632804 22.9101562,28.0273438 C22.7460929,28.1914071 22.5546886,28.2734375 22.3359375,28.2734375 L20.578125,28.2734375 C20.3593739,28.2734375 20.1679696,28.1914071 20.0039062,28.0273438 C19.8398429,27.8632804 19.7578125,27.6718761 19.7578125,27.453125 L19.7578125,7.1796875 C19.7578125,6.94531133 19.8398429,6.74609457 20.0039062,6.58203125 C20.1679696,6.41796793 20.3593739,6.3359375 20.578125,6.3359375 L28.5234375,6.3359375 C28.7578125,6.3359375 28.9531242,6.41796793 29.109375,6.58203125 C29.2656258,6.74609457 29.34375,6.94531133 29.34375,7.1796875 L29.34375,14.3046875 Z M29.109375,20.1875 C29.109375,20.2500003 29.1484371,20.28125 29.2265625,20.28125 L30.5859375,20.28125 C30.6640629,20.28125 30.703125,20.2500003 30.703125,20.1875 L30.703125,19.015625 C30.703125,18.9531247 30.6640629,18.921875 30.5859375,18.921875 L29.2265625,18.921875 C29.1484371,18.921875 29.109375,18.9531247 29.109375,19.015625 L29.109375,20.1875 Z M36.0703125,22.2734375 C36.0703125,22.4921886 35.9882821,22.6835929 35.8242188,22.8476562 C35.6601554,23.0117196 35.4687511,23.09375 35.25,23.09375 L33.84375,23.09375 C33.7812497,23.09375 33.75,23.1328121 33.75,23.2109375 L33.75,27.0078125 C33.75,27.2421887 33.6679696,27.4414054 33.5039062,27.6054688 C33.3398429,27.7695321 33.1406262,27.8515625 32.90625,27.8515625 L31.5234375,27.8515625 C31.2890613,27.8515625 31.0937508,27.7695321 30.9375,27.6054688 C30.7812492,27.4414054 30.703125,27.2421887 30.703125,27.0078125 L30.703125,23.2109375 C30.703125,23.1328121 30.6640629,23.09375 30.5859375,23.09375 L29.1328125,23.09375 C29.0546871,23.09375 29.0078126,23.1249997 28.9921875,23.1875 C28.6640609,25.1250097 27.8906311,26.6640568 26.671875,27.8046875 C26.4843741,27.9609383 26.2773449,28.0273439 26.0507812,28.0039062 C25.8242176,27.9804686 25.6250009,27.8828134 25.453125,27.7109375 C25.1406234,27.414061 24.8125017,27.1250014 24.46875,26.84375 C24.3124992,26.7187494 24.2382812,26.5585947 24.2460938,26.3632812 C24.2539063,26.1679678 24.3281243,26.0000007 24.46875,25.859375 C25.2031287,25.1874966 25.7109361,24.2968805 25.9921875,23.1875 C26.0078126,23.1249997 25.9843753,23.09375 25.921875,23.09375 L24.7734375,23.09375 C24.5546864,23.09375 24.3632821,23.0117196 24.1992188,22.8476562 C24.0351554,22.6835929 23.953125,22.4921886 23.953125,22.2734375 L23.953125,21.125 C23.953125,20.8906238 24.0351554,20.6914071 24.1992188,20.5273438 C24.3632821,20.3632804 24.5546864,20.28125 24.7734375,20.28125 L26.0625,20.28125 C26.1250003,20.28125 26.15625,20.2500003 26.15625,20.1875 L26.15625,19.015625 C26.15625,18.9531247 26.1250003,18.921875 26.0625,18.921875 L25.1015625,18.921875 C24.8671863,18.921875 24.6679696,18.8398446 24.5039062,18.6757812 C24.3398429,18.5117179 24.2578125,18.3125012 24.2578125,18.078125 L24.2578125,17.046875 C24.2578125,16.8124988 24.3398429,16.6132821 24.5039062,16.4492188 C24.6679696,16.2851554 24.8671863,16.203125 25.1015625,16.203125 L34.8984375,16.203125 C35.1328137,16.203125 35.3320304,16.2851554 35.4960938,16.4492188 C35.6601571,16.6132821 35.7421875,16.8124988 35.7421875,17.046875 L35.7421875,18.078125 C35.7421875,18.3125012 35.6601571,18.5117179 35.4960938,18.6757812 C35.3320304,18.8398446 35.1328137,18.921875 34.8984375,18.921875 L33.84375,18.921875 C33.7812497,18.921875 33.75,18.9531247 33.75,19.015625 L33.75,20.1875 C33.75,20.2500003 33.7812497,20.28125 33.84375,20.28125 L35.25,20.28125 C35.4687511,20.28125 35.6601554,20.3632804 35.8242188,20.5273438 C35.9882821,20.6914071 36.0703125,20.8906238 36.0703125,21.125 L36.0703125,22.2734375 Z M33.9140625,12.640625 C33.9140625,12.7187504 33.9453122,12.7578125 34.0078125,12.7578125 L36.8203125,12.7578125 C36.8984379,12.7578125 36.9375,12.7187504 36.9375,12.640625 L36.9375,11.890625 C36.9375,11.8281247 36.8984379,11.796875 36.8203125,11.796875 L34.0078125,11.796875 C33.9453122,11.796875 33.9140625,11.8281247 33.9140625,11.890625 L33.9140625,12.640625 Z M36.9375,8.8671875 C36.9375,8.80468719 36.8984379,8.7734375 36.8203125,8.7734375 L34.0078125,8.7734375 C33.9453122,8.7734375 33.9140625,8.80468719 33.9140625,8.8671875 L33.9140625,9.4765625 C33.9140625,9.55468789 33.9453122,9.59375 34.0078125,9.59375 L36.8203125,9.59375 C36.8984379,9.59375 36.9375,9.55468789 36.9375,9.4765625 L36.9375,8.8671875 Z M39.5390625,6.3359375 C39.7734387,6.3359375 39.9687492,6.41796793 40.125,6.58203125 C40.2812508,6.74609457 40.359375,6.94531133 40.359375,7.1796875 L40.359375,24.359375 C40.359375,25.2343794 40.2734384,25.9140601 40.1015625,26.3984375 C39.9296866,26.8828149 39.6093773,27.2656236 39.140625,27.546875 C38.4374965,27.953127 37.3437574,28.1640624 35.859375,28.1796875 C35.6249988,28.1796875 35.4218759,28.1015633 35.25,27.9453125 C35.0624991,27.7890617 34.9453127,27.5937512 34.8984375,27.359375 C34.7578118,26.7187468 34.5781261,26.1015655 34.359375,25.5078125 C34.2968747,25.3359366 34.3164057,25.1718758 34.4179688,25.015625 C34.5195318,24.8593742 34.671874,24.78125 34.875,24.78125 C35.3281273,24.7968751 35.8515595,24.8046875 36.4453125,24.8046875 C36.6328134,24.8046875 36.7617184,24.7656254 36.8320312,24.6875 C36.9023441,24.6093746 36.9375,24.4843759 36.9375,24.3125 L36.9375,15.3125 C36.9375,15.2343746 36.8984379,15.1953125 36.8203125,15.1953125 L31.4296875,15.1953125 C31.1953113,15.1953125 31.0000008,15.1132821 30.84375,14.9492188 C30.6874992,14.7851554 30.609375,14.5937511 30.609375,14.375 L30.609375,7.1796875 C30.609375,6.94531133 30.6874992,6.74609457 30.84375,6.58203125 C31.0000008,6.41796793 31.1953113,6.3359375 31.4296875,6.3359375 L39.5390625,6.3359375 Z M49.5781251,13.484375 C49.5781251,13.4062496 49.5468754,13.3671875 49.484375,13.3671875 L48.1484376,13.3671875 C48.0859373,13.3671875 48.0468752,13.4062496 48.0312501,13.484375 C47.609373,15.3125091 47.2656264,16.8046817 47.0000001,17.9609375 C46.9687499,18.0234378 46.9843748,18.0781248 47.0468751,18.125 C47.7031284,18.5625022 48.1171867,18.8437494 48.2890626,18.96875 C48.3515629,19.0156252 48.390625,19.0078128 48.4062501,18.9453125 C48.9375028,17.3828047 49.3281239,15.5625104 49.5781251,13.484375 Z M53.8906251,16.4609375 C53.6562489,16.4765626 53.4492197,16.410157 53.2695313,16.2617188 C53.089843,16.1132805 52.9921877,15.9218762 52.9765626,15.6875 L52.7890626,13.7890625 L52.7656251,13.7890625 C52.4531235,16.6328267 51.9218788,19.0546775 51.1718751,21.0546875 C51.15625,21.1171878 51.1718749,21.1718748 51.2187501,21.21875 C52.000004,21.8750033 52.6249978,22.4609349 53.0937501,22.9765625 C53.265626,23.1640634 53.3515626,23.3828112 53.3515626,23.6328125 C53.3515626,23.8828138 53.2812508,24.1015616 53.1406251,24.2890625 L52.0390626,25.765625 C51.914062,25.9375009 51.7500011,26.0234375 51.5468751,26.0234375 C51.3437491,26.0234375 51.1718758,25.9453133 51.0312501,25.7890625 C50.6874984,25.3671854 50.2343779,24.8828152 49.6718751,24.3359375 C49.6249999,24.2890623 49.5859378,24.2968747 49.5546876,24.359375 C48.6484331,25.750007 47.5000071,26.9453075 46.1093751,27.9453125 C45.9218742,28.0703131 45.7226574,28.105469 45.5117188,28.0507812 C45.3007803,27.9960935 45.1250008,27.8750009 44.9843751,27.6875 C44.6406234,27.1562473 44.281252,26.6718772 43.9062501,26.234375 C43.7812495,26.0624991 43.7304687,25.875001 43.7539063,25.671875 C43.777344,25.468749 43.8749992,25.3125005 44.0468751,25.203125 C45.2031309,24.4374962 46.1718712,23.4062565 46.9531251,22.109375 C47.0000003,22.0468747 46.9921879,21.9921877 46.9296876,21.9453125 C46.8515622,21.8828122 46.7304697,21.7851569 46.5664063,21.6523438 C46.402343,21.5195306 46.2734381,21.4218753 46.1796876,21.359375 C46.1484374,21.3124998 46.1250002,21.3203122 46.1093751,21.3828125 C46.0624999,21.5390633 45.9609384,21.6523434 45.8046876,21.7226562 C45.6484368,21.7929691 45.5000008,21.7890629 45.3593751,21.7109375 L43.8593751,20.890625 C43.640624,20.7812495 43.4843756,20.6171886 43.3906251,20.3984375 C43.3437499,20.2578118 43.3203126,20.1171882 43.3203126,19.9765625 C43.3203126,19.882812 43.328125,19.789063 43.3437501,19.6953125 C43.7968774,18.0703044 44.2890599,16.0000126 44.8203126,13.484375 C44.8359377,13.4062496 44.8125004,13.3671875 44.7500001,13.3671875 L44.1875001,13.3671875 C43.968749,13.3671875 43.7773447,13.2890633 43.6132813,13.1328125 C43.449218,12.9765617 43.3671876,12.7812512 43.3671876,12.546875 L43.3671876,11 C43.3671876,10.7656238 43.449218,10.5664071 43.6132813,10.4023438 C43.7773447,10.2382804 43.968749,10.15625 44.1875001,10.15625 L45.4296876,10.15625 C45.4921879,10.15625 45.53125,10.1250003 45.5468751,10.0625 C45.8125014,8.64061789 46.0390617,7.37500555 46.2265626,6.265625 C46.2734378,6.04687391 46.3828117,5.8671882 46.5546876,5.7265625 C46.7265635,5.60156188 46.9062492,5.5390625 47.0937501,5.5390625 L47.1875001,5.5390625 L48.8046876,5.7265625 C49.0234387,5.74218758 49.1992182,5.84374906 49.3320313,6.03125 C49.4648445,6.21875094 49.5078128,6.42187391 49.4609376,6.640625 C49.2265614,7.92188141 48.9921888,9.062495 48.7578126,10.0625 C48.7421875,10.1250003 48.7734372,10.15625 48.8515626,10.15625 L50.1406251,10.15625 C50.9843793,10.15625 51.5390613,10.1796873 51.8046876,10.2265625 L52.2031251,10.296875 C52.4375013,10.3281252 52.6289056,10.4374991 52.7773438,10.625 C52.9257821,10.8125009 52.9921877,11.0234363 52.9765626,11.2578125 C52.9453124,11.8671905 52.8984379,12.4765595 52.8359376,13.0859375 C52.8203125,13.1484378 52.8515622,13.1796875 52.9296876,13.1796875 L54.5937501,13.0859375 C54.6562504,13.0859375 54.7031249,13.0546878 54.7343751,12.9921875 C55.5000039,10.7109261 56.0781231,8.46876102 56.4687501,6.265625 C56.5156253,6.04687391 56.6328117,5.87109441 56.8203126,5.73828125 C57.0078135,5.60546809 57.2109365,5.56249977 57.4296876,5.609375 L59.6796876,6.0078125 C59.8984387,6.03906266 60.0664058,6.15234277 60.1835938,6.34765625 C60.3007819,6.54296973 60.320313,6.74218648 60.2421876,6.9453125 C59.5546842,9.0859482 58.8515662,11.0468661 58.1328126,12.828125 C58.1171875,12.8906253 58.1406248,12.921875 58.2031251,12.921875 L61.2265626,12.734375 C61.304688,12.734375 61.3281253,12.7031253 61.2968751,12.640625 C61.0312488,12.1718727 60.7734389,11.734377 60.5234376,11.328125 C60.398437,11.1406241 60.3671873,10.9414073 60.4296876,10.7304688 C60.4921879,10.5195302 60.6171867,10.367188 60.8046876,10.2734375 L62.0937501,9.6171875 C62.2968761,9.50781195 62.5156239,9.48437469 62.7500001,9.546875 C62.9843763,9.60937531 63.164062,9.73437406 63.2890626,9.921875 C64.6015692,11.8593847 65.5390598,13.5624927 66.1015626,15.03125 C66.1484378,15.1406255 66.1718751,15.2499995 66.1718751,15.359375 C66.1718751,15.4687505 66.1484378,15.5859369 66.1015626,15.7109375 C66.0078121,15.9296886 65.8515637,16.0937495 65.6328126,16.203125 L64.0859376,17.0234375 C63.8984367,17.117188 63.7070323,17.1210942 63.5117188,17.0351562 C63.3164054,16.9492183 63.1875004,16.8046885 63.1250001,16.6015625 C63.0468747,16.3828114 62.9531256,16.1406263 62.8437501,15.875 C62.8124999,15.8124997 62.7656254,15.78125 62.7031251,15.78125 C60.1718624,16.0000011 57.2343918,16.2265613 53.8906251,16.4609375 Z M61.6015626,21.2890625 C61.6015626,21.2109371 61.5703129,21.171875 61.5078126,21.171875 L57.5937501,21.171875 C57.5312498,21.171875 57.5000001,21.2109371 57.5000001,21.2890625 L57.5000001,24.171875 C57.5000001,24.2343753 57.5312498,24.265625 57.5937501,24.265625 L61.5078126,24.265625 C61.5703129,24.265625 61.6015626,24.2343753 61.6015626,24.171875 L61.6015626,21.2890625 Z M55.0390626,28.2734375 C54.8203115,28.2734375 54.6289072,28.1914071 54.4648438,28.0273438 C54.3007805,27.8632804 54.2187501,27.6718761 54.2187501,27.453125 L54.2187501,18.875 C54.2187501,18.6406238 54.3007805,18.4414071 54.4648438,18.2773438 C54.6289072,18.1132804 54.8203115,18.03125 55.0390626,18.03125 L64.2265626,18.03125 C64.4609388,18.03125 64.6601555,18.1132804 64.8242188,18.2773438 C64.9882822,18.4414071 65.0703126,18.6406238 65.0703126,18.875 L65.0703126,27.359375 C65.0703126,27.5781261 64.9882822,27.7695304 64.8242188,27.9335938 C64.6601555,28.0976571 64.4609388,28.1796875 64.2265626,28.1796875 L62.2812501,28.1796875 C62.0937492,28.1796875 61.9335945,28.1132819 61.8007813,27.9804688 C61.6679682,27.8476556 61.6015626,27.6875009 61.6015626,27.5 C61.6015626,27.4374997 61.5703129,27.40625 61.5078126,27.40625 L57.5937501,27.40625 C57.5312498,27.40625 57.5000001,27.4453121 57.5000001,27.5234375 C57.5000001,27.7265635 57.4257821,27.902343 57.2773438,28.0507812 C57.1289056,28.1992195 56.9453137,28.2734375 56.7265626,28.2734375 L55.0390626,28.2734375 Z" id="開始" fill="#FFFFFF"></path>
                    <path d="M9.81640625,43.96875 C10.0533866,43.895833 10.2812489,43.9368482 10.5,44.0917969 C10.7187511,44.2467456 10.846354,44.4518216 10.8828125,44.7070312 L11.1015625,46.5117188 C11.138021,46.8033869 11.0787768,47.0631499 10.9238281,47.2910156 C10.7688794,47.5188813 10.5546889,47.660156 10.28125,47.7148438 C9.26041156,47.9882826 8.58593914,48.161458 8.2578125,48.234375 C8.18489547,48.2526043 8.1484375,48.3072912 8.1484375,48.3984375 L8.1484375,54.3046875 C8.1484375,55.2526089 8.04817809,55.9863255 7.84765625,56.5058594 C7.64713441,57.0253932 7.29166922,57.4218736 6.78125,57.6953125 C6.03385043,58.1328147 4.83985195,58.378906 3.19921875,58.4335938 L3.171875,58.4335938 C2.91666539,58.4335938 2.68880309,58.3424488 2.48828125,58.1601562 C2.26953016,57.9778637 2.13281277,57.7500014 2.078125,57.4765625 C1.93229094,56.874997 1.75000109,56.2734405 1.53125,55.671875 C1.44010371,55.4531239 1.4583327,55.2480478 1.5859375,55.0566406 C1.7135423,54.8652334 1.88671766,54.7786457 2.10546875,54.796875 L3.63671875,54.796875 C3.83724059,54.796875 3.97851521,54.7558598 4.06054688,54.6738281 C4.14257854,54.5917965 4.18359375,54.4596363 4.18359375,54.2773438 L4.18359375,49.3554688 C4.18359375,49.2643225 4.13802129,49.2278645 4.046875,49.2460938 L2.5703125,49.6015625 C2.31510289,49.6744795 2.0690116,49.6425788 1.83203125,49.5058594 C1.5950509,49.3691399 1.44010453,49.1640639 1.3671875,48.890625 L0.84765625,46.8945312 C0.829426992,46.803385 0.8203125,46.7213545 0.8203125,46.6484375 C0.8203125,46.4843742 0.874999453,46.3294278 0.984375,46.1835938 C1.1119798,45.9466134 1.30338414,45.809896 1.55859375,45.7734375 C2.52474441,45.5911449 3.3541632,45.4270841 4.046875,45.28125 C4.13802129,45.2630207 4.18359375,45.2083338 4.18359375,45.1171875 L4.18359375,41.0976562 C4.18359375,41.00651 4.13802129,40.9609375 4.046875,40.9609375 L1.94140625,40.9609375 C1.68619664,40.9609375 1.46289158,40.8652353 1.27148438,40.6738281 C1.08007717,40.4824209 0.984375,40.2591159 0.984375,40.0039062 L0.984375,38.171875 C0.984375,37.9166654 1.08007717,37.6933603 1.27148438,37.5019531 C1.46289158,37.3105459 1.68619664,37.2148438 1.94140625,37.2148438 L4.046875,37.2148438 C4.13802129,37.2148438 4.18359375,37.1692713 4.18359375,37.078125 L4.18359375,33.03125 C4.18359375,32.7578111 4.27473867,32.5253916 4.45703125,32.3339844 C4.63932383,32.1425772 4.86718613,32.046875 5.140625,32.046875 L7.1640625,32.046875 C7.43750137,32.046875 7.66992092,32.1425772 7.86132812,32.3339844 C8.05273533,32.5253916 8.1484375,32.7578111 8.1484375,33.03125 L8.1484375,37.078125 C8.1484375,37.1692713 8.18489547,37.2148438 8.2578125,37.2148438 L9.98046875,37.2148438 C10.2539076,37.2148438 10.4817699,37.3105459 10.6640625,37.5019531 C10.8463551,37.6933603 10.9375,37.9166654 10.9375,38.171875 L10.9375,40.0039062 C10.9375,40.2591159 10.8463551,40.4824209 10.6640625,40.6738281 C10.4817699,40.8652353 10.2539076,40.9609375 9.98046875,40.9609375 L8.2578125,40.9609375 C8.18489547,40.9609375 8.1484375,41.00651 8.1484375,41.0976562 L8.1484375,44.2421875 C8.1484375,44.3151045 8.18489547,44.342448 8.2578125,44.3242188 C8.45833434,44.2877602 8.97786039,44.1692718 9.81640625,43.96875 Z M22.2578125,42.9570312 C22.3854173,42.7200509 22.5722644,42.5651045 22.8183594,42.4921875 C23.0644544,42.4192705 23.2968739,42.4557284 23.515625,42.6015625 L25.1835938,43.6132812 C25.4205741,43.7591153 25.5800777,43.9641914 25.6621094,44.2285156 C25.744141,44.4928399 25.7213548,44.7526029 25.59375,45.0078125 C24.4270775,47.3229282 22.8958428,49.5286354 21,51.625 C20.9453122,51.6796878 20.9361977,51.7434892 20.9726562,51.8164062 C21.5742218,52.8007862 22.2486942,53.3567702 22.9960938,53.484375 C23.1601571,53.5026043 23.3059889,53.4023448 23.4335938,53.1835938 C23.5611986,52.9648427 23.6705725,52.618492 23.7617188,52.1445312 C23.852865,51.6705705 23.925781,51.0507851 23.9804688,50.2851562 C23.9804688,50.0846344 24.0670564,49.9524743 24.2402344,49.8886719 C24.4134123,49.8248695 24.5729159,49.8567702 24.71875,49.984375 C25.2291692,50.3854187 25.8489547,50.8046853 26.578125,51.2421875 C26.8151054,51.3880216 27.0065097,51.5976549 27.1523438,51.8710938 C27.24349,52.0533863 27.2890625,52.2447907 27.2890625,52.4453125 C27.2890625,52.5182295 27.279948,52.5911455 27.2617188,52.6640625 C26.8606751,54.8698027 26.3046911,56.4010374 25.59375,57.2578125 C24.955726,58.0234413 24.2447956,58.40625 23.4609375,58.40625 C23.3880205,58.40625 23.30599,58.3971355 23.2148438,58.3789062 C20.899728,58.1054674 19.0950586,56.9388124 17.8007812,54.8789062 C17.7460935,54.8059892 17.6914065,54.7968747 17.6367188,54.8515625 C16.3789,55.8359424 15.139329,56.6562467 13.9179688,57.3125 C13.6627591,57.4401048 13.3984389,57.4765628 13.125,57.421875 C12.8515611,57.3671872 12.6236988,57.2304698 12.4414062,57.0117188 C11.8762993,56.3736947 11.2473993,55.7721382 10.5546875,55.2070312 C10.4088534,55.0976557 10.3359375,54.9518238 10.3359375,54.7695312 C10.3359375,54.5325509 10.4453114,54.3593755 10.6640625,54.25 C12.5234468,53.4296834 14.2825438,52.3268298 15.9414062,50.9414062 C16.0143233,50.8867185 16.0325523,50.8138025 15.9960938,50.7226562 C15.3945282,48.6627501 14.9479181,46.0742343 14.65625,42.9570312 C14.65625,42.8841142 14.6106775,42.8476562 14.5195312,42.8476562 L12.578125,43.0390625 C12.3229154,43.075521 12.0904958,43.0071623 11.8808594,42.8339844 C11.6712229,42.6608064 11.5481773,42.4466159 11.5117188,42.1914062 L11.3203125,40.2226562 C11.3020832,39.9492174 11.3749992,39.7122406 11.5390625,39.5117188 C11.7031258,39.3111969 11.9218736,39.1927085 12.1953125,39.15625 L14.21875,38.9921875 C14.291667,38.9739582 14.328125,38.9283858 14.328125,38.8554688 C14.2187495,37.2148355 14.136719,35.3281357 14.0820312,33.1953125 C14.0820312,32.9401029 14.1731762,32.7167978 14.3554688,32.5253906 C14.5377613,32.3339834 14.7656236,32.2382812 15.0390625,32.2382812 L17.2539062,32.2382812 C17.5273451,32.2382812 17.7597647,32.3294262 17.9511719,32.5117188 C18.1425791,32.6940113 18.2382812,32.9218736 18.2382812,33.1953125 C18.2382812,35.0364675 18.2929682,36.7955645 18.4023438,38.4726562 C18.4023438,38.5455733 18.4388017,38.5820312 18.5117188,38.5820312 L22.09375,38.2539062 C22.166667,38.2539062 22.1757815,38.2174483 22.1210938,38.1445312 C21.6289038,37.4518195 20.7265691,36.3489659 19.4140625,34.8359375 C19.2499992,34.6354157 19.1861977,34.4121106 19.2226562,34.1660156 C19.2591148,33.9199206 19.3867177,33.7239591 19.6054688,33.578125 L21.0820312,32.6484375 C21.3190116,32.4843742 21.5787746,32.4205727 21.8613281,32.4570312 C22.1438816,32.4934898 22.3763012,32.6119782 22.5585938,32.8125 C23.8164125,34.1432358 24.6367168,35.0273416 25.0195312,35.4648438 C25.2018238,35.6653656 25.2701825,35.8932279 25.2246094,36.1484375 C25.1790362,36.4036471 25.0559906,36.6041659 24.8554688,36.75 L22.8046875,38.1171875 C22.7864582,38.1354168 22.781901,38.1490885 22.7910156,38.1582031 C22.8001303,38.1673178 22.813802,38.171875 22.8320312,38.171875 L25.7578125,37.9257812 C26.0130221,37.8893227 26.2454417,37.9576814 26.4550781,38.1308594 C26.6647146,38.3040373 26.7877602,38.5273424 26.8242188,38.8007812 L27.015625,40.6328125 C27.0338543,40.9062514 26.9609383,41.1477854 26.796875,41.3574219 C26.6328117,41.5670583 26.4140639,41.6809895 26.140625,41.6992188 L18.8398438,42.4375 C18.7486975,42.4375 18.703125,42.4830725 18.703125,42.5742188 C18.8671883,44.2695397 19.1041651,45.8281179 19.4140625,47.25 C19.4140625,47.2864585 19.4277342,47.3046875 19.4550781,47.3046875 C19.482422,47.3046875 19.5052082,47.295573 19.5234375,47.2773438 C20.5807345,45.9466079 21.4921837,44.5065182 22.2578125,42.9570312 Z M34.1614584,38.2539062 C34.1249999,38.2539062 34.0885419,38.2630207 34.0520834,38.28125 C34.0338541,38.2994793 34.0247397,38.3177082 34.0247397,38.3359375 C34.0247397,38.3541668 34.0338541,38.3632812 34.0520834,38.3632812 C34.8541707,38.7278664 35.5104142,39.0651026 36.0208334,39.375 C36.0937504,39.4296878 36.1575519,39.4388023 36.2122397,39.4023438 C36.7408881,39.0924464 37.2512997,38.7369812 37.7434897,38.3359375 C37.7617189,38.3177082 37.7708334,38.2994793 37.7708334,38.28125 C37.7708334,38.2630207 37.7526044,38.2539062 37.7161459,38.2539062 L34.1614584,38.2539062 Z M40.1223959,35.9296875 C40.2317714,35.9114582 40.3320309,35.9023438 40.4231772,35.9023438 C40.6419282,35.9023438 40.8606761,35.9570307 41.0794272,36.0664062 L41.8997397,36.4765625 C42.13672,36.6041673 42.2916664,36.7955716 42.3645834,37.0507812 C42.4375004,37.3059909 42.4010425,37.5429677 42.2552084,37.7617188 C40.2682193,40.6419415 36.8320557,42.7291602 31.9466147,44.0234375 C31.6731758,44.0963545 31.4042983,44.0781255 31.139974,43.96875 C30.8756498,43.8593745 30.6614592,43.6770846 30.4973959,43.421875 C30.3151033,43.1119776 30.1145845,42.8203139 29.8958334,42.546875 C29.7682286,42.3828117 29.7408851,42.1959646 29.8138022,41.9863281 C29.8867192,41.7766917 30.0234366,41.653646 30.2239584,41.6171875 C31.2447968,41.3984364 32.2838489,41.0976582 33.3411459,40.7148438 C33.3593752,40.7148438 33.3684897,40.701172 33.3684897,40.6738281 C33.3684897,40.6464842 33.3593752,40.6328125 33.3411459,40.6328125 C32.9765607,40.3958321 32.5299506,40.1497409 32.0013022,39.8945312 C31.9466144,39.8580727 31.8919274,39.8580727 31.8372397,39.8945312 C31.6184886,40.0221361 31.386069,40.0722658 31.139974,40.0449219 C30.893879,40.017578 30.6796885,39.9127613 30.4973959,39.7304688 C30.223957,39.4752591 29.9322933,39.2291679 29.6223959,38.9921875 C29.4765618,38.8645827 29.4036459,38.7096363 29.4036459,38.5273438 C29.4036459,38.2721341 29.5130198,38.0898443 29.7317709,37.9804688 C30.8984434,37.3789032 31.8554651,36.7226598 32.6028647,36.0117188 C32.9492205,35.6835921 33.3229147,35.5195312 33.7239584,35.5195312 C33.8697925,35.5195312 34.0247388,35.5468747 34.1888022,35.6015625 L34.6263022,35.7109375 C34.6992192,35.747396 34.7356772,35.7200525 34.7356772,35.6289062 L34.7356772,33.03125 C34.7356772,32.7578111 34.8313793,32.5253916 35.0227865,32.3339844 C35.2141937,32.1425772 35.4466133,32.046875 35.7200522,32.046875 L37.1145834,32.046875 C37.369793,32.046875 37.5885408,32.1380199 37.7708334,32.3203125 C37.953126,32.5026051 38.0442709,32.7213529 38.0442709,32.9765625 C38.0442709,33.0494795 38.0807289,33.0859375 38.1536459,33.0859375 L41.4348959,33.0859375 C41.7083348,33.0859375 41.9407543,33.1816397 42.1321615,33.3730469 C42.3235687,33.5644541 42.4192709,33.7968736 42.4192709,34.0703125 L42.4192709,34.4257812 C42.4192709,34.6992201 42.3235687,34.9270824 42.1321615,35.109375 C41.9407543,35.2916676 41.7083348,35.3828125 41.4348959,35.3828125 L38.1809897,35.3828125 C38.0898434,35.3828125 38.0442709,35.428385 38.0442709,35.5195312 L38.0442709,35.8203125 C38.0442709,35.9114588 38.0898434,35.9570312 38.1809897,35.9570312 L39.9856772,35.9570312 C40.0403649,35.9570312 40.0859374,35.9479168 40.1223959,35.9296875 Z M38.4544272,54.6875 C38.4544272,54.7786463 38.4999996,54.8242188 38.5911459,54.8242188 L41.7083334,54.578125 C41.7265627,54.578125 41.7402344,54.5690105 41.749349,54.5507812 C41.7584637,54.532552 41.7539064,54.514323 41.7356772,54.4960938 C41.4986968,54.2591134 41.243491,53.9674496 40.9700522,53.6210938 C40.9335936,53.566406 40.8697922,53.5390625 40.7786459,53.5390625 L38.5911459,53.5390625 C38.4999996,53.5390625 38.4544272,53.5755205 38.4544272,53.6484375 L38.4544272,54.6875 Z M39.3841147,46.2109375 C39.2018221,46.2109375 39.0468757,46.1425788 38.9192709,46.0058594 C38.7916661,45.8691399 38.7278647,45.7096363 38.7278647,45.5273438 C38.7278647,45.472656 38.7005212,45.454427 38.6458334,45.4726562 C37.9348923,45.8372414 36.9960997,46.2473936 35.8294272,46.703125 L35.8294272,46.7441406 C35.8294272,46.7532553 35.8385416,46.7578125 35.8567709,46.7578125 L36.6497397,46.7578125 C36.6497397,46.721354 36.6679686,46.703125 36.7044272,46.703125 L49.1184897,46.703125 C49.1367189,46.703125 49.1458334,46.6985678 49.1458334,46.6894531 C49.1458334,46.6803385 49.1367189,46.6666668 49.1184897,46.6484375 C47.9335879,46.1927061 46.9401082,45.7643249 46.1380209,45.3632812 C46.0833331,45.345052 46.0559897,45.363281 46.0559897,45.4179688 C46.0559897,45.6367198 45.9785165,45.8235669 45.8235678,45.9785156 C45.6686191,46.1334643 45.4908865,46.2109375 45.2903647,46.2109375 L39.3841147,46.2109375 Z M41.0247397,44.1054688 L41.0247397,44.1601562 C41.0247397,44.1783855 41.0338541,44.1875 41.0520834,44.1875 L43.8958334,44.1875 C43.9140627,44.1875 43.9231772,44.1783855 43.9231772,44.1601562 C43.9231772,44.141927 43.9140627,44.1328125 43.8958334,44.1328125 C43.3671849,43.7864566 42.9114603,43.4674494 42.5286459,43.1757812 C42.4739581,43.1210935 42.4101567,43.1210935 42.3372397,43.1757812 C41.9544252,43.4856786 41.5169296,43.7955714 41.0247397,44.1054688 Z M48.8450522,53.6210938 C48.8632814,53.6028645 48.8678387,53.5846355 48.858724,53.5664062 C48.8496094,53.548177 48.8359377,53.5390625 48.8177084,53.5390625 L44.8802084,53.5390625 C44.8619791,53.5390625 44.8528647,53.548177 44.8528647,53.5664062 C44.8528647,53.5846355 44.8619791,53.59375 44.8802084,53.59375 C45.5000032,54.0130229 46.3020785,54.3867171 47.2864584,54.7148438 C47.3593754,54.7513023 47.4322914,54.7421878 47.5052084,54.6875 C47.833335,54.4505196 48.2799452,54.0950545 48.8450522,53.6210938 Z M38.5911459,50.9414062 C38.4999996,50.9414062 38.4544272,50.9778642 38.4544272,51.0507812 L38.4544272,51.40625 C38.4544272,51.479167 38.4999996,51.515625 38.5911459,51.515625 L46.7942709,51.515625 C46.8854172,51.515625 46.9309897,51.479167 46.9309897,51.40625 L46.9309897,51.0507812 C46.9309897,50.9778642 46.8854172,50.9414062 46.7942709,50.9414062 L38.5911459,50.9414062 Z M38.5911459,48.7265625 C38.4999996,48.7265625 38.4544272,48.7630205 38.4544272,48.8359375 L38.4544272,49.1367188 C38.4544272,49.2096358 38.4999996,49.2460938 38.5911459,49.2460938 L46.7942709,49.2460938 C46.8854172,49.2460938 46.9309897,49.2096358 46.9309897,49.1367188 L46.9309897,48.8359375 C46.9309897,48.7630205 46.8854172,48.7265625 46.7942709,48.7265625 L38.5911459,48.7265625 Z M49.5286459,35.6835938 C49.5468752,35.6653645 49.5514324,35.6471355 49.5423178,35.6289062 C49.5332031,35.610677 49.5195314,35.6015625 49.5013022,35.6015625 L45.2903647,35.6015625 C45.2721354,35.6015625 45.2630209,35.6061197 45.2630209,35.6152344 L45.2630209,35.6289062 C46.1562545,35.9934914 47.1041617,36.430987 48.1067709,36.9414062 C48.1796879,36.9778648 48.2434894,36.9687503 48.2981772,36.9140625 C48.7539086,36.5312481 49.1640607,36.1210959 49.5286459,35.6835938 Z M50.7864584,51.7617188 C50.9869802,51.5429677 51.2148425,51.5156242 51.4700522,51.6796875 L53.0559897,52.6640625 C53.2565115,52.7916673 53.3613281,52.9693999 53.3704428,53.1972656 C53.3795574,53.4251313 53.2838552,53.6119784 53.0833334,53.7578125 C52.2630168,54.359378 51.488285,54.915362 50.7591147,55.4257812 C50.7408854,55.4440105 50.7317709,55.4622395 50.7317709,55.4804688 C50.7317709,55.498698 50.7408854,55.5078125 50.7591147,55.5078125 C51.9075579,55.6718758 53.0650984,55.7812497 54.2317709,55.8359375 C54.4322927,55.8541668 54.5690101,55.9544262 54.6419272,56.1367188 C54.7148442,56.3190113 54.6966152,56.4830722 54.5872397,56.6289062 C54.3138008,57.0117207 54.040366,57.4309873 53.7669272,57.8867188 C53.475259,58.397138 53.0742214,58.6523438 52.5638022,58.6523438 L52.3723959,58.6523438 C48.7447736,58.2695293 45.8919375,57.4218816 43.8138022,56.109375 C43.7408851,56.0729165 43.7044272,56.10026 43.7044272,56.1914062 L43.7044272,56.328125 C43.7044272,56.6015639 43.6132822,56.8385407 43.4309897,57.0390625 C43.2486971,57.2395843 43.0208348,57.3489582 42.7473959,57.3671875 C41.5624941,57.476563 38.1810175,57.7682268 32.6028647,58.2421875 C32.3294258,58.2604168 32.0878917,58.1829436 31.8782553,58.0097656 C31.6686188,57.8365877 31.5455732,57.6223971 31.5091147,57.3671875 L31.3997397,56.3007812 C31.3632811,56.0273424 31.4270826,55.7903656 31.5911459,55.5898438 C31.7552092,55.3893219 31.973957,55.279948 32.2473959,55.2617188 C32.4479177,55.2434895 32.6712228,55.2298178 32.9173178,55.2207031 C33.1634128,55.2115885 33.4414048,55.1933595 33.7513022,55.1660156 C34.0611995,55.1386717 34.3164053,55.125 34.5169272,55.125 C34.5898442,55.1067707 34.6263022,55.0611983 34.6263022,54.9882812 L34.6263022,47.3046875 C34.6263022,47.2135412 34.5898442,47.1861977 34.5169272,47.2226562 C33.6966105,47.5143244 32.8125048,47.7786446 31.8645834,48.015625 C31.6093738,48.088542 31.354168,48.0657558 31.0989584,47.9472656 C30.8437488,47.8287754 30.64323,47.6419284 30.4973959,47.3867188 C30.2968741,47.0221336 30.0872407,46.6575539 29.8684897,46.2929688 C29.7955726,46.1835932 29.7591147,46.0651048 29.7591147,45.9375 C29.7591147,45.864583 29.7773436,45.7825525 29.8138022,45.6914062 C29.8867192,45.4726552 30.0325511,45.3450523 30.2513022,45.3085938 C32.1289157,44.8893208 33.9244707,44.3151078 35.6380209,43.5859375 C37.3515711,42.8567672 38.7916609,42.0638064 39.9583334,41.2070312 C40.5052111,40.8059876 41.0794241,40.6054688 41.6809897,40.6054688 L43.8684897,40.6054688 C43.9049482,40.6054688 43.9414061,40.6145832 43.9778647,40.6328125 L43.7317709,40.3046875 C43.5859368,40.1223949 43.5449216,39.9218761 43.608724,39.703125 C43.6725264,39.4843739 43.8046866,39.3476565 44.0052084,39.2929688 C44.3880228,39.1653639 44.725259,39.0286466 45.0169272,38.8828125 C45.0351564,38.8828125 45.0442709,38.8691408 45.0442709,38.8417969 C45.0442709,38.814453 45.0351564,38.7916668 45.0169272,38.7734375 C44.9075516,38.736979 44.7617197,38.6731775 44.5794272,38.5820312 L43.6497397,38.1171875 C43.4492178,38.0260412 43.3261722,37.8619804 43.280599,37.625 C43.2350259,37.3880196 43.3033846,37.1966153 43.4856772,37.0507812 L44.8802084,35.6835938 C44.8984377,35.6653645 44.9029949,35.6471355 44.8938803,35.6289062 C44.8847656,35.610677 44.8710939,35.6015625 44.8528647,35.6015625 L44.1145834,35.6015625 C43.8411445,35.6015625 43.608725,35.5058603 43.4173178,35.3144531 C43.2259106,35.1230459 43.1302084,34.8906264 43.1302084,34.6171875 L43.1302084,33.8789062 C43.1302084,33.6054674 43.2259106,33.3730478 43.4173178,33.1816406 C43.608725,32.9902334 43.8411445,32.8945312 44.1145834,32.8945312 L51.6067709,32.8945312 C51.7161464,32.876302 51.8346348,32.8671875 51.9622397,32.8671875 C52.1809907,32.8671875 52.3997386,32.91276 52.6184897,33.0039062 L53.4661459,33.3320312 C53.7213555,33.4414068 53.9036454,33.6191394 54.0130209,33.8652344 C54.1223964,34.1113294 54.1223964,34.3619779 54.0130209,34.6171875 C53.3567676,36.0755281 52.4817764,37.369786 51.3880209,38.5 C51.3151039,38.5546878 51.3151039,38.6002602 51.3880209,38.6367188 C52.4270886,39.2565135 53.3385378,39.839841 54.1223959,40.3867188 C54.341147,40.5325528 54.4596354,40.7330716 54.4778647,40.9882812 C54.4960939,41.2434909 54.4140635,41.4622387 54.2317709,41.6445312 L53.1106772,42.765625 C52.9283846,42.9661468 52.7005223,43.0709635 52.4270834,43.0800781 C52.1536445,43.0891928 51.9075532,43.0117196 51.6888022,42.8476562 C50.8684855,42.2278615 49.8476624,41.5442746 48.6263022,40.796875 C48.5533851,40.7604165 48.4804692,40.7604165 48.4075522,40.796875 C47.6783818,41.2343772 46.90365,41.6080714 46.0833334,41.9179688 C46.0651041,41.936198 46.0559897,41.9589842 46.0559897,41.9863281 C46.0559897,42.013672 46.0651041,42.0273438 46.0833334,42.0273438 C48.598971,43.4856844 51.542952,44.5065075 54.9153647,45.0898438 C55.1341157,45.1263023 55.2799476,45.2447907 55.3528647,45.4453125 C55.3893232,45.5182295 55.4075522,45.5911455 55.4075522,45.6640625 C55.4075522,45.7916673 55.3710942,45.9101557 55.2981772,46.0195312 C55.0429675,46.3841164 54.7695328,46.8124975 54.4778647,47.3046875 C54.3320306,47.5598971 54.1269545,47.7467442 53.8626303,47.8652344 C53.598306,47.9837246 53.3294285,48.0065108 53.0559897,47.9335938 C52.3085901,47.7330719 51.5794307,47.5143241 50.8684897,47.2773438 C50.7955726,47.2408852 50.7591147,47.2682287 50.7591147,47.359375 L50.7591147,51.734375 C50.7591147,51.7526043 50.7682291,51.7617188 50.7864584,51.7617188 Z M63.2643231,36.9140625 C63.1731768,36.9140625 63.1276043,36.9505205 63.1276043,37.0234375 L63.1276043,42.3828125 C63.1276043,49.1640964 62.4257884,54.3137845 61.0221356,57.8320312 C60.9309893,58.0507823 60.7714856,58.1829425 60.5436199,58.2285156 C60.3157542,58.2740888 60.1106781,58.2239591 59.9283856,58.078125 C59.4361956,57.6770813 58.925784,57.3125016 58.3971356,56.984375 C58.1783845,56.8385409 58.0234381,56.6380221 57.9322918,56.3828125 C57.877604,56.2552077 57.8502606,56.1276048 57.8502606,56 C57.8502606,55.8723952 57.877604,55.7447923 57.9322918,55.6171875 C58.3880232,54.3958272 58.7389312,52.9238367 58.9850262,51.2011719 C59.2311212,49.478507 59.376953,48.0019593 59.4225262,46.7714844 C59.4680993,45.5410095 59.4908856,44.087248 59.4908856,42.4101562 L59.4908856,34.78125 C59.4908856,34.5260404 59.5865877,34.3027353 59.7779949,34.1113281 C59.9694021,33.9199209 60.1927072,33.8242188 60.4479168,33.8242188 L69.8268231,33.8242188 C69.9179693,33.8242188 69.9635418,33.7786463 69.9635418,33.6875 L69.9635418,33.03125 C69.9635418,32.7578111 70.059244,32.5253916 70.2506512,32.3339844 C70.4420584,32.1425772 70.6653634,32.046875 70.9205731,32.046875 L73.2447918,32.046875 C73.5182307,32.046875 73.7506502,32.1425772 73.9420574,32.3339844 C74.1334646,32.5253916 74.2291668,32.7578111 74.2291668,33.03125 L74.2291668,33.6875 C74.2291668,33.7786463 74.2656248,33.8242188 74.3385418,33.8242188 L83.1158856,33.8242188 C83.3710952,33.8242188 83.5944002,33.9199209 83.7858074,34.1113281 C83.9772146,34.3027353 84.0729168,34.5260404 84.0729168,34.78125 L84.0729168,35.9296875 C84.0729168,36.2031264 83.9772146,36.4355459 83.7858074,36.6269531 C83.5944002,36.8183603 83.3710952,36.9140625 83.1158856,36.9140625 L63.2643231,36.9140625 Z M80.5182293,43.96875 C80.4453123,43.96875 80.4088543,44.005208 80.4088543,44.078125 L80.4088543,45.1992188 C80.4088543,45.290365 80.4453123,45.3359375 80.5182293,45.3359375 L81.0377606,45.3359375 C81.1289068,45.3359375 81.1744793,45.290365 81.1744793,45.1992188 L81.1744793,44.078125 C81.1744793,44.005208 81.1289068,43.96875 81.0377606,43.96875 L80.5182293,43.96875 Z M78.3033856,45.3359375 C78.3763026,45.3359375 78.4127606,45.290365 78.4127606,45.1992188 L78.4127606,44.078125 C78.4127606,44.005208 78.3763026,43.96875 78.3033856,43.96875 L77.8111981,43.96875 C77.738281,43.96875 77.7018231,44.005208 77.7018231,44.078125 L77.7018231,45.1992188 C77.7018231,45.290365 77.738281,45.3359375 77.8111981,45.3359375 L78.3033856,45.3359375 Z M75.5690106,45.3359375 C75.6601568,45.3359375 75.7057293,45.290365 75.7057293,45.1992188 L75.7057293,44.078125 C75.7057293,44.005208 75.6601568,43.96875 75.5690106,43.96875 L75.1315106,43.96875 C75.0403643,43.96875 74.9947918,44.005208 74.9947918,44.078125 L74.9947918,45.1992188 C74.9947918,45.290365 75.0403643,45.3359375 75.1315106,45.3359375 L75.5690106,45.3359375 Z M83.7174481,40.03125 C83.7174481,40.2864596 83.6217459,40.5097647 83.4303387,40.7011719 C83.2389315,40.8925791 83.0065119,40.9882812 82.7330731,40.9882812 L79.8072918,40.9882812 C79.7161455,40.9882812 79.6705731,41.0338537 79.6705731,41.125 L79.6705731,41.671875 C79.6705731,41.7630213 79.7161455,41.8085938 79.8072918,41.8085938 L82.5963543,41.8085938 C82.8697932,41.8085938 83.1022127,41.9042959 83.2936199,42.0957031 C83.4850271,42.2871103 83.5807293,42.5104154 83.5807293,42.765625 L83.5807293,46.5390625 C83.5807293,46.8125014 83.4850271,47.0449209 83.2936199,47.2363281 C83.1022127,47.4277353 82.8697932,47.5234375 82.5963543,47.5234375 L73.6822918,47.5234375 C73.4088529,47.5234375 73.1764334,47.4277353 72.9850262,47.2363281 C72.793619,47.0449209 72.6979168,46.8125014 72.6979168,46.5390625 L72.6979168,42.765625 C72.6979168,42.5104154 72.793619,42.2871103 72.9850262,42.0957031 C73.1764334,41.9042959 73.4088529,41.8085938 73.6822918,41.8085938 L76.1705731,41.8085938 C76.2434901,41.8085938 76.2799481,41.7630213 76.2799481,41.671875 L76.2799481,41.125 C76.2799481,41.0338537 76.2434901,40.9882812 76.1705731,40.9882812 L73.5729168,40.9882812 C73.2994779,40.9882812 73.0670584,40.8925791 72.8756512,40.7011719 C72.684244,40.5097647 72.5885418,40.2864596 72.5885418,40.03125 L72.5885418,39.265625 C72.5885418,39.0104154 72.684244,38.7871103 72.8756512,38.5957031 C73.0670584,38.4042959 73.2994779,38.3085938 73.5729168,38.3085938 L76.1705731,38.3085938 C76.2434901,38.3085938 76.2799481,38.2721358 76.2799481,38.1992188 C76.2799481,37.9440091 76.371093,37.7298186 76.5533856,37.5566406 C76.7356781,37.3834627 76.9453114,37.296875 77.1822918,37.296875 L78.7955731,37.296875 C79.0325534,37.296875 79.2376295,37.3834627 79.4108074,37.5566406 C79.5839854,37.7298186 79.6705731,37.9440091 79.6705731,38.1992188 C79.6705731,38.2721358 79.707031,38.3085938 79.7799481,38.3085938 L82.7330731,38.3085938 C83.0065119,38.3085938 83.2389315,38.4042959 83.4303387,38.5957031 C83.6217459,38.7871103 83.7174481,39.0104154 83.7174481,39.265625 L83.7174481,40.03125 Z M66.9010418,55.234375 C66.9010418,55.307292 66.9466143,55.34375 67.0377606,55.34375 L67.1744793,55.34375 C67.4296889,55.3255207 67.6575512,55.4029939 67.8580731,55.5761719 C68.0585949,55.7493498 68.1588543,55.9726549 68.1588543,56.2460938 L68.1861981,56.5742188 C68.1861981,56.8476576 68.0950531,57.0846344 67.9127606,57.2851562 C67.730468,57.4856781 67.5026057,57.6041665 67.2291668,57.640625 C66.0078065,57.7500005 64.7955791,57.8593745 63.592448,57.96875 C63.3190092,57.9869793 63.0820324,57.9095061 62.8815105,57.7363281 C62.6809887,57.5631502 62.5625003,57.3398451 62.5260418,57.0664062 L62.4713543,56.5742188 C62.453125,56.3190091 62.526041,56.0911468 62.6901043,55.890625 C62.8541676,55.6901032 63.0729154,55.5807293 63.3463543,55.5625 L64.3580731,55.5078125 C64.4309901,55.5078125 64.4674481,55.46224 64.4674481,55.3710938 L64.4674481,54.6601562 C64.4674481,54.5872392 64.4309901,54.5507812 64.3580731,54.5507812 L64.1666668,54.5507812 C63.8932279,54.5507812 63.6608084,54.4550791 63.4694012,54.2636719 C63.277994,54.0722647 63.1822918,53.8398451 63.1822918,53.5664062 L63.1822918,53.4296875 C63.1822918,53.1744779 63.277994,52.9511728 63.4694012,52.7597656 C63.6608084,52.5683584 63.8932279,52.4726562 64.1666668,52.4726562 L64.3580731,52.4726562 C64.4309901,52.4726562 64.4674481,52.4270838 64.4674481,52.3359375 L64.4674481,51.734375 C64.4674481,51.6432287 64.4309901,51.5976562 64.3580731,51.5976562 L64.1666668,51.5976562 C63.8932279,51.5976562 63.6608084,51.5019541 63.4694012,51.3105469 C63.277994,51.1191397 63.1822918,50.8958346 63.1822918,50.640625 L63.1822918,50.421875 C63.1822918,50.1484361 63.277994,49.9160166 63.4694012,49.7246094 C63.6608084,49.5332022 63.8932279,49.4375 64.1666668,49.4375 L67.1471356,49.4375 C67.4205744,49.4375 67.6484367,49.5332022 67.8307293,49.7246094 C68.0130219,49.9160166 68.1041668,50.1484361 68.1041668,50.421875 L68.1041668,50.640625 C68.1041668,50.8958346 68.0130219,51.1191397 67.8307293,51.3105469 C67.6484367,51.5019541 67.4205744,51.5976562 67.1471356,51.5976562 L67.0377606,51.5976562 C66.9466143,51.5976562 66.9010418,51.6432287 66.9010418,51.734375 L66.9010418,52.3359375 C66.9010418,52.4270838 66.9466143,52.4726562 67.0377606,52.4726562 L67.1471356,52.4726562 C67.4205744,52.4726562 67.6484367,52.5683584 67.8307293,52.7597656 C68.0130219,52.9511728 68.1041668,53.1744779 68.1041668,53.4296875 L68.1041668,53.5664062 C68.1041668,53.8398451 68.0130219,54.0722647 67.8307293,54.2636719 C67.6484367,54.4550791 67.4205744,54.5507812 67.1471356,54.5507812 L67.0377606,54.5507812 C66.9466143,54.5507812 66.9010418,54.5872392 66.9010418,54.6601562 L66.9010418,55.234375 Z M67.1197918,46.0195312 C67.1197918,46.1106775 67.1562498,46.1471355 67.2291668,46.1289062 L68.4322918,46.1015625 C68.5234381,46.1015625 68.5690106,46.05599 68.5690106,45.9648438 L68.5690106,45.5273438 C68.5690106,45.4544267 68.5234381,45.4179688 68.4322918,45.4179688 L67.2291668,45.4179688 C67.1562498,45.4179688 67.1197918,45.4544267 67.1197918,45.5273438 L67.1197918,46.0195312 Z M68.5690106,40.4140625 C68.5690106,40.3411455 68.5234381,40.3046875 68.4322918,40.3046875 L67.2291668,40.3046875 C67.1562498,40.3046875 67.1197918,40.3411455 67.1197918,40.4140625 L67.1197918,40.8242188 C67.1197918,40.8971358 67.1562498,40.9335938 67.2291668,40.9335938 L68.4322918,40.9335938 C68.5234381,40.9335938 68.5690106,40.8971358 68.5690106,40.8242188 L68.5690106,40.4140625 Z M67.2291668,42.8203125 C67.1562498,42.8203125 67.1197918,42.8567705 67.1197918,42.9296875 L67.1197918,43.421875 C67.1197918,43.494792 67.1562498,43.53125 67.2291668,43.53125 L68.4322918,43.53125 C68.5234381,43.53125 68.5690106,43.494792 68.5690106,43.421875 L68.5690106,42.9296875 C68.5690106,42.8567705 68.5234381,42.8203125 68.4322918,42.8203125 L67.2291668,42.8203125 Z M71.6041668,40.3046875 C71.5312498,40.3046875 71.4947918,40.332031 71.4947918,40.3867188 L71.4947918,56.0273438 L71.5221356,56.0410156 C71.5403648,56.0501303 71.5494793,56.045573 71.5494793,56.0273438 C71.8776059,55.2252564 72.1236972,54.2864637 72.2877606,53.2109375 C72.3242191,52.9557279 72.4472647,52.7597663 72.6569012,52.6230469 C72.8665376,52.4863274 73.0898427,52.4453122 73.3268231,52.5 L73.9557293,52.6914062 C74.2291682,52.7643233 74.4433587,52.9192696 74.5983074,53.15625 C74.7532561,53.3932304 74.8125003,53.6484361 74.7760418,53.921875 C74.6119785,55.197923 74.3750017,56.2187462 74.0651043,56.984375 C73.973958,57.2395846 73.7962254,57.4082027 73.5319012,57.4902344 C73.2675769,57.572266 73.0078139,57.5585943 72.7526043,57.4492188 L71.6041668,56.9296875 C71.5312498,56.893229 71.4947918,56.911458 71.4947918,56.984375 L71.4947918,57.6679688 C71.4947918,57.9231784 71.3990896,58.1464834 71.2076824,58.3378906 C71.0162752,58.5292978 70.7929702,58.625 70.5377606,58.625 L69.5260418,58.625 C69.2708322,58.625 69.0475271,58.5292978 68.8561199,58.3378906 C68.6647127,58.1464834 68.5690106,57.9231784 68.5690106,57.6679688 L68.5690106,48.78125 C68.5690106,48.708333 68.5234381,48.671875 68.4322918,48.671875 C66.8463464,48.7630213 65.488287,48.8541662 64.3580731,48.9453125 C64.0846342,48.9635418 63.8476574,48.8815113 63.6471356,48.6992188 C63.4466137,48.5169262 63.3372398,48.2981784 63.3190106,48.0429688 L63.2643231,47.25 C63.2460938,46.9947904 63.323567,46.7669281 63.4967449,46.5664062 C63.6699229,46.3658844 63.8932279,46.265625 64.1666668,46.265625 L64.2213543,46.265625 C64.2942713,46.265625 64.3307293,46.2200525 64.3307293,46.1289062 L64.3307293,40.3867188 C64.3307293,40.332031 64.3033858,40.3046875 64.2486981,40.3046875 C64.0481762,40.3046875 63.8795581,40.2363288 63.7428387,40.0996094 C63.6061192,39.9628899 63.5377606,39.7942718 63.5377606,39.59375 L63.5377606,38.828125 C63.5377606,38.5546861 63.6334627,38.3222666 63.8248699,38.1308594 C64.0162771,37.9394522 64.2486967,37.84375 64.5221356,37.84375 L71.4401043,37.84375 C71.6953139,37.84375 71.918619,37.9394522 72.1100262,38.1308594 C72.3014334,38.3222666 72.3971356,38.5546861 72.3971356,38.828125 L72.3971356,39.484375 C72.3971356,39.7031261 72.3196624,39.8945304 72.1647137,40.0585938 C72.009765,40.2226571 71.8229179,40.3046875 71.6041668,40.3046875 Z M84.5104168,55.8359375 C84.5286461,55.9270838 84.5377606,56.0182287 84.5377606,56.109375 C84.5377606,56.2734383 84.5013026,56.4374992 84.4283856,56.6015625 C84.2825515,56.8567721 84.0729182,57.0299475 83.7994793,57.1210938 L82.9791668,57.421875 C82.7421864,57.5130213 82.5143241,57.4947923 82.2955731,57.3671875 C82.076822,57.2395827 81.9401046,57.0572929 81.8854168,56.8203125 C81.7942705,56.4557273 81.6757821,56.0820332 81.5299481,55.6992188 C81.5299481,55.6809895 81.5208336,55.671875 81.5026043,55.671875 C81.484375,55.671875 81.4752606,55.6809895 81.4752606,55.6992188 C81.3294265,56.774745 81.0696635,57.5084616 80.6959637,57.9003906 C80.3222639,58.2923197 79.7708371,58.4882812 79.0416668,58.4882812 L77.7291668,58.4882812 C76.6900991,58.4882812 76.0019549,58.2740907 75.6647137,57.8457031 C75.3274724,57.4173156 75.1588543,56.6015685 75.1588543,55.3984375 L75.1588543,53.3203125 C75.1588543,53.0651029 75.2545565,52.8417978 75.4459637,52.6503906 C75.6373709,52.4589834 75.8697904,52.3632812 76.1432293,52.3632812 L76.9635418,52.3632812 C76.9817711,52.3632812 76.9908856,52.3541668 76.9908856,52.3359375 C76.9908856,52.3177082 76.9817711,52.2994793 76.9635418,52.28125 C76.76302,52.1536452 76.5442722,52.0260423 76.3072918,51.8984375 C76.1249992,51.789062 76.0156253,51.6295583 75.9791668,51.4199219 C75.9427083,51.2102854 75.9973952,51.0325528 76.1432293,50.8867188 C76.1614586,50.8867188 76.1660158,50.8776043 76.1569012,50.859375 C76.1477865,50.8411457 76.1341148,50.8320312 76.1158856,50.8320312 L73.1627606,50.8320312 C72.9075509,50.8320312 72.6842459,50.7363291 72.4928387,50.5449219 C72.3014315,50.3535147 72.2057293,50.1210951 72.2057293,49.8476562 L72.2057293,49.1640625 C72.2057293,48.8906236 72.3014315,48.6582041 72.4928387,48.4667969 C72.6842459,48.2753897 72.9075509,48.1796875 73.1627606,48.1796875 L83.3619793,48.1796875 C83.6171889,48.1796875 83.840494,48.2753897 84.0319012,48.4667969 C84.2233084,48.6582041 84.3190106,48.8906236 84.3190106,49.1640625 L84.3190106,49.8476562 C84.3190106,50.1210951 84.2233084,50.3535147 84.0319012,50.5449219 C83.840494,50.7363291 83.6171889,50.8320312 83.3619793,50.8320312 L79.5885418,50.8320312 C79.5703125,50.8320312 79.5566408,50.8365885 79.5475262,50.8457031 C79.5384115,50.8548178 79.5429688,50.8684895 79.5611981,50.8867188 C79.7252614,50.9960943 79.8802077,51.0963537 80.0260418,51.1875 C80.2265636,51.3333341 80.3359375,51.5429674 80.3541668,51.8164062 C80.3723961,52.0898451 80.2812511,52.3177074 80.0807293,52.5 L79.5338543,53.0742188 C79.3515617,53.2565113 79.1282567,53.3522135 78.8639324,53.3613281 C78.5996082,53.3704428 78.3580741,53.2838551 78.1393231,53.1015625 C78.1028645,53.0833332 78.0664066,53.0559898 78.0299481,53.0195312 C77.9752603,52.9648435 77.9479168,52.9830725 77.9479168,53.0742188 L77.9479168,55.3710938 C77.9479168,55.6809911 77.9615885,55.8678382 77.9889324,55.9316406 C78.0162763,55.995443 78.0937495,56.0273438 78.2213543,56.0273438 L78.6588543,56.0273438 C78.7864591,56.0273438 78.877604,55.977214 78.9322918,55.8769531 C78.9869796,55.7766922 79.032552,55.5625016 79.0690106,55.234375 C79.0872398,55.0156239 79.1920565,54.8561203 79.3834637,54.7558594 C79.5748709,54.6555985 79.7708325,54.6510412 79.9713543,54.7421875 C80.372398,54.9244801 80.7916646,55.0794264 81.2291668,55.2070312 C81.2656253,55.2252605 81.2929688,55.2207033 81.3111981,55.1933594 C81.3294273,55.1660155 81.3294273,55.1432293 81.3111981,55.125 C81.165364,54.6692686 80.9739597,54.195315 80.7369793,53.703125 C80.6276038,53.4661446 80.6184893,53.2291679 80.7096356,52.9921875 C80.8007818,52.7552071 80.9648427,52.5911463 81.2018231,52.5 L81.8854168,52.28125 C82.1406264,52.1718745 82.4003894,52.1673172 82.6647137,52.2675781 C82.9290379,52.367839 83.1249995,52.5455716 83.2526043,52.8007812 C83.8177113,53.8763075 84.2369779,54.8880161 84.5104168,55.8359375 Z" id="找餐廳" fill="#FDEEBE"></path>
                </g>
            </g>
        </g>
    </g>
</svg>