<?xml version="1.0" encoding="UTF-8"?>
<svg width="117px" height="66px" viewBox="0 0 117 66" version="1.1" xmlns="http://www.w3.org/2000/svg" xmlns:xlink="http://www.w3.org/1999/xlink">
    <!-- Generator: Sketch 54.1 (76490) - https://sketchapp.com -->
    <title>fixBtn_1</title>
    <desc>Created with Sketch.</desc>
    <g id="Page-1" stroke="none" stroke-width="1" fill="none" fill-rule="evenodd">
        <g id="2-copy-2" transform="translate(-391.000000, -1101.000000)">
            <g id="fixBtn_1" transform="translate(391.000000, 1101.000000)">
                <rect id="Rectangle" x="0" y="0" width="117" height="64"></rect>
                <g id="Group-8" transform="translate(16.000000, 1.000000)" fill-rule="nonzero">
                    <path d="M16.6953125,26 C16.4765614,26 16.2851571,25.9179696 16.1210938,25.7539062 C15.9570304,25.5898429 15.875,25.3906262 15.875,25.15625 L15.875,23.375 C15.875,23.140625 15.9570304,22.9453133 16.1210938,22.7890625 C16.2851571,22.6328117 16.4765614,22.5546875 16.6953125,22.5546875 L19.5546875,22.5546875 C19.6328129,22.5546875 19.671875,22.5156254 19.671875,22.4375 L19.671875,12.5 C19.671875,12.4218746 19.6328129,12.3828125 19.5546875,12.3828125 L17.2109375,12.3828125 C16.9765613,12.3828125 16.7773446,12.3046883 16.6132812,12.1484375 C16.4492179,11.9921867 16.3671875,11.7968762 16.3671875,11.5625 L16.3671875,10.578125 C16.3671875,10.3437488 16.4453117,10.1328134 16.6015625,9.9453125 C16.7578133,9.75781156 16.9531238,9.64062523 17.1875,9.59375 C18.2656304,9.34374875 19.2265583,9.00000219 20.0703125,8.5625 C20.6015652,8.28124859 21.117185,8.140625 21.6171875,8.140625 L23.09375,8.140625 C23.3281262,8.140625 23.5273429,8.22265543 23.6914062,8.38671875 C23.8554696,8.55078207 23.9375,8.74999883 23.9375,8.984375 L23.9375,22.4375 C23.9375,22.5156254 23.9687497,22.5546875 24.03125,22.5546875 L26.328125,22.5546875 C26.5468761,22.5546875 26.7382804,22.6328117 26.9023438,22.7890625 C27.0664071,22.9453133 27.1484375,23.1406238 27.1484375,23.375 L27.1484375,25.15625 C27.1484375,25.3906262 27.0664071,25.5898429 26.9023438,25.7539062 C26.7382804,25.9179696 26.5468761,26 26.328125,26 L16.6953125,26 Z M41.0078126,23.9140625 C39.8671819,25.5234455 38.332041,26.328125 36.4023439,26.328125 C34.4726467,26.328125 32.9375058,25.5195393 31.7968751,23.9023438 C30.6562444,22.2851482 30.0859376,19.9765775 30.0859376,16.9765625 C30.0859376,13.9765475 30.6523382,11.6992265 31.7851564,10.1445312 C32.9179745,8.58983598 34.4531154,7.8125 36.3906251,7.8125 C38.3281348,7.8125 39.8710881,8.5976484 41.0195314,10.1679688 C42.1679746,11.7382891 42.7421876,14.0077977 42.7421876,16.9765625 C42.7421876,19.9765775 42.1640684,22.2890544 41.0078126,23.9140625 Z M35.4765626,22.765625 C35.7421889,22.9375009 36.0468734,23.0234375 36.3906251,23.0234375 C36.7343768,23.0234375 37.0351551,22.9335946 37.2929689,22.7539062 C37.5507826,22.5742179 37.7929677,22.2695334 38.0195314,21.8398438 C38.246095,21.4101541 38.4179683,20.7890666 38.5351564,19.9765625 C38.6523444,19.1640584 38.7109376,18.1640684 38.7109376,16.9765625 C38.7109376,15.8046816 38.6523444,14.8164103 38.5351564,14.0117188 C38.4179683,13.2070272 38.246095,12.6015645 38.0195314,12.1953125 C37.7929677,11.7890605 37.5507826,11.5039071 37.2929689,11.3398438 C37.0351551,11.1757804 36.7343768,11.09375 36.3906251,11.09375 C36.0468734,11.09375 35.7500014,11.1757804 35.5000001,11.3398438 C35.2499988,11.5039071 35.0156262,11.7890605 34.7968751,12.1953125 C34.578124,12.6015645 34.4101569,13.2070272 34.2929689,14.0117188 C34.1757808,14.8164103 34.1171876,15.8046816 34.1171876,16.9765625 C34.1171876,18.1640684 34.1757808,19.1640584 34.2929689,19.9765625 C34.4101569,20.7890666 34.5742178,21.4101541 34.7851564,21.8398438 C34.9960949,22.2695334 35.2265613,22.5781241 35.4765626,22.765625 Z M49.2421877,6.359375 C49.3203131,6.14062391 49.4648429,5.98046926 49.6757815,5.87890625 C49.88672,5.77734324 50.1015616,5.75781219 50.3203127,5.8203125 L52.0312502,6.359375 C52.2500013,6.42187531 52.4062497,6.55468648 52.5000002,6.7578125 C52.5937507,6.96093852 52.6015631,7.17187391 52.5234377,7.390625 C51.97656,8.73438172 51.3671911,10.0468686 50.6953127,11.328125 C50.6484375,11.3906253 50.6250002,11.4609371 50.6250002,11.5390625 L50.6250002,27.4296875 C50.6250002,27.6484386 50.546876,27.8398429 50.3906252,28.0039062 C50.2343744,28.1679696 50.0390639,28.25 49.8046877,28.25 L48.1640627,28.25 C47.9296865,28.25 47.7304698,28.1679696 47.5664065,28.0039062 C47.4023431,27.8398429 47.3203127,27.6484386 47.3203127,27.4296875 L47.3203127,16.6953125 C47.3203127,16.6796874 47.3125003,16.6679688 47.2968752,16.6601562 C47.2812501,16.6523437 47.2656253,16.6562499 47.2500002,16.671875 C47.0937494,16.875001 46.9062513,17.0937488 46.6875002,17.328125 C46.5624996,17.4843758 46.4062511,17.5429689 46.2187502,17.5039062 C46.0312493,17.4648436 45.9062505,17.3593759 45.8437502,17.1875 C45.4999985,16.4062461 45.1328147,15.6796909 44.7421877,15.0078125 C44.6484372,14.8359366 44.6015627,14.6484385 44.6015627,14.4453125 L44.6015627,14.328125 C44.6328129,14.0781237 44.7265619,13.8593759 44.8828127,13.671875 C46.6796967,11.6562399 48.1328072,9.2187643 49.2421877,6.359375 Z M62.8359377,21.7578125 C62.8359377,21.6953122 62.7968756,21.6640625 62.7187502,21.6640625 L56.9296877,21.6640625 C56.8671874,21.6640625 56.8359377,21.6953122 56.8359377,21.7578125 L56.8359377,24.0078125 C56.8359377,24.0703128 56.8671874,24.1015625 56.9296877,24.1015625 L62.7187502,24.1015625 C62.7968756,24.1015625 62.8359377,24.0703128 62.8359377,24.0078125 L62.8359377,21.7578125 Z M54.2578127,28.25 C54.0234365,28.25 53.8242198,28.1679696 53.6601565,28.0039062 C53.4960931,27.8398429 53.4140627,27.6484386 53.4140627,27.4296875 L53.4140627,19.34375 C53.4140627,19.1093738 53.4960931,18.9140633 53.6601565,18.7578125 C53.8242198,18.6015617 54.0234365,18.5234375 54.2578127,18.5234375 L65.5781252,18.5234375 C65.7968763,18.5234375 65.9882806,18.6015617 66.152344,18.7578125 C66.3164073,18.9140633 66.3984377,19.1093738 66.3984377,19.34375 L66.3984377,27.3359375 C66.3984377,27.5546886 66.3164073,27.7460929 66.152344,27.9101562 C65.9882806,28.0742196 65.7968763,28.15625 65.5781252,28.15625 L63.5625002,28.15625 C63.3593742,28.15625 63.1875009,28.0859382 63.0468752,27.9453125 C62.9062495,27.8046868 62.8359377,27.6250011 62.8359377,27.40625 C62.8359377,27.3437497 62.804688,27.3125 62.7421877,27.3125 L56.9296877,27.3125 C56.8671874,27.3125 56.8359377,27.3515621 56.8359377,27.4296875 C56.8359377,27.6484386 56.7539073,27.8398429 56.589844,28.0039062 C56.4257806,28.1679696 56.2265639,28.25 55.9921877,28.25 L54.2578127,28.25 Z M61.7578127,10.9296875 C61.7734378,10.8671872 61.7421881,10.8359375 61.6640627,10.8359375 L57.5625002,10.8359375 C57.4843748,10.8359375 57.4609375,10.8671872 57.4921877,10.9296875 C57.8046893,11.6796913 58.0390619,12.3984341 58.1953127,13.0859375 C58.2265629,13.2578134 58.1953132,13.4140618 58.1015627,13.5546875 C58.0078122,13.6953132 57.8750011,13.7890623 57.7031252,13.8359375 C57.6875001,13.8359375 57.6835939,13.8398437 57.6914065,13.8476562 L57.7031252,13.859375 L61.4531252,13.859375 L61.4531252,13.8359375 C61.3124995,13.8203124 61.2031256,13.7460944 61.1250002,13.6132812 C61.0468748,13.4804681 61.03125,13.3359383 61.0781252,13.1796875 C61.3593766,12.3984336 61.5859368,11.6484411 61.7578127,10.9296875 Z M64.2187502,13.765625 C64.1875,13.8281253 64.2031249,13.859375 64.2656252,13.859375 L66.8671877,13.859375 C67.1015639,13.859375 67.2968744,13.9414054 67.4531252,14.1054688 C67.609376,14.2695321 67.6875002,14.4609364 67.6875002,14.6796875 L67.6875002,16.2265625 C67.6875002,16.4453136 67.609376,16.6367179 67.4531252,16.8007812 C67.2968744,16.9648446 67.1015639,17.046875 66.8671877,17.046875 L52.4296877,17.046875 C52.1953115,17.046875 51.9960948,16.9648446 51.8320315,16.8007812 C51.6679681,16.6367179 51.5859377,16.4453136 51.5859377,16.2265625 L51.5859377,14.6796875 C51.5859377,14.4609364 51.6679681,14.2695321 51.8320315,14.1054688 C51.9960948,13.9414054 52.1953115,13.859375 52.4296877,13.859375 L54.8906252,13.859375 C54.9687506,13.859375 55.0000003,13.8203129 54.9843752,13.7421875 C54.8437495,13.1015593 54.6640638,12.4375034 54.4453127,11.75 C54.3828124,11.546874 54.3984372,11.3593759 54.4921877,11.1875 C54.5859377,11.015625 54.7343742,10.9062502 54.9375002,10.859375 L54.9375002,10.8359375 L53.2500002,10.8359375 C53.015624,10.8359375 52.8164073,10.7539071 52.652344,10.5898438 C52.4882806,10.4257804 52.4062502,10.2265637 52.4062502,9.9921875 L52.4062502,8.5390625 C52.4062502,8.32031141 52.4882806,8.12890707 52.652344,7.96484375 C52.8164073,7.80078043 53.015624,7.71875 53.2500002,7.71875 L57.7734377,7.71875 C57.8515631,7.71875 57.8906252,7.67968789 57.8906252,7.6015625 L57.8906252,6.3359375 C57.8906252,6.10156133 57.9687494,5.90625078 58.1250002,5.75 C58.281251,5.59374922 58.4765615,5.515625 58.7109377,5.515625 L60.6328127,5.515625 C60.8515638,5.515625 61.0429681,5.59374922 61.2070315,5.75 C61.3710948,5.90625078 61.4531252,6.10156133 61.4531252,6.3359375 L61.4531252,7.6015625 C61.4531252,7.67968789 61.4921873,7.71875 61.5703127,7.71875 L66.3984377,7.71875 C66.6171888,7.71875 66.8085931,7.80078043 66.9726565,7.96484375 C67.1367198,8.12890707 67.2187502,8.32031141 67.2187502,8.5390625 L67.2187502,9.9921875 C67.2187502,10.2265637 67.1367198,10.4257804 66.9726565,10.5898438 C66.8085931,10.7539071 66.6171888,10.8359375 66.3984377,10.8359375 L64.2656252,10.8359375 L64.2656252,10.859375 L64.5000002,10.8828125 C64.7187513,10.9140627 64.8789059,11.0234366 64.980469,11.2109375 C65.082032,11.3984384 65.0937506,11.593749 65.0156252,11.796875 C64.6562484,12.7187546 64.3906261,13.374998 64.2187502,13.765625 Z" id="10倍" fill="#FFFFFF"></path>
                    <path d="M17.3632812,47.7421875 C17.3632812,47.8151045 17.3997392,47.8515625 17.4726562,47.8515625 L18.3203125,47.8515625 C18.4114588,47.8515625 18.4570312,47.8151045 18.4570312,47.7421875 L18.4570312,47.03125 C18.4570312,46.9401037 18.4114588,46.8945312 18.3203125,46.8945312 L17.4726562,46.8945312 C17.3997392,46.8945312 17.3632812,46.9401037 17.3632812,47.03125 L17.3632812,47.7421875 Z M17.4726562,43.3671875 C17.3997392,43.3671875 17.3632812,43.41276 17.3632812,43.5039062 L17.3632812,44.1328125 C17.3632812,44.2239588 17.3997392,44.2695312 17.4726562,44.2695312 L18.3203125,44.2695312 C18.4114588,44.2695312 18.4570312,44.2239588 18.4570312,44.1328125 L18.4570312,43.5039062 C18.4570312,43.41276 18.4114588,43.3671875 18.3203125,43.3671875 L17.4726562,43.3671875 Z M17.4726562,39.7578125 C17.3997392,39.7578125 17.3632812,39.803385 17.3632812,39.8945312 L17.3632812,40.4140625 C17.3632812,40.5052088 17.3997392,40.5507812 17.4726562,40.5507812 L18.3203125,40.5507812 C18.4114588,40.5507812 18.4570312,40.5052088 18.4570312,40.4140625 L18.4570312,39.8945312 C18.4570312,39.803385 18.4114588,39.7578125 18.3203125,39.7578125 L17.4726562,39.7578125 Z M22.859375,43.5039062 C22.859375,43.41276 22.8138025,43.3671875 22.7226562,43.3671875 L21.9570312,43.3671875 C21.8841142,43.3671875 21.8476562,43.41276 21.8476562,43.5039062 L21.8476562,44.1328125 C21.8476562,44.2239588 21.8841142,44.2695312 21.9570312,44.2695312 L22.7226562,44.2695312 C22.8138025,44.2695312 22.859375,44.2239588 22.859375,44.1328125 L22.859375,43.5039062 Z M21.8476562,47.7421875 C21.8476562,47.8151045 21.8841142,47.8515625 21.9570312,47.8515625 L22.7226562,47.8515625 C22.8138025,47.8515625 22.859375,47.8151045 22.859375,47.7421875 L22.859375,47.03125 C22.859375,46.9401037 22.8138025,46.8945312 22.7226562,46.8945312 L21.9570312,46.8945312 C21.8841142,46.8945312 21.8476562,46.9401037 21.8476562,47.03125 L21.8476562,47.7421875 Z M6.75390625,52.5546875 L6.75390625,52.5683594 C6.75390625,52.577474 6.76302074,52.5820312 6.78125,52.5820312 L9.10546875,51.5703125 L9.10546875,51.5429688 C9.10546875,51.5247395 9.09635426,51.515625 9.078125,51.515625 L3.5546875,51.515625 L3.5546875,51.5429688 L6.58984375,52.28125 C6.75390707,52.3177085 6.80859402,52.4088534 6.75390625,52.5546875 Z M5.55078125,46.265625 C5.47786422,46.265625 5.44140625,46.302083 5.44140625,46.375 L5.44140625,48.2070312 C5.44140625,48.2799483 5.47786422,48.3164062 5.55078125,48.3164062 L7.2734375,48.3164062 C7.34635453,48.3164062 7.3828125,48.2799483 7.3828125,48.2070312 L7.3828125,46.375 C7.3828125,46.302083 7.34635453,46.265625 7.2734375,46.265625 L5.55078125,46.265625 Z M5.55078125,41.2617188 C5.47786422,41.2617188 5.44140625,41.3072912 5.44140625,41.3984375 L5.44140625,43.203125 C5.44140625,43.276042 5.47786422,43.3125 5.55078125,43.3125 L7.2734375,43.3125 C7.34635453,43.3125 7.3828125,43.276042 7.3828125,43.203125 L7.3828125,41.3984375 C7.3828125,41.3072912 7.34635453,41.2617188 7.2734375,41.2617188 L5.55078125,41.2617188 Z M5.55078125,36.2851562 C5.47786422,36.2851562 5.44140625,36.3307287 5.44140625,36.421875 L5.44140625,38.171875 C5.44140625,38.2630213 5.47786422,38.3085938 5.55078125,38.3085938 L7.2734375,38.3085938 C7.34635453,38.3085938 7.3828125,38.2630213 7.3828125,38.171875 L7.3828125,36.421875 C7.3828125,36.3307287 7.34635453,36.2851562 7.2734375,36.2851562 L5.55078125,36.2851562 Z M26.1132812,49.7109375 C26.1132812,49.9843764 26.0221363,50.2122387 25.8398438,50.3945312 C25.6575512,50.5768238 25.4296889,50.6679688 25.15625,50.6679688 L23.3789062,50.6679688 C23.3059892,50.6679688 23.2968747,50.7044267 23.3515625,50.7773438 C24.4088595,52.1809966 25.5755145,53.3658806 26.8515625,54.3320312 C27.0338551,54.4778653 27.1341145,54.6692696 27.1523438,54.90625 C27.170573,55.1432304 27.0885426,55.3528637 26.90625,55.5351562 C26.5052063,55.9361999 26.1223977,56.3645811 25.7578125,56.8203125 C25.5755199,57.0208343 25.3613294,57.1347655 25.1152344,57.1621094 C24.8691394,57.1894533 24.6458343,57.1210946 24.4453125,56.9570312 C23.5885374,56.1184854 22.7408896,55.1158913 21.9023438,53.9492188 C21.9023438,53.9309895 21.8932293,53.9264322 21.875,53.9355469 C21.8567707,53.9446615 21.8476562,53.9583332 21.8476562,53.9765625 L21.8476562,57.6953125 C21.8476562,57.9505221 21.7519541,58.1738272 21.5605469,58.3652344 C21.3691397,58.5566416 21.1367201,58.6523438 20.8632812,58.6523438 L19.4140625,58.6523438 C19.1588529,58.6523438 18.9355478,58.5566416 18.7441406,58.3652344 C18.5527334,58.1738272 18.4570312,57.9505221 18.4570312,57.6953125 L18.4570312,50.8046875 C18.4570312,50.7135412 18.4114588,50.6679688 18.3203125,50.6679688 L17.4726562,50.6679688 C17.3997392,50.6679688 17.3632812,50.7135412 17.3632812,50.8046875 L17.3632812,57.6953125 C17.3632812,57.9505221 17.2675791,58.1738272 17.0761719,58.3652344 C16.8847647,58.5566416 16.6523451,58.6523438 16.3789062,58.6523438 L15.0390625,58.6523438 C14.7656236,58.6523438 14.5332041,58.5566416 14.3417969,58.3652344 C14.1503897,58.1738272 14.0546875,57.9505221 14.0546875,57.6953125 L14.0546875,55.2617188 C14.0546875,55.2434895 14.045573,55.2298178 14.0273438,55.2207031 C14.0091145,55.2115885 14,55.2161457 14,55.234375 C13.4531223,56.0000038 12.8880238,56.6562473 12.3046875,57.203125 C12.1041657,57.3854176 11.8763034,57.4583335 11.6210938,57.421875 C11.3658841,57.3854165 11.1562508,57.2578136 10.9921875,57.0390625 C10.8098949,56.8020821 10.6184906,56.5651054 10.4179688,56.328125 C10.363281,56.255208 10.2994795,56.236979 10.2265625,56.2734375 L9.26953125,56.7382812 C9.0325509,56.8476568 8.80013135,56.852214 8.57226562,56.7519531 C8.3443999,56.6516922 8.18489629,56.4739596 8.09375,56.21875 C7.71093559,55.2343701 7.24609648,54.177089 6.69921875,53.046875 C6.68098949,53.0286457 6.66276051,53.0195312 6.64453125,53.0195312 C6.62630199,53.0195312 6.60807301,53.0377602 6.58984375,53.0742188 C5.91536121,54.933603 5.04948445,56.5742116 3.9921875,57.9960938 C3.82812418,58.2148448 3.60937637,58.3378905 3.3359375,58.3652344 C3.06249863,58.3925783 2.81640734,58.3242196 2.59765625,58.1601562 C2.16015406,57.8684881 1.69531496,57.5677099 1.203125,57.2578125 C0.947915391,57.1119784 0.8203125,56.8841161 0.8203125,56.5742188 C0.8203125,56.3919262 0.884113945,56.2187508 1.01171875,56.0546875 C2.03255719,54.815098 2.79817453,53.3476647 3.30859375,51.6523438 C3.32682301,51.5611975 3.29036504,51.515625 3.19921875,51.515625 L2.98046875,51.515625 C2.72525914,51.515625 2.50195408,51.4199228 2.31054688,51.2285156 C2.11913967,51.0371084 2.0234375,50.8138034 2.0234375,50.5585938 L2.0234375,34.0703125 C2.0234375,33.7968736 2.11913967,33.5644541 2.31054688,33.3730469 C2.50195408,33.1816397 2.72525914,33.0859375 2.98046875,33.0859375 L9.98046875,33.0859375 C10.2539076,33.0859375 10.4817699,33.1816397 10.6640625,33.3730469 C10.8463551,33.5644541 10.9375,33.7968736 10.9375,34.0703125 L10.9375,50.5585938 C10.9375,50.8138034 10.8463551,51.0371084 10.6640625,51.2285156 C10.4817699,51.4199228 10.2539076,51.515625 9.98046875,51.515625 L9.65234375,51.515625 C9.56119746,51.515625 9.53385398,51.552083 9.5703125,51.625 C10.0442732,52.4635459 10.4453109,53.2382777 10.7734375,53.9492188 C10.809896,54.0221358 10.864583,54.0312503 10.9375,53.9765625 C11.8854214,53.0833289 12.7057257,52.0169333 13.3984375,50.7773438 C13.4531253,50.7044267 13.4348963,50.6679688 13.34375,50.6679688 L13.015625,50.6679688 C12.7421861,50.6679688 12.5097666,50.5768238 12.3183594,50.3945312 C12.1269522,50.2122387 12.03125,49.9843764 12.03125,49.7109375 L12.03125,48.8359375 C12.03125,48.5624986 12.1269522,48.3300791 12.3183594,48.1386719 C12.5097666,47.9472647 12.7421861,47.8515625 13.015625,47.8515625 L13.9453125,47.8515625 C14.0182295,47.8515625 14.0546875,47.8151045 14.0546875,47.7421875 L14.0546875,47.03125 C14.0546875,46.9401037 14.0182295,46.8945312 13.9453125,46.8945312 L12.25,46.8945312 C11.9765611,46.8945312 11.7486988,46.7988291 11.5664062,46.6074219 C11.3841137,46.4160147 11.2929688,46.1927096 11.2929688,45.9375 L11.2929688,45.2265625 C11.2929688,44.9713529 11.3841137,44.7480478 11.5664062,44.5566406 C11.7486988,44.3652334 11.9765611,44.2695312 12.25,44.2695312 L13.9453125,44.2695312 C14.0182295,44.2695312 14.0546875,44.2239588 14.0546875,44.1328125 L14.0546875,43.5039062 C14.0546875,43.41276 14.0182295,43.3671875 13.9453125,43.3671875 L13.125,43.3671875 C12.8515611,43.3671875 12.6191416,43.2714853 12.4277344,43.0800781 C12.2363272,42.8886709 12.140625,42.6653659 12.140625,42.4101562 L12.140625,41.5078125 C12.140625,41.2526029 12.2363272,41.0292978 12.4277344,40.8378906 C12.6191416,40.6464834 12.8515611,40.5507812 13.125,40.5507812 L13.9453125,40.5507812 C14.0182295,40.5507812 14.0546875,40.5052088 14.0546875,40.4140625 L14.0546875,39.8945312 C14.0546875,39.803385 14.0182295,39.7578125 13.9453125,39.7578125 L12.46875,39.7578125 C12.2135404,39.7578125 11.9902353,39.6621103 11.7988281,39.4707031 C11.6074209,39.2792959 11.5117188,39.0559909 11.5117188,38.8007812 L11.5117188,37.734375 C11.5117188,37.4609361 11.6074209,37.2330738 11.7988281,37.0507812 C11.9902353,36.8684887 12.2135404,36.7773438 12.46875,36.7773438 L13.9453125,36.7773438 C14.0182295,36.7773438 14.0546875,36.7317713 14.0546875,36.640625 L14.0546875,36.0664062 C14.0546875,35.9934892 14.0182295,35.9661457 13.9453125,35.984375 C13.6536444,36.057292 13.3802096,36.1210935 13.125,36.1757812 C12.8697904,36.230469 12.6191419,36.1894538 12.3730469,36.0527344 C12.1269519,35.9160149 11.9583338,35.7200534 11.8671875,35.4648438 C11.7942705,35.3007804 11.7213545,35.1458341 11.6484375,35 C11.539062,34.7630196 11.5345047,34.5351573 11.6347656,34.3164062 C11.7350265,34.0976552 11.9036446,33.9518233 12.140625,33.8789062 C13.5625071,33.4778626 14.7656201,33.0312525 15.75,32.5390625 C16.0234389,32.3932284 16.2877591,32.3203125 16.5429688,32.3203125 C16.8528661,32.3203125 17.1445299,32.4114574 17.4179688,32.59375 L18.6757812,33.46875 C18.8580738,33.5963548 18.9446615,33.7695302 18.9355469,33.9882812 C18.9264322,34.2070323 18.8216156,34.3528642 18.6210938,34.4257812 C18.2565086,34.5898446 17.8736999,34.7447909 17.4726562,34.890625 C17.3997392,34.9270835 17.3632812,34.9817705 17.3632812,35.0546875 L17.3632812,36.640625 C17.3632812,36.7317713 17.3997392,36.7773438 17.4726562,36.7773438 L18.3203125,36.7773438 C18.4114588,36.7773438 18.4570312,36.7317713 18.4570312,36.640625 L18.4570312,35.3554688 C18.4570312,35.3190102 18.4479168,35.2916668 18.4296875,35.2734375 C18.3749997,35.1822912 18.3658852,35.0911463 18.4023438,35 C18.4388023,34.9088537 18.5026037,34.8450523 18.59375,34.8085938 C20.1067784,34.1705697 21.3919218,33.4596393 22.4492188,32.6757812 C22.7591161,32.4570302 23.0598944,32.3476562 23.3515625,32.3476562 C23.5703136,32.3476562 23.7981759,32.4205722 24.0351562,32.5664062 L25.5390625,33.46875 C25.7395843,33.5781255 25.8398438,33.7467437 25.8398438,33.9746094 C25.8398438,34.2024751 25.7486988,34.3710932 25.5664062,34.4804688 C24.4726508,35.1549513 23.2695378,35.7473933 21.9570312,36.2578125 C21.8841142,36.294271 21.8476562,36.3580725 21.8476562,36.4492188 L21.8476562,36.640625 C21.8476562,36.7317713 21.8841142,36.7773438 21.9570312,36.7773438 L25.7851562,36.7773438 C26.0585951,36.7773438 26.2910147,36.8684887 26.4824219,37.0507812 C26.6738291,37.2330738 26.7695312,37.4609361 26.7695312,37.734375 L26.7695312,38.8007812 C26.7695312,39.0559909 26.6738291,39.2792959 26.4824219,39.4707031 C26.2910147,39.6621103 26.0585951,39.7578125 25.7851562,39.7578125 L21.9570312,39.7578125 C21.8841142,39.7578125 21.8476562,39.803385 21.8476562,39.8945312 L21.8476562,40.4140625 C21.8476562,40.5052088 21.8841142,40.5507812 21.9570312,40.5507812 L25.15625,40.5507812 C25.4296889,40.5507812 25.6575512,40.6464834 25.8398438,40.8378906 C26.0221363,41.0292978 26.1132812,41.2526029 26.1132812,41.5078125 L26.1132812,43.859375 C26.1132812,43.9505213 26.1588537,43.9960938 26.25,43.9960938 L26.3867188,43.9960938 C26.6601576,43.9960938 26.8880199,44.0872387 27.0703125,44.2695312 C27.2526051,44.4518238 27.34375,44.6796861 27.34375,44.953125 L27.34375,46.1289062 C27.34375,46.4023451 27.2526051,46.6302074 27.0703125,46.8125 C26.8880199,46.9947926 26.6601576,47.0859375 26.3867188,47.0859375 L26.25,47.0859375 C26.1588537,47.0859375 26.1132812,47.13151 26.1132812,47.2226562 L26.1132812,49.7109375 Z M44.5247397,34.6992188 C44.3971348,34.4804677 44.3789059,34.2480481 44.4700522,34.0019531 C44.5611984,33.7558581 44.7252593,33.58724 44.9622397,33.4960938 L47.2044272,32.6210938 C47.332032,32.566406 47.4596348,32.5390625 47.5872397,32.5390625 C47.7148445,32.5390625 47.8424473,32.566406 47.9700522,32.6210938 C48.2252618,32.71224 48.4257806,32.8763009 48.5716147,33.1132812 C49.3919313,34.5533926 50.4400979,36.0253831 51.7161459,37.5292969 C52.9921939,39.0332106 54.3046808,40.3684838 55.6536459,41.5351562 C55.8359385,41.6992196 55.9270834,41.9088529 55.9270834,42.1640625 C55.9270834,42.4192721 55.8359385,42.6289054 55.6536459,42.7929688 C54.8697878,43.5221391 54.1497429,44.2877564 53.4934897,45.0898438 C53.3294263,45.2903656 53.1243503,45.3997395 52.8782553,45.4179688 C52.6321603,45.436198 52.4179697,45.3541676 52.2356772,45.171875 L51.7708334,44.7070312 C51.7526041,44.688802 51.7343752,44.6796875 51.7161459,44.6796875 C51.6979166,44.6796875 51.6888022,44.6979165 51.6888022,44.734375 C51.5611973,48.7448117 51.3925792,51.6295485 51.1829428,53.3886719 C50.9733063,55.1477953 50.6497418,56.309893 50.2122397,56.875 C49.8294252,57.36719 49.4238303,57.7226552 48.9954428,57.9414062 C48.5670552,58.1601573 48.0338574,58.3242182 47.3958334,58.4335938 C46.7942679,58.5429693 45.8554752,58.5976562 44.5794272,58.5976562 L44.2239584,58.5976562 C43.9505195,58.5976562 43.7135427,58.5019541 43.5130209,58.3105469 C43.3124991,58.1191397 43.1848962,57.8867201 43.1302084,57.6132812 C42.9661451,56.8294232 42.7109393,56.0638058 42.3645834,55.3164062 C42.2734371,55.1341137 42.2871088,54.9518238 42.405599,54.7695312 C42.5240892,54.5872387 42.6835928,54.5052082 42.8841147,54.5234375 C43.759119,54.5781253 44.5703088,54.6054688 45.3177084,54.6054688 C45.7916691,54.6054688 46.1653633,54.4596369 46.4388022,54.1679688 C46.6940118,53.8945299 46.8945306,53.1516988 47.0403647,51.9394531 C47.1861987,50.7272075 47.3046871,48.8268359 47.3958334,46.2382812 C47.3958334,46.1653642 47.3593754,46.1289062 47.2864584,46.1289062 L42.9388022,46.1289062 C42.8476559,46.1289062 42.8020834,46.1653642 42.8020834,46.2382812 C42.6562493,47.3320367 42.4694022,48.3164019 42.2415365,49.1914062 C42.0136708,50.0664106 41.6764346,50.9733026 41.2298178,51.9121094 C40.783201,52.8509162 40.2454459,53.6940067 39.6165365,54.4414062 C38.9876271,55.1888058 38.1809946,55.9179652 37.1966147,56.6289062 C36.2122347,57.3398473 35.0820377,57.9687473 33.8059897,58.515625 C33.6601556,58.5703128 33.5234382,58.5976562 33.3958334,58.5976562 C33.2864579,58.5976562 33.1679695,58.5794273 33.0403647,58.5429688 C32.785155,58.4335932 32.5937507,58.2604179 32.4661459,58.0234375 C31.9921852,57.2213502 31.4726591,56.4830763 30.9075522,55.8085938 C30.7617181,55.6445304 30.7115884,55.4531261 30.7571615,55.234375 C30.8027347,55.0156239 30.9348948,54.8606775 31.1536459,54.7695312 C32.4296939,54.2955705 33.5188758,53.7441438 34.421224,53.1152344 C35.3235723,52.486325 36.0345027,51.7890663 36.5540365,51.0234375 C37.0735704,50.2578087 37.4654935,49.5058631 37.7298178,48.7675781 C37.994142,48.0292932 38.1992181,47.1862027 38.3450522,46.2382812 C38.3450522,46.1653642 38.3085942,46.1289062 38.2356772,46.1289062 L35.1184897,46.1289062 C34.86328,46.1289062 34.639975,46.0332041 34.4485678,45.8417969 C34.2571606,45.6503897 34.1614584,45.4179701 34.1614584,45.1445312 L34.1614584,44.4335938 C34.1614584,44.4153645 34.1477867,44.4016928 34.1204428,44.3925781 C34.0930989,44.3834635 34.0794272,44.3880207 34.0794272,44.40625 C33.6783835,44.7890644 33.2955748,45.1445296 32.9309897,45.4726562 C32.7304678,45.6367196 32.4980483,45.7096355 32.233724,45.6914062 C31.9693998,45.673177 31.7369802,45.5638031 31.5364584,45.3632812 C30.8802051,44.707028 30.1783892,44.0507845 29.4309897,43.3945312 C29.2669263,43.2486972 29.1848959,43.0664073 29.1848959,42.8476562 C29.1848959,42.5924466 29.2851553,42.3828133 29.4856772,42.21875 C30.9440178,41.1432238 32.2884054,39.8170652 33.5188803,38.2402344 C34.7493552,36.6634036 35.7565066,34.9817798 36.5403647,33.1953125 C36.6679695,32.9583321 36.8502593,32.7760423 37.0872397,32.6484375 C37.251303,32.5755205 37.4062493,32.5390625 37.5520834,32.5390625 C37.6614589,32.5390625 37.7617184,32.5572915 37.8528647,32.59375 L40.4231772,33.3320312 C40.6601575,33.4049483 40.8333329,33.5553374 40.9427084,33.7832031 C41.0520839,34.0110688 41.0611984,34.2434884 40.9700522,34.4804688 C39.6940041,37.2330867 38.098968,39.7669155 36.1848959,42.0820312 C36.1302081,42.136719 36.1484371,42.1640625 36.2395834,42.1640625 L49.4739584,42.1640625 C49.5468754,42.1640625 49.5559899,42.136719 49.5013022,42.0820312 C47.5325423,39.6028522 45.8737047,37.1419393 44.5247397,34.6992188 Z M62.0338543,57.4765625 C61.942708,57.7135429 61.7740899,57.8776037 61.5279949,57.96875 C61.2818999,58.0598963 61.0494804,58.0416673 60.8307293,57.9140625 L58.8346356,56.7929688 C58.5976552,56.6653639 58.4335943,56.4739596 58.3424481,56.21875 C58.2513018,55.9635404 58.2604163,55.7083346 58.3697918,55.453125 C59.372401,53.192697 60.3203082,50.7682421 61.2135418,48.1796875 C61.2864588,47.9427071 61.436848,47.7832035 61.6647137,47.7011719 C61.8925794,47.6191402 62.1158845,47.6510409 62.3346356,47.796875 L64.0026043,48.8359375 C64.2395847,49.0000008 64.4082028,49.2141914 64.5084637,49.4785156 C64.6087246,49.7428399 64.6132818,50.0117174 64.5221356,50.2851562 C63.7565067,52.7461061 62.9270879,55.1432175 62.0338543,57.4765625 Z M63.6744793,41.5078125 C63.8932304,41.6536466 64.0208333,41.8632799 64.0572918,42.1367188 C64.0937503,42.4101576 64.0299489,42.6562489 63.8658856,42.875 L62.6354168,44.5703125 C62.4895827,44.7890636 62.2845067,44.9121092 62.0201824,44.9394531 C61.7558582,44.966797 61.5234386,44.8984383 61.3229168,44.734375 C60.557288,44.169268 59.6731822,43.631513 58.6705731,43.1210938 C58.4335927,43.0117182 58.2877608,42.8294284 58.2330731,42.5742188 C58.2148438,42.519531 58.2057293,42.4557295 58.2057293,42.3828125 C58.2057293,42.2187492 58.2604163,42.0638028 58.3697918,41.9179688 L59.4361981,40.46875 C59.6184906,40.2499989 59.8463529,40.0996098 60.1197918,40.0175781 C60.3932307,39.9355465 60.6575509,39.9492182 60.9127606,40.0585938 C62.006516,40.5325545 62.9270797,41.0156225 63.6744793,41.5078125 Z M59.4635418,35.6835938 C59.2447907,35.5742182 59.1080733,35.3919284 59.0533856,35.1367188 C59.0351563,35.082031 59.0260418,35.0182295 59.0260418,34.9453125 C59.0260418,34.7812492 59.0807288,34.6263028 59.1901043,34.4804688 L60.2838543,33.0585938 C60.4479176,32.8216134 60.6666654,32.666667 60.9401043,32.59375 C61.0494798,32.5755207 61.1588538,32.5664062 61.2682293,32.5664062 C61.4322926,32.5664062 61.5963535,32.5937497 61.7604168,32.6484375 C62.8541723,33.1406275 63.792965,33.651039 64.5768231,34.1796875 C64.7955741,34.3437508 64.923177,34.5579414 64.9596356,34.8222656 C64.9960941,35.0865899 64.9322926,35.3281239 64.7682293,35.546875 L63.5104168,37.2421875 C63.3645827,37.4427093 63.1595067,37.5566405 62.8951824,37.5839844 C62.6308582,37.6113283 62.3984386,37.5429696 62.1979168,37.3789062 C61.432288,36.8137993 60.5208388,36.2487007 59.4635418,35.6835938 Z M70.6744793,36.1210938 C70.6744793,36.0481767 70.6289068,36.0117188 70.5377606,36.0117188 L69.1432293,36.0117188 C69.052083,36.0117188 69.0065106,36.0481767 69.0065106,36.1210938 L69.0065106,36.7773438 C69.0065106,36.86849 69.052083,36.9140625 69.1432293,36.9140625 L70.5377606,36.9140625 C70.6289068,36.9140625 70.6744793,36.86849 70.6744793,36.7773438 L70.6744793,36.1210938 Z M69.0065106,40.4414062 C69.0065106,40.5325525 69.052083,40.578125 69.1432293,40.578125 L70.5377606,40.578125 C70.6289068,40.578125 70.6744793,40.5325525 70.6744793,40.4414062 L70.6744793,39.6757812 C70.6744793,39.6028642 70.6289068,39.5664062 70.5377606,39.5664062 L69.1432293,39.5664062 C69.052083,39.5664062 69.0065106,39.6028642 69.0065106,39.6757812 L69.0065106,40.4414062 Z M73.9010418,42.546875 C73.9010418,42.8203139 73.8098969,43.0481762 73.6276043,43.2304688 C73.4453117,43.4127613 73.2174494,43.5039062 72.9440106,43.5039062 L69.1432293,43.5039062 C69.052083,43.5039062 69.0065106,43.5494787 69.0065106,43.640625 L69.0065106,57.6953125 C69.0065106,57.9505221 68.9108084,58.1738272 68.7194012,58.3652344 C68.527994,58.5566416 68.3046889,58.6523438 68.0494793,58.6523438 L66.3815106,58.6523438 C66.1080717,58.6523438 65.8756521,58.5566416 65.6842449,58.3652344 C65.4928377,58.1738272 65.3971356,57.9505221 65.3971356,57.6953125 L65.3971356,34.0429688 C65.3971356,33.7695299 65.4928377,33.5371103 65.6842449,33.3457031 C65.8756521,33.1542959 66.1080717,33.0585938 66.3815106,33.0585938 L72.9440106,33.0585938 C73.2174494,33.0585938 73.4453117,33.1542959 73.6276043,33.3457031 C73.8098969,33.5371103 73.9010418,33.7695299 73.9010418,34.0429688 L73.9010418,42.546875 Z M78.1393231,40.4414062 C78.1393231,40.5325525 78.175781,40.578125 78.2486981,40.578125 L79.7526043,40.578125 C79.8255213,40.578125 79.8619793,40.5325525 79.8619793,40.4414062 L79.8619793,39.6757812 C79.8619793,39.6028642 79.8255213,39.5664062 79.7526043,39.5664062 L78.2486981,39.5664062 C78.175781,39.5664062 78.1393231,39.6028642 78.1393231,39.6757812 L78.1393231,40.4414062 Z M79.8619793,36.1210938 C79.8619793,36.0481767 79.8255213,36.0117188 79.7526043,36.0117188 L78.2486981,36.0117188 C78.175781,36.0117188 78.1393231,36.0481767 78.1393231,36.1210938 L78.1393231,36.7773438 C78.1393231,36.86849 78.175781,36.9140625 78.2486981,36.9140625 L79.7526043,36.9140625 C79.8255213,36.9140625 79.8619793,36.86849 79.8619793,36.7773438 L79.8619793,36.1210938 Z M82.5690106,33.0585938 C82.8424494,33.0585938 83.074869,33.1542959 83.2662762,33.3457031 C83.4576834,33.5371103 83.5533856,33.7695299 83.5533856,34.0429688 L83.5533856,54.6875 C83.5533856,55.5625044 83.4667979,56.2506485 83.2936199,56.7519531 C83.120442,57.2532577 82.805992,57.6588526 82.3502606,57.96875 C81.6940073,58.3697937 80.7187566,58.597656 79.4244793,58.6523438 L79.3697918,58.6523438 C79.1145822,58.6523438 78.8958344,58.5611988 78.7135418,58.3789062 C78.4947907,58.1966137 78.3580733,57.9687514 78.3033856,57.6953125 C78.1757807,57.0572885 78.0026054,56.437503 77.7838543,55.8359375 C77.765625,55.7630205 77.7109381,55.7265625 77.6197918,55.7265625 L70.4830731,55.7265625 C70.2096342,55.7265625 69.9817719,55.6308603 69.7994793,55.4394531 C69.6171867,55.2480459 69.5260418,55.0156264 69.5260418,54.7421875 L69.5260418,53.7851562 C69.5260418,53.5117174 69.6171867,53.2792978 69.7994793,53.0878906 C69.9817719,52.8964834 70.2096342,52.8007812 70.4830731,52.8007812 L72.6432293,52.8007812 C72.7161463,52.8007812 72.7526043,52.7643233 72.7526043,52.6914062 L72.7526043,51.4882812 C72.7526043,51.397135 72.7161463,51.3515625 72.6432293,51.3515625 L71.3033856,51.3515625 C71.0299467,51.3515625 70.7975271,51.2558603 70.6061199,51.0644531 C70.4147127,50.8730459 70.3190106,50.6497409 70.3190106,50.3945312 L70.3190106,49.4648438 C70.3190106,49.1914049 70.4147127,48.9635426 70.6061199,48.78125 C70.7975271,48.5989574 71.0299467,48.5078125 71.3033856,48.5078125 L72.6432293,48.5078125 C72.7161463,48.5078125 72.7526043,48.46224 72.7526043,48.3710938 L72.7526043,47.46875 C72.7526043,47.395833 72.7161463,47.359375 72.6432293,47.359375 L70.8658856,47.359375 C70.6106759,47.359375 70.3873709,47.2636728 70.1959637,47.0722656 C70.0045565,46.8808584 69.9088543,46.6484389 69.9088543,46.375 L69.9088543,45.4453125 C69.9088543,45.1718736 70.0045565,44.9394541 70.1959637,44.7480469 C70.3873709,44.5566397 70.6106759,44.4609375 70.8658856,44.4609375 L78.0299481,44.4609375 C78.3033869,44.4609375 78.5358065,44.5566397 78.7272137,44.7480469 C78.9186209,44.9394541 79.0143231,45.1718736 79.0143231,45.4453125 L79.0143231,46.375 C79.0143231,46.6484389 78.9186209,46.8808584 78.7272137,47.0722656 C78.5358065,47.2636728 78.3033869,47.359375 78.0299481,47.359375 L76.1432293,47.359375 C76.052083,47.359375 76.0065106,47.395833 76.0065106,47.46875 L76.0065106,48.3710938 C76.0065106,48.46224 76.052083,48.5078125 76.1432293,48.5078125 L77.5651043,48.5078125 C77.8385432,48.5078125 78.0664055,48.5989574 78.2486981,48.78125 C78.4309906,48.9635426 78.5221356,49.1914049 78.5221356,49.4648438 L78.5221356,50.3945312 C78.5221356,50.6497409 78.4309906,50.8730459 78.2486981,51.0644531 C78.0664055,51.2558603 77.8385432,51.3515625 77.5651043,51.3515625 L76.1432293,51.3515625 C76.052083,51.3515625 76.0065106,51.397135 76.0065106,51.4882812 L76.0065106,52.6914062 C76.0065106,52.7643233 76.052083,52.8007812 76.1432293,52.8007812 L78.4127606,52.8007812 C78.6679702,52.8007812 78.8912752,52.8964834 79.0826824,53.0878906 C79.2740896,53.2792978 79.3697918,53.5117174 79.3697918,53.7851562 L79.3697918,54.9609375 C79.3697918,55.0338545 79.4153643,55.0703125 79.5065106,55.0703125 C79.7434909,55.0703125 79.8619793,54.9244806 79.8619793,54.6328125 L79.8619793,43.640625 C79.8619793,43.5494787 79.8255213,43.5039062 79.7526043,43.5039062 L75.7330731,43.5039062 C75.4596342,43.5039062 75.2272146,43.4127613 75.0358074,43.2304688 C74.8444002,43.0481762 74.7486981,42.8203139 74.7486981,42.546875 L74.7486981,34.0429688 C74.7486981,33.7695299 74.8444002,33.5371103 75.0358074,33.3457031 C75.2272146,33.1542959 75.4596342,33.0585938 75.7330731,33.0585938 L82.5690106,33.0585938 Z" id="賺分潤" fill="#FDEEBE"></path>
                </g>
            </g>
        </g>
    </g>
</svg>