<?xml version="1.0" encoding="UTF-8"?>
<svg width="117px" height="66px" viewBox="0 0 117 66" version="1.1" xmlns="http://www.w3.org/2000/svg" xmlns:xlink="http://www.w3.org/1999/xlink">
    <!-- Generator: Sketch 54.1 (76490) - https://sketchapp.com -->
    <title>fixBtn_4</title>
    <desc>Created with Sketch.</desc>
    <g id="Page-1" stroke="none" stroke-width="1" fill="none" fill-rule="evenodd">
        <g id="2-copy-2" transform="translate(-772.000000, -1101.000000)">
            <g id="fixBtn_4" transform="translate(772.000000, 1101.000000)">
                <rect id="Rectangle" x="0" y="0" width="117" height="64"></rect>
                <g id="Group-8-Copy-3" transform="translate(30.000000, 1.000000)" fill-rule="nonzero">
                    <path d="M25.46875,8.84375 C25.7031262,8.84375 25.9023429,8.92578043 26.0664062,9.08984375 C26.2304696,9.25390707 26.3125,9.45312383 26.3125,9.6875 L26.3125,11.46875 C26.3125,11.6875011 26.2304696,11.8789054 26.0664062,12.0429688 C25.9023429,12.2070321 25.7031262,12.2890625 25.46875,12.2890625 L6.625,12.2890625 C6.39062383,12.2890625 6.19140707,12.2070321 6.02734375,12.0429688 C5.86328043,11.8789054 5.78125,11.6875011 5.78125,11.46875 L5.78125,9.6875 C5.78125,9.45312383 5.86328043,9.25390707 6.02734375,9.08984375 C6.19140707,8.92578043 6.39062383,8.84375 6.625,8.84375 L14.03125,8.84375 C14.0937503,8.84375 14.125,8.81250031 14.125,8.75 L14.125,5.75 C14.125,5.53124891 14.2070304,5.33984457 14.3710938,5.17578125 C14.5351571,5.01171793 14.7343738,4.9296875 14.96875,4.9296875 L16.984375,4.9296875 C17.2031261,4.9296875 17.3945304,5.01171793 17.5585938,5.17578125 C17.7226571,5.33984457 17.8046875,5.53124891 17.8046875,5.75 L17.8046875,8.75 C17.8046875,8.81250031 17.8437496,8.84375 17.921875,8.84375 L25.46875,8.84375 Z M14.2421875,21.078125 C14.2890627,21.3125012 14.2460944,21.5273428 14.1132812,21.7226562 C13.9804681,21.9179697 13.7968762,22.0468747 13.5625,22.109375 L11.5703125,22.671875 C11.3671865,22.7187502 11.1757821,22.6796881 10.9960938,22.5546875 C10.8164054,22.4296869 10.7187501,22.265626 10.703125,22.0625 C10.4687488,19.8124887 9.9218793,17.3515759 9.0625,14.6796875 C8.99999969,14.4609364 9.01953074,14.2539072 9.12109375,14.0585938 C9.22265676,13.8632803 9.38281141,13.7343753 9.6015625,13.671875 L11.3359375,13.2265625 C11.5546886,13.1640622 11.7695302,13.1874995 11.9804688,13.296875 C12.1914073,13.4062505 12.3359371,13.5703114 12.4140625,13.7890625 C13.304692,16.3047001 13.9140609,18.7343633 14.2421875,21.078125 Z M20.6875,23.28125 C20.6562498,23.3437503 20.6718747,23.375 20.734375,23.375 L26.21875,23.375 C26.4531262,23.375 26.6523429,23.4570304 26.8164062,23.6210938 C26.9804696,23.7851571 27.0625,23.9843738 27.0625,24.21875 L27.0625,26.046875 C27.0625,26.2656261 26.9804696,26.4570304 26.8164062,26.6210938 C26.6523429,26.7851571 26.4531262,26.8671875 26.21875,26.8671875 L5.828125,26.8671875 C5.60937391,26.8671875 5.41796957,26.7851571 5.25390625,26.6210938 C5.08984293,26.4570304 5.0078125,26.2656261 5.0078125,26.046875 L5.0078125,24.21875 C5.0078125,23.9843738 5.08984293,23.7851571 5.25390625,23.6210938 C5.41796957,23.4570304 5.60937391,23.375 5.828125,23.375 L16.84375,23.375 C16.9062503,23.375 16.9531248,23.3437503 16.984375,23.28125 C18.0468803,20.3124852 18.8124977,17.1406419 19.28125,13.765625 C19.3125002,13.5468739 19.4218741,13.3671882 19.609375,13.2265625 C19.7500007,13.132812 19.9062491,13.0859375 20.078125,13.0859375 L20.21875,13.0859375 L22.5859375,13.5078125 C22.8046886,13.5390627 22.9765619,13.6484366 23.1015625,13.8359375 C23.2265631,14.0234384 23.2656252,14.2343738 23.21875,14.46875 C22.4999964,17.6093907 21.6562548,20.5468613 20.6875,23.28125 Z M37.1015626,9.921875 C37.1015626,9.85937469 37.0625005,9.828125 36.9843751,9.828125 L34.1250001,9.828125 C34.0624998,9.828125 34.0312501,9.85937469 34.0312501,9.921875 L34.0312501,11.1171875 C34.0312501,11.1796878 34.0624998,11.2109375 34.1250001,11.2109375 L36.9843751,11.2109375 C37.0625005,11.2109375 37.1015626,11.1796878 37.1015626,11.1171875 L37.1015626,9.921875 Z M34.0312501,15.546875 C34.0312501,15.6250004 34.0624998,15.6640625 34.1250001,15.6640625 L36.9843751,15.6640625 C37.0625005,15.6640625 37.1015626,15.6250004 37.1015626,15.546875 L37.1015626,14.375 C37.1015626,14.2968746 37.0625005,14.2578125 36.9843751,14.2578125 L34.1250001,14.2578125 C34.0624998,14.2578125 34.0312501,14.2968746 34.0312501,14.375 L34.0312501,15.546875 Z M35.3671876,21.0546875 C35.2578121,20.8515615 35.2343748,20.6445323 35.2968751,20.4335938 C35.3593754,20.2226552 35.4843742,20.070313 35.6718751,19.9765625 L36.9843751,19.34375 C37.2031262,19.2499995 37.4296864,19.2343747 37.6640626,19.296875 C37.8984388,19.3593753 38.0781245,19.4843741 38.2031251,19.671875 C39.4687564,21.5937596 40.3906222,23.3124924 40.9687501,24.828125 C41.0625006,25.0468761 41.0625006,25.2695301 40.9687501,25.4960938 C40.8749996,25.7226574 40.7187512,25.882812 40.5000001,25.9765625 L38.9062501,26.7734375 C38.7187492,26.867188 38.5273448,26.8710942 38.3320314,26.7851562 C38.1367179,26.6992183 38.0078129,26.5546885 37.9453126,26.3515625 C37.8359371,26.0234359 37.7109383,25.6796893 37.5703126,25.3203125 C37.5390624,25.2578122 37.4921879,25.2343749 37.4296876,25.25 C33.7890444,26.2187548 31.6015663,26.7968741 30.8671876,26.984375 C30.6484365,27.0468753 30.4375011,27.0195318 30.2343751,26.9023438 C30.0312491,26.7851557 29.8984379,26.6171886 29.8359376,26.3984375 L29.2968751,24.40625 C29.28125,24.3281246 29.2734376,24.2578128 29.2734376,24.1953125 C29.2734376,24.0546868 29.3124997,23.9218756 29.3906251,23.796875 C29.5000006,23.6093741 29.6640615,23.4921877 29.8828126,23.4453125 C30.1484389,23.3984373 30.390624,23.3515627 30.6093751,23.3046875 C30.6718754,23.2890624 30.7031251,23.2500003 30.7031251,23.1875 L30.7031251,7.4375 C30.7031251,7.20312383 30.7851555,7.00781328 30.9492189,6.8515625 C31.1132822,6.69531172 31.3124989,6.6171875 31.5468751,6.6171875 L39.4687501,6.6171875 C39.7031263,6.6171875 39.902343,6.69531172 40.0664064,6.8515625 C40.2304697,7.00781328 40.3125001,7.20312383 40.3125001,7.4375 L40.3125001,18.03125 C40.3125001,18.2656262 40.2304697,18.4648429 40.0664064,18.6289062 C39.902343,18.7929696 39.7031263,18.875 39.4687501,18.875 L34.1250001,18.875 C34.0624998,18.875 34.0312501,18.9062497 34.0312501,18.96875 L34.0312501,22.484375 C34.0312501,22.5625004 34.0624998,22.5937501 34.1250001,22.578125 L35.9062501,22.1796875 C35.9843755,22.1640624 36.0000003,22.1250003 35.9531251,22.0625 C35.7656242,21.7343734 35.5703136,21.3984392 35.3671876,21.0546875 Z M50.2031251,6.5234375 C50.4375013,6.5234375 50.636718,6.60156172 50.8007814,6.7578125 C50.9648447,6.91406328 51.0468751,7.10937383 51.0468751,7.34375 L51.0468751,21.03125 C51.0468751,21.8906293 50.9570322,22.5820286 50.7773439,23.1054688 C50.5976555,23.6289089 50.2812524,24.039061 49.8281251,24.3359375 C49.1874969,24.7734397 48.2656311,25.0156248 47.0625001,25.0625 C46.8281239,25.0781251 46.6210947,25.0078133 46.4414064,24.8515625 C46.261718,24.6953117 46.1484378,24.5000012 46.1015626,24.265625 C45.9453118,23.5156213 45.7109392,22.7656287 45.3984376,22.015625 C45.3359373,21.8437491 45.3554683,21.6835945 45.4570314,21.5351562 C45.5585944,21.386718 45.7031242,21.3125 45.8906251,21.3125 L47.0390626,21.3125 C47.1796883,21.3125 47.2773436,21.2851565 47.3320314,21.2304688 C47.3867191,21.175781 47.4140626,21.0781257 47.4140626,20.9375 L47.4140626,10.15625 C47.4140626,10.0781246 47.3750005,10.0390625 47.2968751,10.0390625 L45.0468751,10.0390625 C44.9687497,10.0390625 44.9296876,10.0781246 44.9296876,10.15625 L44.9296876,27.40625 C44.9296876,27.6250011 44.8515634,27.8164054 44.6953126,27.9804688 C44.5390618,28.1445321 44.3437513,28.2265625 44.1093751,28.2265625 L42.1875001,28.2265625 C41.968749,28.2265625 41.7773447,28.1445321 41.6132814,27.9804688 C41.449218,27.8164054 41.3671876,27.6250011 41.3671876,27.40625 L41.3671876,7.34375 C41.3671876,7.10937383 41.449218,6.91406328 41.6132814,6.7578125 C41.7773447,6.60156172 41.968749,6.5234375 42.1875001,6.5234375 L50.2031251,6.5234375 Z" id="立即" fill="#FFFFFF"></path>
                    <path d="M26.6328125,37.2421875 C26.6328125,37.5156264 26.5371103,37.7480459 26.3457031,37.9394531 C26.1542959,38.1308603 25.9218764,38.2265625 25.6484375,38.2265625 L15.7226563,38.2265625 C15.63151,38.2265625 15.5859375,38.2630205 15.5859375,38.3359375 L15.5859375,42.21875 C15.5859375,42.2369793 15.5996092,42.250651 15.6269531,42.2597656 C15.654297,42.2688803 15.6679688,42.264323 15.6679688,42.2460938 C15.8502613,42.0273427 16.0781236,41.8906253 16.3515625,41.8359375 C16.6250014,41.7812497 16.8893216,41.8177077 17.1445312,41.9453125 C20.5716317,43.7317798 23.151033,45.2630145 24.8828125,46.5390625 C25.1015636,46.6848966 25.2246092,46.8945299 25.2519531,47.1679688 C25.279297,47.4414076 25.2109383,47.6783844 25.046875,47.8789062 L23.2148438,50.1210938 C23.0507804,50.3216156 22.8365899,50.4309895 22.5722656,50.4492188 C22.3079414,50.467448 22.0755218,50.3945321 21.875,50.2304688 C20.4895764,49.0820255 18.4297012,47.6966227 15.6953125,46.0742188 C15.6223955,46.019531 15.5859375,46.03776 15.5859375,46.1289062 L15.5859375,57.6132812 C15.5859375,57.8684909 15.4947926,58.0917959 15.3125,58.2832031 C15.1302074,58.4746103 14.9023451,58.5703125 14.6289062,58.5703125 L12.1679688,58.5703125 C11.8945299,58.5703125 11.6666676,58.4746103 11.484375,58.2832031 C11.3020824,58.0917959 11.2109375,57.8684909 11.2109375,57.6132812 L11.2109375,38.3359375 C11.2109375,38.2630205 11.165365,38.2265625 11.0742188,38.2265625 L2.37890625,38.2265625 C2.10546738,38.2265625 1.87304783,38.1308603 1.68164062,37.9394531 C1.49023342,37.7480459 1.39453125,37.5156264 1.39453125,37.2421875 L1.39453125,35.0820312 C1.39453125,34.8085924 1.49023342,34.5761728 1.68164062,34.3847656 C1.87304783,34.1933584 2.10546738,34.0976562 2.37890625,34.0976562 L25.6484375,34.0976562 C25.9218764,34.0976562 26.1542959,34.1933584 26.3457031,34.3847656 C26.5371103,34.5761728 26.6328125,34.8085924 26.6328125,35.0820312 L26.6328125,37.2421875 Z M43.2122397,53.484375 C43.3398445,53.484375 43.4446611,53.5253902 43.5266928,53.6074219 C43.6087244,53.6894535 43.6497397,53.7851557 43.6497397,53.8945312 C43.6497397,53.9127605 43.6542969,53.921875 43.6634115,53.921875 L43.6770834,53.921875 C44.5338585,53.2291632 45.2903614,52.5455763 45.9466147,51.8710938 C46.0013024,51.7981767 46.0195314,51.7252608 46.0013022,51.6523438 C45.3450489,48.9726429 44.8984388,45.5273648 44.6614584,41.3164062 C44.6614584,41.22526 44.6158859,41.1796875 44.5247397,41.1796875 L39.0833334,41.1796875 C39.0104164,41.1796875 38.9739584,41.22526 38.9739584,41.3164062 L38.9739584,41.9453125 C38.9739584,42.0182295 39.0104164,42.0546875 39.0833334,42.0546875 L42.8020834,42.0546875 C43.057293,42.0546875 43.2805981,42.1503897 43.4720053,42.3417969 C43.6634125,42.5332041 43.7591147,42.7656236 43.7591147,43.0390625 L43.7591147,43.8867188 C43.7591147,44.1601576 43.6634125,44.3880199 43.4720053,44.5703125 C43.2805981,44.7526051 43.057293,44.84375 42.8020834,44.84375 L39.0833334,44.84375 C39.0104164,44.84375 38.9739584,44.8893225 38.9739584,44.9804688 L38.9739584,45.5546875 C38.9739584,45.6276045 39.0104164,45.6640625 39.0833334,45.6640625 L42.5286459,45.6640625 C42.8020848,45.6640625 43.0345043,45.7597647 43.2259115,45.9511719 C43.4173187,46.1425791 43.5130209,46.3749986 43.5130209,46.6484375 L43.5130209,51.7070312 C43.5130209,51.9622409 43.4173187,52.1855459 43.2259115,52.3769531 C43.0345043,52.5683603 42.8020848,52.6640625 42.5286459,52.6640625 L39.0286459,52.6640625 C38.9557289,52.6640625 38.9192709,52.709635 38.9192709,52.8007812 L38.9192709,53.3476562 C38.9192709,53.4388025 38.9557289,53.484375 39.0286459,53.484375 L43.2122397,53.484375 Z M33.8606772,50.0664062 C33.7695309,50.0664062 33.7239584,50.1028642 33.7239584,50.1757812 L33.7239584,50.6679688 C33.7239584,50.759115 33.7695309,50.8046875 33.8606772,50.8046875 L35.5833334,50.8046875 C35.6562504,50.8046875 35.6927084,50.759115 35.6927084,50.6679688 L35.6927084,50.1757812 C35.6927084,50.1028642 35.6562504,50.0664062 35.5833334,50.0664062 L33.8606772,50.0664062 Z M33.8606772,47.5507812 C33.7695309,47.5507812 33.7239584,47.5872392 33.7239584,47.6601562 L33.7239584,48.1523438 C33.7239584,48.2252608 33.7695309,48.2617188 33.8606772,48.2617188 L35.5833334,48.2617188 C35.6562504,48.2617188 35.6927084,48.2252608 35.6927084,48.1523438 L35.6927084,47.6601562 C35.6927084,47.5872392 35.6562504,47.5507812 35.5833334,47.5507812 L33.8606772,47.5507812 Z M38.6184897,48.1523438 C38.6184897,48.2252608 38.6549476,48.2617188 38.7278647,48.2617188 L40.4505209,48.2617188 C40.5234379,48.2617188 40.5598959,48.2252608 40.5598959,48.1523438 L40.5598959,47.6601562 C40.5598959,47.5872392 40.5234379,47.5507812 40.4505209,47.5507812 L38.7278647,47.5507812 C38.6549476,47.5507812 38.6184897,47.5872392 38.6184897,47.6601562 L38.6184897,48.1523438 Z M38.6184897,50.6679688 C38.6184897,50.759115 38.6549476,50.8046875 38.7278647,50.8046875 L40.4505209,50.8046875 C40.5234379,50.8046875 40.5598959,50.759115 40.5598959,50.6679688 L40.5598959,50.1757812 C40.5598959,50.1028642 40.5234379,50.0664062 40.4505209,50.0664062 L38.7278647,50.0664062 C38.6549476,50.0664062 38.6184897,50.1028642 38.6184897,50.1757812 L38.6184897,50.6679688 Z M50.9505209,43.1484375 C51.0234379,42.8932279 51.1783843,42.7018236 51.4153647,42.5742188 C51.652345,42.4466139 51.8984363,42.428385 52.1536459,42.5195312 L53.9036459,43.0390625 C54.1588555,43.1119795 54.3457026,43.2669259 54.4641928,43.5039062 C54.582683,43.7408866 54.5963547,43.9869779 54.5052084,44.2421875 C53.4114529,47.4323076 52.0260501,50.1666553 50.3489584,52.4453125 C50.3124999,52.5182295 50.3033854,52.5911455 50.3216147,52.6640625 C50.8138046,54.0312568 51.3242162,54.7148438 51.8528647,54.7148438 C52.2721376,54.7148438 52.5546868,53.5390743 52.7005209,51.1875 C52.7005209,50.9869782 52.7916658,50.854818 52.9739584,50.7910156 C53.156251,50.7272132 53.3203118,50.7499995 53.4661459,50.859375 C53.9583359,51.2786479 54.4960909,51.6523421 55.0794272,51.9804688 C55.3346368,52.1263028 55.5260411,52.3177071 55.6536459,52.5546875 C55.7812507,52.7552093 55.8450522,52.9648427 55.8450522,53.1835938 C55.8450522,53.2382815 55.8359377,53.2929685 55.8177084,53.3476562 C55.6354158,54.7695384 55.3574238,55.8678347 54.983724,56.6425781 C54.6100242,57.4173216 54.1542996,57.9459621 53.6165365,58.2285156 C53.0787734,58.5110691 52.3724003,58.6523438 51.4973959,58.6523438 C49.9114505,58.6523438 48.5989636,57.73178 47.5598959,55.890625 C47.5234374,55.817708 47.4778649,55.8085935 47.4231772,55.8632812 C46.5299435,56.7018271 45.5820363,57.4765589 44.5794272,58.1875 C44.3606761,58.3333341 44.1236993,58.3834638 43.8684897,58.3378906 C43.61328,58.2923175 43.4127612,58.1601573 43.2669272,57.9414062 C42.902342,57.4492163 42.4739609,56.9570337 41.9817709,56.4648438 C41.9088539,56.3919267 41.8359379,56.3554688 41.7630209,56.3554688 L39.0286459,56.3554688 C38.9557289,56.3554688 38.9192709,56.4010412 38.9192709,56.4921875 L38.9192709,57.7226562 C38.9192709,57.9960951 38.8235687,58.2239574 38.6321615,58.40625 C38.4407543,58.5885426 38.2083348,58.6796875 37.9348959,58.6796875 L36.3489584,58.6796875 C36.0937488,58.6796875 35.8704437,58.5885426 35.6790365,58.40625 C35.4876293,58.2239574 35.3919272,57.9960951 35.3919272,57.7226562 L35.3919272,56.4921875 C35.3919272,56.4010412 35.3463547,56.3554688 35.2552084,56.3554688 L31.1263022,56.3554688 C30.8528633,56.3554688 30.6204437,56.2643238 30.4290365,56.0820312 C30.2376293,55.8997387 30.1419272,55.6718764 30.1419272,55.3984375 L30.1419272,54.4414062 C30.1419272,54.1861966 30.2376293,53.9628916 30.4290365,53.7714844 C30.6204437,53.5800772 30.8528633,53.484375 31.1263022,53.484375 L35.2552084,53.484375 C35.3463547,53.484375 35.3919272,53.4388025 35.3919272,53.3476562 L35.3919272,52.8007812 C35.3919272,52.709635 35.3463547,52.6640625 35.2552084,52.6640625 L31.9192709,52.6640625 C31.645832,52.6640625 31.4134125,52.5683603 31.2220053,52.3769531 C31.0305981,52.1855459 30.9348959,51.9622409 30.9348959,51.7070312 L30.9348959,46.6484375 C30.9348959,46.3749986 31.0305981,46.1425791 31.2220053,45.9511719 C31.4134125,45.7597647 31.645832,45.6640625 31.9192709,45.6640625 L35.2005209,45.6640625 C35.2916672,45.6640625 35.3372397,45.6276045 35.3372397,45.5546875 L35.3372397,44.9804688 C35.3372397,44.8893225 35.2916672,44.84375 35.2005209,44.84375 L31.4817709,44.84375 C31.208332,44.84375 30.9804697,44.7526051 30.7981772,44.5703125 C30.6158846,44.3880199 30.5247397,44.1601576 30.5247397,43.8867188 L30.5247397,43.0390625 C30.5247397,42.7656236 30.6158846,42.5332041 30.7981772,42.3417969 C30.9804697,42.1503897 31.208332,42.0546875 31.4817709,42.0546875 L35.2005209,42.0546875 C35.2916672,42.0546875 35.3372397,42.0182295 35.3372397,41.9453125 L35.3372397,41.3164062 C35.3372397,41.22526 35.2916672,41.1796875 35.2005209,41.1796875 L30.6888022,41.1796875 C30.4335925,41.1796875 30.2102875,41.0885426 30.0188803,40.90625 C29.8274731,40.7239574 29.7317709,40.4960951 29.7317709,40.2226562 L29.7317709,38.8554688 C29.7317709,38.5820299 29.8274731,38.3496103 30.0188803,38.1582031 C30.2102875,37.9667959 30.4335925,37.8710938 30.6888022,37.8710938 L35.1184897,37.8710938 C35.2096359,37.8710938 35.2552084,37.8346358 35.2552084,37.7617188 L35.2552084,36.9414062 C35.2552084,36.8684892 35.2096359,36.8320312 35.1184897,36.8320312 L32.0013022,36.8320312 C31.7278633,36.8320312 31.4954437,36.7363291 31.3040365,36.5449219 C31.1126293,36.3535147 31.0169272,36.1210951 31.0169272,35.8476562 L31.0169272,34.7265625 C31.0169272,34.4713529 31.1126293,34.2480478 31.3040365,34.0566406 C31.4954437,33.8652334 31.7278633,33.7695312 32.0013022,33.7695312 L35.1184897,33.7695312 C35.2096359,33.7695312 35.2552084,33.7239588 35.2552084,33.6328125 L35.2552084,33.0585938 C35.2552084,32.7851549 35.3509106,32.5572926 35.5423178,32.375 C35.733725,32.1927074 35.95703,32.1015625 36.2122397,32.1015625 L38.1536459,32.1015625 C38.4088555,32.1015625 38.6321606,32.1927074 38.8235678,32.375 C39.014975,32.5572926 39.1106772,32.7851549 39.1106772,33.0585938 L39.1106772,33.6328125 C39.1106772,33.7239588 39.1562496,33.7695312 39.2473959,33.7695312 L42.2825522,33.7695312 C42.555991,33.7695312 42.7884106,33.8652334 42.9798178,34.0566406 C43.171225,34.2480478 43.2669272,34.4713529 43.2669272,34.7265625 L43.2669272,35.8476562 C43.2669272,36.1210951 43.171225,36.3535147 42.9798178,36.5449219 C42.7884106,36.7363291 42.555991,36.8320312 42.2825522,36.8320312 L39.2473959,36.8320312 C39.1562496,36.8320312 39.1106772,36.8684892 39.1106772,36.9414062 L39.1106772,37.7617188 C39.1106772,37.8346358 39.1562496,37.8710938 39.2473959,37.8710938 L44.3880209,37.8710938 C44.4791672,37.8710938 44.5247397,37.8346358 44.5247397,37.7617188 C44.4882811,35.7382711 44.4700522,34.1705785 44.4700522,33.0585938 C44.4700522,32.7851549 44.5611971,32.5572926 44.7434897,32.375 C44.9257822,32.1927074 45.1536445,32.1015625 45.4270834,32.1015625 L47.5872397,32.1015625 C47.8424493,32.1015625 48.0657543,32.1927074 48.2571615,32.375 C48.4485687,32.5572926 48.5351564,32.7851549 48.5169272,33.0585938 C48.4986979,33.9882859 48.4895834,34.8632771 48.4895834,35.6835938 C48.4895834,36.4309933 48.4986979,37.1236947 48.5169272,37.7617188 C48.5169272,37.8346358 48.5624996,37.8710938 48.6536459,37.8710938 L51.8528647,37.8710938 C51.9257817,37.8710938 51.9440107,37.8437503 51.9075522,37.7890625 C51.4335914,36.9869752 50.6588596,35.966152 49.5833334,34.7265625 C49.4192701,34.5260407 49.3509114,34.2981784 49.3782553,34.0429688 C49.4055992,33.7877591 49.5286448,33.5963548 49.7473959,33.46875 L51.1145834,32.5664062 C51.3515638,32.4023429 51.6113268,32.3385415 51.8938803,32.375 C52.1764338,32.4114585 52.4179678,32.5299469 52.6184897,32.7304688 C53.4752648,33.6237024 54.1679662,34.4166632 54.6966147,35.109375 C54.860678,35.3281261 54.9199222,35.5651029 54.874349,35.8203125 C54.8287759,36.0755221 54.6966157,36.2851554 54.4778647,36.4492188 L52.4544272,37.8164062 C52.4361979,37.8346355 52.4316406,37.8483072 52.4407553,37.8574219 C52.4498699,37.8665365 52.4635416,37.8710938 52.4817709,37.8710938 L54.5052084,37.8710938 C54.760418,37.8710938 54.9837231,37.9667959 55.1751303,38.1582031 C55.3665375,38.3496103 55.4622397,38.5820299 55.4622397,38.8554688 L55.4622397,40.2226562 C55.4622397,40.4960951 55.3665375,40.7239574 55.1751303,40.90625 C54.9837231,41.0885426 54.760418,41.1796875 54.5052084,41.1796875 L48.7630209,41.1796875 C48.6718746,41.1796875 48.6263022,41.22526 48.6263022,41.3164062 C48.7356777,43.3763124 48.9179675,45.3176992 49.1731772,47.140625 C49.1731772,47.1588543 49.1822916,47.1679688 49.2005209,47.1679688 C49.2187502,47.1679688 49.2369791,47.1588543 49.2552084,47.140625 C49.9114617,45.9010355 50.4765602,44.5703196 50.9505209,43.1484375 Z" id="下載" fill="#FDEEBE"></path>
                </g>
            </g>
        </g>
    </g>
</svg>