<?xml version="1.0" encoding="UTF-8"?>
<svg width="240px" height="33px" viewBox="0 0 240 33" version="1.1" xmlns="http://www.w3.org/2000/svg" xmlns:xlink="http://www.w3.org/1999/xlink">
    <!-- Generator: Sketch 54.1 (76490) - https://sketchapp.com -->
    <title>logo/hz_black</title>
    <desc>Created with Sketch.</desc>
    <defs>
        <polygon id="path-1" points="0 0.075555889 19.0830264 0.075555889 19.0830264 30.3147457 0 30.3147457"></polygon>
        <polygon id="path-3" points="0.226004373 0.234498632 24.5876558 0.234498632 24.5876558 32.6191502 0.226004373 32.6191502"></polygon>
        <polygon id="path-5" points="0.155148744 0.0341436999 26.1196523 0.0341436999 26.1196523 23.7906977 0.155148744 23.7906977"></polygon>
    </defs>
    <g id="Page-1" stroke="none" stroke-width="1" fill="none" fill-rule="evenodd">
        <g id="2-copy-2" transform="translate(-520.000000, -21.000000)">
            <g id="Group-2">
                <g id="logo/hz_white">
                    <g transform="translate(520.000000, 21.000000)">
                        <g id="Group-20">
                            <g id="Group-3" transform="translate(0.000000, 2.302326)">
                                <mask id="mask-2" fill="white">
                                    <use xlink:href="#path-1"></use>
                                </mask>
                                <g id="Clip-2"></g>
                                <path d="M15.5543961,10.3929452 L8.59617106,10.3929452 L8.59617106,7.64104726 L15.4791293,7.64104726 C16.3130071,7.64104726 17.0607241,7.35684621 17.6886084,6.80923931 C18.33729,6.2655934 18.7522482,5.55954689 18.9265505,4.69209002 L18.9423961,4.60593848 C19.180081,3.46814404 18.9414058,2.38877419 18.2610328,1.49458065 C17.5707563,0.565728432 16.615065,0.075555889 15.4969556,0.075555889 L5.04971447,0.075555889 C3.66718071,0.075555889 2.46786238,0.603357839 1.4834508,1.64608852 C0.499039228,2.68782896 -9.90353698e-05,3.96326782 -9.90353698e-05,5.43873668 L-9.90353698e-05,25.7972363 C-9.90353698e-05,27.0459385 0.422781994,28.1253083 1.25566945,29.0066287 C2.07568232,29.8740855 3.0898045,30.3147457 4.2683254,30.3147457 L4.32576592,30.3147457 C5.50626752,30.3147457 6.51939936,29.8740855 7.34040257,29.0066287 C8.17428039,28.1253083 8.59617106,27.0449482 8.59617106,25.7972363 L8.59617106,17.8980315 L15.5543961,17.8980315 C16.506126,17.8980315 17.3637723,17.5227277 18.0243383,16.8226227 C18.7156051,16.1106347 19.0830264,15.1926752 19.0830264,14.1657884 L19.0830264,14.1261785 C19.0830264,13.1190968 18.7205569,12.204108 18.0362225,11.4802371 C17.3637723,10.7692393 16.506126,10.3929452 15.5543961,10.3929452" id="Fill-1" fill="#FFFFFF" mask="url(#mask-2)"></path>
                            </g>
                            <path d="M65.8567953,23.8083739 C65.0792796,24.6391555 64.1854347,25.0427621 63.1255476,25.0427621 C62.0656604,25.0427621 61.1708213,24.6391555 60.38734,23.8024818 C59.5730364,22.9442039 59.1763244,21.9337142 59.1763244,20.7111101 C59.1763244,19.488506 59.5730364,18.4760523 60.38734,17.6187564 C61.16585,16.7977949 62.0616833,16.3990983 63.1255476,16.3990983 C64.1884175,16.3990983 65.0842509,16.7977949 65.8567953,17.6118823 C66.6621505,18.4711423 67.0519026,19.484578 67.0519026,20.7111101 C67.0519026,21.9366603 66.6621505,22.950096 65.8567953,23.8083739 M37.1215239,23.8083739 C36.3420197,24.6391555 35.4491691,25.0427621 34.389282,25.0427621 C33.3284005,25.0427621 32.4345557,24.6391555 31.6510744,23.8024818 C30.8367708,22.9442039 30.4400588,21.9337142 30.4400588,20.7111101 C30.4400588,19.488506 30.8367708,18.4760523 31.6510744,17.6187564 C32.4295844,16.7977949 33.3254177,16.3990983 34.389282,16.3990983 C35.4521519,16.3990983 36.3479853,16.7977949 37.1215239,17.6118823 C37.9248906,18.4711423 38.315637,19.484578 38.315637,20.7111101 C38.315637,21.9366603 37.9248906,22.950096 37.1215239,23.8083739 M63.7390095,8.95348837 C63.5282252,8.95348837 63.3214179,8.95938044 63.119582,8.97116458 C62.8958722,8.95938044 62.678128,8.95348837 62.4693322,8.95348837 C59.0659609,8.95348837 56.1169691,10.1161898 53.7009035,12.4111503 C52.2999832,13.7496317 51.3057176,15.2599652 50.7181066,16.9254564 L46.770872,16.9274204 C46.1802782,15.2609472 45.180047,13.7486497 43.7701783,12.4111503 C41.370021,10.1171718 38.4210291,8.95348837 35.0027439,8.95348837 C34.7929538,8.95348837 34.5851523,8.95938044 34.3843106,8.97116458 C34.1606009,8.95938044 33.9418624,8.95348837 33.7320724,8.95348837 C30.3306896,8.95348837 27.3807034,10.1161898 24.9646379,12.4111503 C22.5664692,14.7021827 21.3504823,17.494041 21.3504823,20.7111101 C21.3504823,23.9546936 22.5674635,26.7553899 24.9676207,29.0336562 C27.3807034,31.3256707 30.3306896,32.4883721 33.7320724,32.4883721 C33.9388796,32.4883721 34.1576181,32.48248 34.3843106,32.4697139 C34.5871408,32.48248 34.7949423,32.4883721 35.0027439,32.4883721 C38.4210291,32.4883721 41.3710153,31.3246887 43.7642127,29.0366022 C44.9613085,27.9082712 45.865096,26.6512967 46.4725923,25.2745168 L51.0134035,25.2725528 C51.617917,26.6483507 52.5147446,27.9053252 53.7028921,29.0336562 C56.1169691,31.3256707 59.0659609,32.4883721 62.4693322,32.4883721 C62.6761395,32.4883721 62.8948779,32.48248 63.119582,32.4697139 C63.3234064,32.48248 63.531208,32.4883721 63.7390095,32.4883721 C67.1572948,32.4883721 70.1072809,31.3246887 72.5014726,29.0366022 C74.9165438,26.7583359 76.1414791,23.9556756 76.1414791,20.7111101 C76.1414791,17.493059 74.9175381,14.7002187 72.5064439,12.4111503 C70.1062866,10.1171718 67.1572948,8.95348837 63.7390095,8.95348837" id="Fill-4" fill="#FFFFFF"></path>
                            <g id="Group-8" transform="translate(77.427653, 0.000000)">
                                <mask id="mask-4" fill="white">
                                    <use xlink:href="#path-3"></use>
                                </mask>
                                <g id="Clip-7"></g>
                                <path d="M15.3153523,22.5932596 C15.2748532,24.1170531 14.6199542,24.5418622 13.9828352,24.753774 C13.4632623,24.9292172 12.9486282,24.9755421 12.4379452,24.89472 L12.2374256,24.8789498 C11.729706,24.8789498 10.9631877,24.7577166 10.1680237,23.7208274 C9.48941788,22.809114 9.15949891,21.7219573 9.15949891,20.3962767 L9.15949891,20.140997 C9.15949891,19.2825079 9.31260502,18.5028698 9.61190277,17.8346085 C9.88749376,17.2294279 10.2272905,16.8253171 10.6312931,16.6311468 C11.2407542,16.3305278 11.824533,16.183668 12.4132507,16.183668 C12.8735568,16.183668 13.3457163,16.2773034 13.8149124,16.4616174 C14.5745163,16.7612508 15.0782848,17.1318499 15.3153523,17.5655298 L15.3153523,22.5932596 Z M19.9934848,0.234104378 L19.9085356,0.234104378 C18.6560288,0.234104378 17.5645304,0.691439535 16.6666372,1.59526785 C15.7707195,2.49909617 15.3153523,3.59808044 15.3153523,4.85969466 L15.3153523,9.11567141 C14.1527336,8.70170424 12.9397381,8.49274938 11.6872314,8.49274938 C8.52830662,8.49274938 5.79412785,9.68832599 3.56371756,12.0469532 C1.34812399,14.387839 0.226004373,17.2540688 0.226004373,20.5658062 C0.226004373,23.8647302 1.34812399,26.7240606 3.56371756,29.0639607 C5.79412785,31.422588 8.52731884,32.6191502 11.6872314,32.6191502 C13.1817446,32.6191502 14.6219298,32.3214881 15.9840803,31.7320777 C16.0206282,31.7734744 16.0581639,31.8138855 16.0976751,31.8542966 C16.5945291,32.3540141 17.2405381,32.6191502 17.9645819,32.6191502 L21.9374385,32.6191502 C22.6357999,32.6191502 23.2739066,32.3628848 23.7806385,31.8779518 L23.8073086,31.8533109 C24.3170037,31.3388089 24.5876558,30.680404 24.5876558,29.9510332 L24.5876558,4.85969466 C24.5876558,3.59808044 24.1322886,2.49909617 23.2353832,1.59526785 C22.3365021,0.691439535 21.2469793,0.234104378 19.9934848,0.234104378 L19.9934848,0.234104378 Z" id="Fill-6" fill="#FFFFFF" mask="url(#mask-4)"></path>
                            </g>
                            <path d="M144.720389,4.51235441 C143.286592,3.21547534 141.525665,2.55813953 139.486332,2.55813953 L139.374969,2.55813953 C137.720434,2.55813953 136.219023,3.01382646 134.914486,3.91235015 C133.612932,4.80691993 132.72004,5.98221659 132.259674,7.4155052 L128.511118,19.3295932 L124.695944,7.40166655 C124.254469,5.96541252 123.354617,4.78616196 122.040137,3.91333862 C120.734605,3.01382646 119.240155,2.55813953 117.602523,2.55813953 L117.489171,2.55813953 C115.450832,2.55813953 113.6909,3.21547534 112.257103,4.51235441 C110.823305,5.80923348 110.096463,7.40067807 110.096463,9.24220681 L110.096463,28.5431677 C110.096463,29.6809023 110.57075,30.7039739 111.469608,31.5016731 C112.350568,32.3141995 113.483089,32.744186 114.742882,32.744186 L114.810495,32.744186 C116.086197,32.744186 117.194855,32.3260612 118.106639,31.5016731 C118.989588,30.7029854 119.45592,29.6789254 119.45592,28.5431677 L119.45592,20.0729263 L122.103773,28.4107121 C122.501497,29.6977064 123.300924,30.7504322 124.468246,31.5323158 C125.64054,32.3359459 126.972918,32.744186 128.432567,32.744186 L128.522055,32.744186 C129.980711,32.744186 131.315077,32.3359459 132.475439,31.5402236 C133.652704,30.7504322 134.453125,29.6977064 134.847867,28.4205968 L137.520577,20.0373412 L137.520577,28.5431677 C137.520577,29.6789254 137.987904,30.7019969 138.870853,31.5016731 C139.768716,32.3141995 140.908198,32.744186 142.167991,32.744186 L142.23461,32.744186 C143.499374,32.744186 144.635873,32.3102456 145.496947,31.5115578 C146.401771,30.7118817 146.881029,29.6848562 146.881029,28.5431677 L146.881029,9.24220681 C146.881029,7.40067807 146.153193,5.80923348 144.720389,4.51235441" id="Fill-9" fill="#FFFFFF"></path>
                            <path d="M164.332345,23.664197 C164.290729,24.9952781 163.627851,25.3748864 162.994699,25.5671428 C162.474504,25.721144 161.958271,25.7623418 161.446003,25.6897552 L161.24387,25.6770035 C160.735564,25.6770035 159.966666,25.5691046 159.168042,24.6568677 C158.487329,23.8544916 158.156385,22.8981143 158.156385,21.7308434 L158.156385,21.5062174 C158.156385,20.7499436 158.309967,20.0652755 158.610194,19.4767356 C158.887632,18.944107 159.228484,18.5890212 159.633741,18.4173638 C160.245094,18.1535017 160.829695,18.0240229 161.421232,18.0240229 C161.882967,18.0240229 162.356593,18.1064185 162.827246,18.2692479 C163.589208,18.532129 164.09355,18.8587687 164.332345,19.2403387 L164.332345,23.664197 Z M172.509818,12.8095593 C171.78848,12.1719744 170.863028,11.8355258 169.830564,11.8355258 L168.092615,11.8355258 C167.074023,11.8355258 166.154515,12.1719744 165.434168,12.8095593 C165.425251,12.8174065 165.413361,12.8272155 165.403452,12.8360436 C164.226324,11.7953089 162.632049,11.255814 160.692958,11.255814 C157.525215,11.255814 154.782546,12.3083195 152.544219,14.3839036 C150.320755,16.4447742 149.196141,18.9666677 149.196141,21.881902 C149.196141,24.7834038 150.320755,27.2994119 152.544219,29.3602825 C154.782546,31.4358666 157.524224,32.4883721 160.692958,32.4883721 C161.78091,32.4883721 163.104683,32.0185211 164.859476,31.0091751 C164.94568,30.9591492 165.020984,30.9385503 165.111152,30.9385503 C165.136914,30.9385503 165.164658,30.9405121 165.184474,30.941493 C165.280587,30.9542447 165.386608,30.980729 165.505509,31.0896089 C166.520138,32.0577571 167.344524,32.4883721 168.176837,32.4883721 L170.975985,32.4883721 C171.68246,32.4883721 172.32552,32.2529561 172.836798,31.8066467 C173.356994,31.3662227 173.633441,30.7904345 173.633441,30.1410788 L173.633441,15.1764707 C173.633441,14.2769855 173.244037,13.4579341 172.509818,12.8095593 L172.509818,12.8095593 Z" id="Fill-11" fill="#FFFFFF"></path>
                            <path d="M190.784582,11.2734157 C189.777094,11.2734157 188.589027,11.1978897 187.55687,11.3597311 C186.538527,11.5196108 185.717538,12.0777185 184.891614,12.5661853 C184.654791,12.7044861 184.422901,12.8682892 184.192984,13.0605372 C183.184509,12.2552536 182.053675,11.8481979 180.818244,11.8481979 L180.707726,11.8481979 C179.408155,11.8481979 178.276334,12.2366173 177.322132,13.0232646 C176.411346,13.8089311 175.948553,14.7613433 175.948553,15.854018 L175.948553,28.5002075 C175.948553,29.586997 176.414307,30.5296006 177.322132,31.2946691 C178.243771,32.0872016 179.374605,32.4883721 180.686017,32.4883721 L180.752131,32.4883721 C182.062556,32.4883721 183.19339,32.0872016 184.103188,31.3034968 C185.022854,30.5315623 185.488608,29.5879779 185.488608,28.5002075 L185.488608,20.6935665 L185.507357,20.6935665 C185.520184,20.5395719 185.538933,20.4444288 185.550774,20.3865583 C185.642543,19.9991197 186.127046,19.5165381 186.913498,19.0310139 C187.701924,18.5474513 188.449893,18.3130265 189.200822,18.3130265 C189.362652,18.3130265 189.526455,18.3228351 189.659668,18.3414714 C189.828405,18.3669737 189.998129,18.3807057 190.161932,18.3807057 C190.997723,18.3807057 192.45715,18.0501568 192.879486,15.8442094 L193.376816,13.9697917 C193.551474,13.3047706 193.363988,12.6446538 192.85087,12.1100868 C192.348606,11.5706154 191.615439,11.2743966 190.784582,11.2734157" id="Fill-13" fill="#FFFFFF"></path>
                            <path d="M212.008969,12.8487953 C211.516981,12.273988 210.875817,11.8845708 210.099307,11.6903526 C208.935529,11.401968 207.723343,11.255814 206.497326,11.255814 C203.004018,11.255814 199.976023,12.2906633 197.500279,14.3279923 C194.977114,16.3947483 193.697749,18.9362598 193.697749,21.881902 C193.697749,24.8147926 194.977114,27.3494378 197.498303,29.4132511 C199.975035,31.4535228 203.00303,32.4883721 206.497326,32.4883721 C207.721367,32.4883721 208.933553,32.342218 210.070657,32.0606998 C210.86495,31.882176 211.521921,31.4849115 212.025764,30.8767536 C212.495029,30.3019463 212.733119,29.6447434 212.733119,28.923782 L212.733119,28.8678707 C212.733119,27.8840282 212.287564,27.0247599 211.444863,26.3803087 C210.600185,25.7397811 209.612259,25.4808236 208.509733,25.6358057 C207.934759,25.7182013 207.406219,25.7348766 206.941893,25.6848507 L206.789753,25.6770035 C205.689202,25.6770035 204.773394,25.3081852 203.978113,24.536217 C203.16011,23.7652297 202.763952,22.8471075 202.763952,21.7328052 L202.763952,21.5062174 C202.763952,20.7774088 202.94079,20.1417857 203.312251,19.5552076 C203.653086,19.0049228 204.080858,18.6459134 204.625205,18.4556188 C205.837391,18.0269656 207.112805,17.9367228 208.283498,18.1515399 C209.40183,18.3791087 210.463852,18.1623298 211.378672,17.5129741 C212.264842,16.8704847 212.733119,15.9906175 212.733119,14.9704817 L212.733119,14.8213849 C212.733119,14.1190606 212.497992,13.4667622 212.036631,12.8821459 L212.008969,12.8487953 Z" id="Fill-15" fill="#FFFFFF"></path>
                            <g id="Group-19" transform="translate(213.762058, 9.209302)">
                                <mask id="mask-6" fill="white">
                                    <use xlink:href="#path-5"></use>
                                </mask>
                                <g id="Clip-18"></g>
                                <path d="M15.8707043,15.0291785 C15.0958752,15.8678006 14.2041281,16.2752163 13.1479033,16.2752163 C12.0916785,16.2752163 11.1999314,15.8678006 10.4191573,15.0232308 C9.6076675,14.1568529 9.21331714,13.1368267 9.21331714,11.9026843 C9.21331714,10.6695331 9.6076675,9.64752442 10.4191573,8.78114651 C11.1949773,7.95342849 12.088706,7.55096919 13.1479033,7.55096919 C14.2071006,7.55096919 15.0998385,7.95342849 15.8707043,8.77519884 C16.6722858,9.64256802 17.061682,10.665568 17.061682,11.9026843 C17.061682,13.1407919 16.6722858,14.1628006 15.8707043,15.0291785 M22.4963849,3.52538488 C19.8052905,0.934181395 15.9687965,-0.0263680233 12.2492204,0.0370738372 C9.02605026,0.091594186 6.03275265,1.33465814 3.75582518,3.52538488 C1.36594307,5.83803895 0.155148744,8.65624535 0.155148744,11.9026843 C0.155148744,15.1768791 1.36792474,18.004007 3.75879767,20.3037744 C6.18633131,22.6382366 9.70278719,23.9556465 13.1429491,23.7722599 C13.3450785,23.7851465 13.552162,23.7910942 13.7592454,23.7910942 C17.16671,23.7910942 20.105512,22.6164285 22.4914307,20.3067483 C24.898157,18.0059895 26.1198504,15.1788616 26.1198504,11.9026843 C26.1198504,8.65525407 24.8991478,5.8360564 22.4963849,3.52538488" id="Fill-17" fill="#FFFFFF" mask="url(#mask-6)"></path>
                            </g>
                        </g>
                    </g>
                </g>
            </g>
        </g>
    </g>
</svg>