<?xml version="1.0" encoding="UTF-8"?>
<svg width="20px" height="20px" viewBox="0 0 20 20" version="1.1" xmlns="http://www.w3.org/2000/svg" xmlns:xlink="http://www.w3.org/1999/xlink">
    <!-- Generator: Sketch 54.1 (76490) - https://sketchapp.com -->
    <title>icon_question</title>
    <desc>Created with Sketch.</desc>
    <defs>
        <polygon id="path-1" points="0.0003375 0.00028 5.668875 0.00028 5.668875 10.45898 0.0003375 10.45898"></polygon>
    </defs>
    <g id="Page-1" stroke="none" stroke-width="1" fill="none" fill-rule="evenodd">
        <g id="2-copy" transform="translate(-509.000000, -1378.000000)">
            <g id="Group-19" transform="translate(498.000000, 1370.000000)">
                <g id="Group-18">
                    <g id="Group-17" transform="translate(12.000000, 9.000000)">
                        <g id="icon_question">
                            <g id="Group-3" transform="translate(6.000000, 3.750000)">
                                <mask id="mask-2" fill="white">
                                    <use xlink:href="#path-1"></use>
                                </mask>
                                <g id="Clip-2"></g>
                                <path d="M3.8759625,9.41994667 C3.8759625,9.71161333 3.7792125,9.95311333 3.5857125,10.1444467 C3.3922125,10.3544467 3.1548375,10.4594467 2.8735875,10.4594467 C2.5923375,10.4594467 2.3549625,10.3544467 2.1625875,10.1444467 C1.9690875,9.95311333 1.8723375,9.71161333 1.8723375,9.41994667 C1.8723375,9.12828 1.9690875,8.88678 2.1625875,8.69544667 C2.3549625,8.48544667 2.5923375,8.38044667 2.8735875,8.38044667 C3.1548375,8.38044667 3.3922125,8.48544667 3.5857125,8.69544667 C3.7792125,8.88678 3.8759625,9.12828 3.8759625,9.41994667 M5.6692125,2.47478 C5.6692125,2.99394667 5.4712125,3.47694667 5.0752125,3.92378 C4.6893375,4.28894667 4.3023375,4.65761333 3.9153375,5.03094667 C3.7218375,5.23161333 3.5947125,5.51394667 3.5328375,5.87911333 C3.5159625,5.97011333 3.4844625,6.28394667 3.4405875,6.82178 C3.4147125,7.23244667 3.2347125,7.43778 2.9005875,7.43778 C2.5405875,7.43778 2.3594625,7.22778 2.3594625,6.80894667 C2.3594625,6.02494667 2.4213375,5.47778 2.5439625,5.16744667 C2.6587125,4.90378 3.0412125,4.46161333 3.6914625,3.84211333 C4.2359625,3.32178 4.5082125,2.86678 4.5082125,2.47478 C4.5082125,2.08278 4.3372125,1.75028 3.9940875,1.47611333 C3.6689625,1.23928 3.3044625,1.12144667 2.9005875,1.12144667 C2.3819625,1.12144667 1.9510875,1.27194667 1.6079625,1.57178 C1.2659625,1.89144667 1.0724625,2.31494667 1.0285875,2.84344667 C0.9847125,3.25411333 0.8125875,3.45944667 0.5144625,3.45944667 C0.1713375,3.45944667 0.0003375,3.22611333 0.0003375,2.76178 C0.0003375,1.95911333 0.2860875,1.29878 0.8564625,0.779613333 C1.4279625,0.25928 2.1097125,0.00028 2.9005875,0.00028 C3.6295875,0.00028 4.2674625,0.218446667 4.8119625,0.655946667 C5.3834625,1.13078 5.6692125,1.73628 5.6692125,2.47478" id="Fill-1" fill="#FFFFFF" mask="url(#mask-2)"></path>
                            </g>
                            <circle id="Oval" stroke="#FFFFFF" stroke-width="1.44" cx="9" cy="9" r="9"></circle>
                        </g>
                    </g>
                </g>
            </g>
        </g>
    </g>
</svg>