<?xml version="1.0" encoding="UTF-8"?>
<svg width="12px" height="12px" viewBox="0 0 12 12" version="1.1" xmlns="http://www.w3.org/2000/svg" xmlns:xlink="http://www.w3.org/1999/xlink">
    <!-- Generator: Sketch 54.1 (76490) - https://sketchapp.com -->
    <title>download-arrow</title>
    <desc>Created with Sketch.</desc>
    <g id="Symbols" stroke="none" stroke-width="1" fill="none" fill-rule="evenodd">
        <g id="mb/topnav" transform="translate(-324.000000, -11.000000)" fill="#6E5300" fill-rule="nonzero">
            <g id="Group-15">
                <g id="download-arrow" transform="translate(325.000000, 11.000000)">
                    <path d="M4.67785029,8.3551046 C4.85599969,8.54829847 5.14389714,8.54829847 5.32166414,8.3551046 L7.86651895,5.58940379 C7.99667747,5.44753435 8.03570591,5.23491201 7.96560768,5.05067914 C7.89476856,4.86564108 7.72919048,4.74509621 7.54499443,4.74509621 L6.43257644,4.74509621 L6.43257644,1.15885393 C6.43257644,0.79501155 6.16112207,0.5 5.82669163,0.5 L4.1728228,0.5 C3.83839236,0.5 3.5669141,0.79501155 3.5669141,1.15885393 L3.5669141,4.74507024 L2.45492631,4.74507024 C2.27073025,4.74507024 2.10548677,4.8656151 2.03464765,5.05065316 C1.96419092,5.23488603 2.00319546,5.44753435 2.13340178,5.58937781 L4.67785029,8.3551046 Z" id="Path"></path>
                    <path d="M9.50278754,7 C9.22844768,7 9.00587949,7.18944602 9.00587949,7.42317693 L9.00587949,9.19235147 C9.00587949,9.72241911 8.49890412,10.1539237 7.87605674,10.1539237 L2.12389977,10.1539237 C1.50107414,10.1539237 0.994446667,9.72241911 0.994446667,9.19235147 L0.994446667,7.42317693 C0.994446667,7.18944602 0.77153058,7 0.497212462,7 C0.222589932,7 0,7.18944602 0,7.42317693 L0,9.19235147 C0,10.1893627 0.952785799,11 2.12389977,11 L7.87605674,11 C9.04719246,11 10,10.1893627 10,9.19235147 L10,7.42317693 C10,7.18944602 9.77743181,7 9.50278754,7 Z" id="Path" stroke="#6E5300"></path>
                </g>
            </g>
        </g>
    </g>
</svg>