<?xml version="1.0" encoding="UTF-8"?>
<svg width="58px" height="58px" viewBox="0 0 58 58" version="1.1" xmlns="http://www.w3.org/2000/svg" xmlns:xlink="http://www.w3.org/1999/xlink">
    <!-- Generator: Sketch 54.1 (76490) - https://sketchapp.com -->
    <title>mainNav_icon3</title>
    <desc>Created with Sketch.</desc>
    <g id="PC_切圖用" stroke="none" stroke-width="1" fill="none" fill-rule="evenodd">
        <g id="Artboard" transform="translate(-379.000000, -146.000000)">
            <g id="Group-13" transform="translate(379.000000, 146.000000)">
                <g id="cutlery" transform="translate(9.000000, 10.000000)" fill="#FFFFFF" fill-rule="nonzero" stroke="#FFFFFF" stroke-width="0.4">
                    <path d="M35.7869083,2.21307238 C35.5027068,1.92909461 35.0420962,1.92885717 34.7578156,2.21307238 L27.2132204,9.75779511 C26.9289397,10.0420103 26.9289397,10.5026432 27.2131412,10.7869375 C27.3552815,10.9290056 27.5414252,11 27.7277271,11 C27.9138707,11 28.1001727,10.9290056 28.242313,10.7869375 L35.7869083,3.24221479 C36.0710306,2.95792043 36.0710306,2.49720844 35.7869083,2.21307238 Z" id="Path"></path>
                    <path d="M37.7868456,4.21303965 C37.5025606,3.92898678 37.041943,3.92898678 36.7577371,4.21303965 L29.2131049,11.7578129 C28.9289782,12.0421032 28.9289782,12.5027294 29.2130258,12.7869406 C29.3551683,12.9290066 29.5414731,13 29.7276196,13 C29.9137661,13 30.1000709,12.9290066 30.2422134,12.7869406 L37.7868456,5.24208821 C38.0710515,4.95787706 38.0710515,4.49717165 37.7868456,4.21303965 Z" id="Path"></path>
                    <path d="M30.5141712,16.6454935 L39.7889164,7.24657507 C40.0703612,6.96128281 40.0703612,6.49903311 39.7889164,6.21382028 C39.5073933,5.92884572 39.0512506,5.92860745 38.7698058,6.21382028 L29.4952173,15.6127387 C28.3525876,16.7705868 26.6054513,17.0743849 25.147754,16.3689379 C24.8577663,16.2286745 24.5115054,16.2996004 24.2982469,16.5431155 L21.146865,20.1412767 C21.145611,20.1426269 21.1442003,20.1438183 21.1429463,20.1452479 C21.1416923,20.1466775 21.1407518,20.1481866 21.1394978,20.1496162 L7.5187783,35.7006651 C7.5153298,35.7046364 7.51188129,35.708687 7.50851117,35.7127376 C7.46360227,35.7661902 7.42120138,35.81313 7.37825186,35.856734 C6.47889829,36.768049 5.01563634,36.7679695 4.11667465,35.856734 C3.68106619,35.4153729 3.4411602,34.8283475 3.4411602,34.2040722 C3.4411602,33.5797968 3.68106619,32.9928509 4.1174584,32.5506161 C4.15931067,32.5079652 4.20555194,32.4651555 4.25876859,32.4192482 C4.2628441,32.415833 4.26676285,32.4123383 4.2706816,32.4088437 L12.7859727,24.7496362 C13.0836411,24.4818967 13.1106805,24.0203618 12.8465566,23.7187876 C12.5823544,23.4170545 12.1268387,23.3894942 11.829327,23.6573925 L3.31967889,31.3115169 C3.2383256,31.3818074 3.16551519,31.4498741 3.09764241,31.518735 C2.38983744,32.2360163 2,33.1896644 2,34.2040722 C2,35.2184005 2.38975906,36.1721281 3.09756403,36.8894094 C3.82825451,37.6297237 4.7878001,37.9999206 5.74758082,37.9998412 C6.70696965,37.9998412 7.66675037,37.6298031 8.39689222,36.8898065 C8.46609738,36.8198336 8.53310804,36.745969 8.60192132,36.6643208 L18.9812844,24.8137316 L29.3608041,36.6644796 C29.429539,36.7462073 29.4965497,36.8200719 29.5652846,36.8895682 C30.2958183,37.6298825 31.2554423,38 32.2150663,38 C33.1747686,38 34.1344709,37.6298031 34.865083,36.8894888 C36.3259938,35.4087807 36.3259938,32.9996814 34.8654749,31.5193704 C34.7965049,31.4492387 34.7235377,31.3813309 34.6430466,31.3116757 L22.6993962,20.5687385 L25.0361479,17.9007158 C26.9294537,18.5805088 29.071757,18.1069809 30.5141712,16.6454935 Z M33.6918871,32.4089231 C33.6958059,32.4124178 33.699803,32.4159124 33.7038001,32.4193277 C33.7565465,32.4648378 33.8028662,32.5078064 33.8458941,32.5513309 C34.7450909,33.4626459 34.7450909,34.945419 33.8459724,35.8565751 C32.9466189,36.7678107 31.4834353,36.7678107 30.5838466,35.856178 C30.5412889,35.8130506 30.4987313,35.7660314 30.4538224,35.7125788 C30.4504523,35.7085282 30.4470038,35.7044775 30.4435553,35.7005063 L19.9446703,23.713625 L21.7425153,21.6609027 L33.6918871,32.4089231 Z" id="Shape"></path>
                    <path d="M33.7870811,0.215088347 C33.5031101,-0.0716961155 33.0430013,-0.0716961155 32.7591094,0.215088347 L23.403879,9.67114476 C21.948765,11.1417442 21.4775882,13.325669 22.1542328,15.25637 L19.2753903,17.8391082 L16.5085708,15.3568924 C17.9394144,12.5112618 17.4170881,9.05618426 15.1470597,6.76166885 C12.8925263,4.48289501 10.2811319,2.87925128 7.79393523,2.24631182 C5.1974825,1.5857247 2.97140947,2.02672873 1.5251498,3.4884585 C0.0788901316,4.95018828 -0.357501767,7.2005154 0.296216459,9.82472507 C0.922502078,12.338504 2.50900799,14.9779758 4.76369946,17.2566697 C7.0337279,19.551265 10.451973,20.0792073 13.2674913,18.6328995 C13.2674913,18.6328995 15.9732001,21.7139347 16.0075106,21.7530889 C16.1511563,21.9166575 16.350774,22 16.5514194,22 C16.7230511,22 16.8952361,21.9389514 17.0336641,21.8147767 L23.5057038,16.0084501 C23.7480119,15.7910245 23.8186094,15.4378377 23.6790747,15.1423435 C22.9767367,13.6560025 23.2792069,11.8748864 24.4317716,10.7100892 L33.7870811,1.25411269 C34.070973,0.967088506 34.070973,0.502032622 33.7870811,0.215088347 Z M16.6122138,20.2283928 L13.9663508,17.2154379 C13.7320273,16.9486301 13.3416463,16.8902984 13.0412316,17.0778389 C10.710804,18.5302995 7.72958324,18.1768731 5.791434,16.2178052 C3.71983739,14.1240149 2.26891339,11.7262603 1.70579391,9.46594484 C1.18204458,7.36304524 1.48293363,5.60909736 2.55312152,4.52748285 C3.62315129,3.44570852 5.35844154,3.14174416 7.43889248,3.67120469 C9.67516379,4.24029885 12.0475704,5.70674311 14.1190089,7.80061328 C16.0571581,9.75952136 16.4069041,12.7727958 14.969815,15.1282799 C14.7845065,15.4320046 14.8419806,15.8264231 15.1059503,16.0633459 L18.1802996,18.821399 L16.6122138,20.2283928 Z" id="Shape"></path>
                </g>
                <rect id="Rectangle" x="0" y="0" width="58" height="58"></rect>
            </g>
        </g>
    </g>
</svg>