<?xml version="1.0" encoding="UTF-8"?>
<svg width="58px" height="58px" viewBox="0 0 58 58" version="1.1" xmlns="http://www.w3.org/2000/svg" xmlns:xlink="http://www.w3.org/1999/xlink">
    <!-- Generator: Sketch 54.1 (76490) - https://sketchapp.com -->
    <title>mainNav_icon2</title>
    <desc>Created with Sketch.</desc>
    <g id="PC_切圖用" stroke="none" stroke-width="1" fill="none" fill-rule="evenodd">
        <g id="Artboard" transform="translate(-297.000000, -146.000000)">
            <g id="Group-12" transform="translate(297.000000, 146.000000)">
                <g id="eyeglasses" transform="translate(1.000000, 18.000000)" fill="#FFFFFF" fill-rule="nonzero">
                    <path d="M54.359375,3.01749115 L50.4808281,3.01749115 C48.42425,1.14822656 45.6486406,0 42.5985,0 C39.00925,0 35.8002969,1.59020724 33.6958125,4.07423727 C30.3754063,1.55160081 25.6300625,1.54729955 22.3039688,4.07423727 C20.1994844,1.59020724 16.9906406,0 13.4012813,0 C10.3511406,0 7.57553125,1.14833147 5.51895313,3.01749115 L1.640625,3.01749115 C0.7345625,3.01749115 0,3.7220585 0,4.59112281 C0,5.46018712 0.7345625,6.16475447 1.640625,6.16475447 L3.1023125,6.16475447 C2.3541875,7.62497973 1.93309375,9.26606773 1.93309375,11 C1.93309375,17.0654059 7.07776563,22 13.4013906,22 C19.7250156,22 24.8696875,17.0654059 24.8696875,11 C24.8696875,9.51963225 24.5624531,8.10693066 24.0072656,6.8165527 C26.2572188,4.83335718 29.7397188,4.83062955 31.9928438,6.8165527 C31.4375469,8.10693066 31.1304219,9.51963225 31.1304219,11 C31.1304219,17.0654059 36.2750938,22 42.5987188,22 C48.9223438,22 54.0670156,17.0654059 54.0670156,11 C54.0670156,9.26606773 53.6460313,7.62497973 52.8977969,6.16475447 L54.359375,6.16475447 C55.2654375,6.16475447 56,5.46018712 56,4.59112281 C56,3.7220585 55.2654375,3.01749115 54.359375,3.01749115 Z M13.4013906,18.8527367 C8.88704688,18.8527367 5.21434375,15.3300049 5.21434375,11 C5.21434375,6.66999514 8.88704688,3.14726331 13.4013906,3.14726331 C17.9157344,3.14726331 21.5884375,6.66999514 21.5884375,11 C21.5884375,15.3300049 17.9157344,18.8527367 13.4013906,18.8527367 Z M42.5986094,18.8527367 C38.0842656,18.8527367 34.4115625,15.3300049 34.4115625,11 C34.4115625,6.66999514 38.0842656,3.14726331 42.5986094,3.14726331 C47.1129531,3.14726331 50.7856563,6.66999514 50.7856563,11 C50.7856563,15.3300049 47.1129531,18.8527367 42.5986094,18.8527367 Z" id="Shape"></path>
                </g>
                <rect id="Rectangle" x="0" y="0" width="58" height="58"></rect>
            </g>
        </g>
    </g>
</svg>