<?xml version="1.0" encoding="UTF-8"?>
<svg width="58px" height="58px" viewBox="0 0 58 58" version="1.1" xmlns="http://www.w3.org/2000/svg" xmlns:xlink="http://www.w3.org/1999/xlink">
    <!-- Generator: Sketch 54.1 (76490) - https://sketchapp.com -->
    <title>mainNav_icon1</title>
    <desc>Created with Sketch.</desc>
    <g id="PC_切圖用" stroke="none" stroke-width="1" fill="none" fill-rule="evenodd">
        <g id="Artboard" transform="translate(-199.000000, -146.000000)">
            <g id="Group-11" transform="translate(199.000000, 146.000000)">
                <g id="chef" transform="translate(11.000000, 11.000000)" fill="#FFFFFF" fill-rule="nonzero" stroke="#FFFFFF" stroke-width="0.5">
                    <path d="M10.6000495,17.8750205 C10.6000495,17.391368 10.2422246,17 9.80002477,17 C9.3578249,17 9,17.391368 9,17.8750205 C9,20.1726979 11.3171993,23.3275131 11.5812742,23.6804087 C11.7398992,23.8906532 11.9695491,24 12.2007741,24 C12.378899,24 12.558599,23.9350318 12.7077739,23.801732 C13.0491738,23.4949375 13.0983738,22.9438559 12.8186989,22.5695502 C11.9609991,21.4262896 10.6000495,19.141327 10.6000495,17.8750205 Z" id="Path"></path>
                    <path d="M28.1999284,17 C27.7577027,17 27.3998569,17.391368 27.3998569,17.8750205 C27.3998569,19.1370614 26.0388276,21.424567 25.1810027,22.5704526 C24.9013114,22.9438559 24.9512643,23.4950196 25.2927592,23.801732 C25.4411928,23.9350318 25.6209033,24 25.7997887,24 C26.0310272,24 26.2599405,23.8906532 26.4185747,23.6804087 C26.6826651,23.3275131 29,20.1727799 29,17.8750205 C29,17.391368 28.6421542,17 28.1999284,17 Z" id="Path"></path>
                    <path d="M18,17 C17.4472673,17 17,17.391368 17,17.8750205 L17,23.1249795 C17,23.608632 17.4472673,24 18,24 C18.5527327,24 19,23.608632 19,23.1249795 L19,17.8750205 C18.9999063,17.391368 18.552639,17 18,17 Z" id="Path"></path>
                    <path d="M27.7499606,3.36366503 C27.2403704,3.36366503 26.7078392,3.4310692 26.1548109,3.53379157 C24.3027375,1.3748085 21.5610887,0 18.5,0 C15.4389113,0 12.6971837,1.3748085 10.8451891,3.53371274 C10.292082,3.4310692 9.75955077,3.3635862 9.25003942,3.3635862 C4.14948629,3.36366503 0,7.51316017 0,12.6136453 C0,16.1086499 1.97087788,19.2858695 5.06515616,20.8568202 L5.04875845,33.5649102 C5.0479701,34.4821587 5.40430482,35.3444591 6.05225064,35.9931946 C6.7009848,36.6427973 7.5624161,37 8.47974151,37 L28.5235696,37 C30.4156123,37 31.9545526,35.4610564 31.9545526,33.5690096 L31.9545526,20.8445219 C35.037321,19.2694718 37,16.09714 37,12.6136453 C36.9999212,7.51316017 32.8504349,3.36366503 27.7499606,3.36366503 Z M30.2726843,33.5690885 C30.2726843,34.5331652 29.4876442,35.3182857 28.5234907,35.3182857 L8.47966267,35.3182857 C8.01240694,35.3182857 7.57305885,35.1359397 7.24210903,34.805068 C6.91194757,34.4741175 6.72968078,34.0347685 6.73046913,33.5667234 L6.7348839,30.2727488 L30.2726843,30.2727488 L30.2726843,33.5690885 Z M30.7933114,19.5355409 C30.7489272,19.5535941 30.7070658,19.5749585 30.6676482,19.6004223 C30.5616938,19.6660921 30.4746598,19.7532051 30.4097785,19.8533259 C30.3441089,19.9526583 30.2997247,20.067679 30.2816715,20.1908197 C30.274261,20.2376479 30.2718171,20.2844761 30.2726054,20.3320926 L30.2726054,28.5908768 L6.73701245,28.5908768 L6.74781286,20.3435237 C6.74860121,20.2975627 6.74615732,20.2507346 6.73961401,20.2055619 C6.72156076,20.078243 6.67473271,19.95999 6.60654033,19.8573465 C6.54244738,19.7612463 6.45872449,19.6775232 6.35686952,19.6134301 C6.31500808,19.587178 6.27062391,19.5641581 6.22466303,19.5452376 C3.46464565,18.3382694 1.68178951,15.6200288 1.68178951,12.6136453 C1.68178951,8.4402631 5.07666608,5.04545813 9.24996058,5.04545813 C9.41307044,5.04545813 9.58524633,5.06516695 9.75418998,5.07849011 C8.90340142,6.55712469 8.40902641,8.26580061 8.40902641,10.0909163 C8.40902641,10.5557291 8.78514874,10.9318522 9.24996058,10.9318522 C9.71477242,10.9318522 10.0908948,10.5557291 10.0908948,10.0909163 C10.0908948,5.45437674 13.8634704,1.6817931 18.5,1.6817931 C23.1365296,1.6817931 26.9090264,5.45437674 26.9090264,10.0909163 C26.9090264,10.5557291 27.2851487,10.9318522 27.7499606,10.9318522 C28.2147724,10.9318522 28.5908948,10.5557291 28.5908948,10.0909163 C28.5908948,8.26580061 28.0965197,6.55720352 27.2457312,5.07849011 C27.4146748,5.06516695 27.5868507,5.04545813 27.7499606,5.04545813 C31.9233339,5.04545813 35.3181317,8.44034193 35.3181317,12.6136453 C35.3181317,15.6093861 33.542686,18.3242367 30.7933114,19.5355409 Z" id="Shape"></path>
                </g>
                <rect id="Rectangle" x="0" y="0" width="58" height="58"></rect>
            </g>
        </g>
    </g>
</svg>